<svg xmlns="http://www.w3.org/2000/svg" width="244.793" height="244.807" viewBox="0 0 244.793 244.807"><defs><style>.a{fill:#7abee6;}.b{fill:#74c66d;}.c{fill:#211715;}</style></defs><path class="a" d="M122.4,2.4c-70.955,0-120,54.78-120,118.885,0,71.723,50.1,121.115,120,121.115s120-49.392,120-121.115C242.4,57.18,193.355,2.4,122.4,2.4Z"/><path class="b" d="M139.967,49.53c.056-.085.111-.17.166-.257,2.81-4.452,2.183-10.024.142-14.665a16.258,16.258,0,0,0-9.549-8.765C118.067,21.192,94.309,17.97,79.26,9.789,32.332,26.815,2.4,71.205,2.4,121.285q0,1.025.014,2.042c3.5.683,10.1,3.923,12.326,5.633a46.1,46.1,0,0,1,10,11.27c2.9,4.335,4.99,9.034,7.578,13.538a14.481,14.481,0,0,0,3.993,4.723c4.958,3.516,12.316.475,15.118-4.431,3.009-5.267.536-11.9,3.828-17.025,1.374-2.137,3.613-3.449,5.715-4.765,2.15-1.346,4.2-2.871,6.212-4.42,3.562-2.748,7.346-6.052,9.268-10.207a50.008,50.008,0,0,0,3.153-9.718c.588-2.522.719-6.746,3.333-8.155a6.163,6.163,0,0,1,8.96,4.85,5.505,5.505,0,0,0,1.93,4.05,4.925,4.925,0,0,0,5.93-.15c2.89-2.14,3.51-5.76,3.61-9.14.09-2.81-.11-5.68.71-8.37a11.643,11.643,0,0,1,6.08-7.03c3.23-1.53,7.26-1.63,9.76-4.19,3.75-3.84,1.339-10.135,2.7-15.334a6.078,6.078,0,0,1,1.767-2.924,60.326,60.326,0,0,1,5.552-3.737C133.6,55.559,137.552,53.18,139.967,49.53Z"/><path class="b" d="M174.122,20.107A15.471,15.471,0,0,1,176.3,19.1a22.793,22.793,0,0,1,6.694-1.308c30.141,16.961,50.787,46.4,57.25,80.447C230.72,94.89,211.19,86.35,204.52,81.86c-4.32-2.9-8.76-5.94-11.44-10.39-3.39-5.62-3.51-12.78-7.08-18.28-2.82-4.37-7.44-7.16-11.42-10.5s-7.63-7.97-7.2-13.15C167.714,25.521,170.555,22.1,174.122,20.107Z"/><path class="c" d="M183.01,15.4c-5.027.3-9.939,1.722-13.656,5.267A13.369,13.369,0,0,0,165.31,33.4c1.065,4.617,4.466,8.444,8.035,11.372,3.488,2.862,7.634,5.37,10.249,9.135,2.668,3.841,3.42,8.528,4.847,12.892a26.048,26.048,0,0,0,8.047,12.146c5.756,4.873,12.381,8.353,19.161,11.554A256.208,256.208,0,0,0,239.6,100.554a2.4,2.4,0,1,0,1.276-4.628c-6.565-2.319-12.99-5.076-19.324-7.96a114.619,114.619,0,0,1-17.53-9.333c-3.583-2.456-7.147-5.192-9.271-9.07-2.1-3.829-2.735-8.267-4.2-12.343a25.335,25.335,0,0,0-7.671-10.978c-3.347-2.848-7.124-5.211-10-8.583-2.753-3.234-4.276-7.55-1.917-11.429,2.527-4.156,7.432-5.754,12.042-6.03,3.07-.184,3.091-4.985,0-4.8Z"/><path class="b" d="M32.07,172.134a5.764,5.764,0,0,0-2.723-.1,3.747,3.747,0,0,0-1.8.859,3.89,3.89,0,0,0-.939,3.478,14.449,14.449,0,0,0,2.529,5.734,28.011,28.011,0,0,0,5.284,5.752c1.981,1.586,4.588,3.3,7.207,3.374a3.7,3.7,0,0,0,3.878-4.883A8.179,8.179,0,0,0,43.475,183c-.965-1.107-1.959-2.189-2.964-3.265-1.877-2.008-3.48-4.422-5.644-6.145A7.816,7.816,0,0,0,32.07,172.134Z"/><path class="b" d="M122.989,172.88a4.669,4.669,0,0,0-2.3,2.619,3.821,3.821,0,0,0-.019,2.729,4.153,4.153,0,0,0,1.947,1.991c1.99,1.062,4.367,1.3,6.533,1.805a83.391,83.391,0,0,0,10.5,1.71,5.629,5.629,0,0,0,4.04-.844c2.108-1.636,1.42-5.129.362-7.193-1.326-2.59-4.486-3.014-7.124-3.316-2.5-.286-5.017-.254-7.524-.408A12.354,12.354,0,0,0,122.989,172.88Z"/><path class="b" d="M130.291,127.68a37.841,37.841,0,0,1-8.278,1.307c-2.54.193-6.168.591-7.992-1.667a4.47,4.47,0,0,1,.083-5.153c1.491-2.224,4.016-3.027,6.357-4.08a32.558,32.558,0,0,0,7.464-4.224c3.4-2.782,5.514-12.133,11.785-8.309,3.392,2.069,2.4,6.293,1.4,9.407a29.968,29.968,0,0,1-3.42,7.81C135.814,125.505,133.371,126.726,130.291,127.68Z"/><path class="b" d="M108.754,137.147a13.219,13.219,0,0,0,.413-4.639,5.4,5.4,0,0,0-4.457-5.283,5.086,5.086,0,0,0-4.761,1.6c-1.116,1.5-1.012,3.562-.624,5.291s1.072,3.838,2.486,4.982A4.441,4.441,0,0,0,108.754,137.147Z"/><path class="b" d="M100.36,224.071c-9.94-.079-18.438-6.992-19.337-17.334-.588-6.761,4.961-12.523,11.141-14.3a12.851,12.851,0,0,1,9.438.631c4.037,2.093,4.493,4.955,9.72,4.63,1.8-.111,3.9-.134,5.543-.955,2.437-1.217,3.867-3.817,6.58-4.59a7.663,7.663,0,0,1,5.2.6,18.406,18.406,0,0,1,8.232,7.289,16.832,16.832,0,0,1,1.993,10.195,34.86,34.86,0,0,1-2.289,8,12.952,12.952,0,0,1-3.681,5.69,10.2,10.2,0,0,1-6.872,2.126c-3.154-.117-5.815-1.143-8.843-1.786C111.572,223.072,106.021,224.116,100.36,224.071Z"/><path class="b" d="M70.4,144.411a3.645,3.645,0,0,1,2.145-1.76A4.07,4.07,0,0,1,76.391,144c1.58,1.676,2.409,4.19,3,6.367a20.447,20.447,0,0,1,.518,8.524c-.463,2.761-3.621,4.655-6.2,3.185-2.648-1.508-3.477-6.053-3.943-8.763a19.672,19.672,0,0,1-.03-7.18A5.787,5.787,0,0,1,70.4,144.411Z"/><path class="b" d="M70.674,176.766a9.254,9.254,0,0,0,.5-3.256c-.163-5.11-5.357-6.248-9.466-4.876-3.763,1.256-7.4,3.747-9.1,7.422-1.4,3.019-1.125,6.519,2.156,8.1a13.1,13.1,0,0,0,7.348.81,9.133,9.133,0,0,0,5.664-3.254A16.275,16.275,0,0,0,70.674,176.766Z"/><path class="b" d="M142.77,85.67a7.575,7.575,0,0,0-3.763,2.062,7.391,7.391,0,0,0-1.551,8.022c2.018,3.312,5.924,3.956,9.9,3.485a5.439,5.439,0,0,0,5.024-4.938,7.847,7.847,0,0,0-1.345-5.58,7.978,7.978,0,0,0-3.55-2.8A8.541,8.541,0,0,0,142.77,85.67Z"/><path class="c" d="M1.782,125.634a27.594,27.594,0,0,1,5.9,2.122,34.047,34.047,0,0,1,5.523,3.04c4.665,3.348,8.286,8.471,11.163,13.364,1.618,2.751,3.035,5.612,4.548,8.42,1.442,2.677,2.952,5.429,5.366,7.36,4.164,3.332,9.886,3.037,14.3.3a14.136,14.136,0,0,0,5.117-5.324,20.658,20.658,0,0,0,1.886-8.439c.152-2.456.133-5.109,1.254-7.365,1.23-2.473,3.729-3.719,5.951-5.155,5.04-3.257,10.275-7.1,13.86-11.978,3.451-4.691,4.726-10.735,5.819-16.34.354-1.817.666-3.731,2.618-4.117a3.778,3.778,0,0,1,3.966,1.895,10.625,10.625,0,0,1,.709,2.918,7.477,7.477,0,0,0,2.087,3.789,7.264,7.264,0,0,0,8.478.879c5.587-3.1,5.321-9.895,5.509-15.386.092-2.694.622-5.3,2.5-7.335,1.7-1.848,3.827-2.6,6.18-3.274,2.6-.749,5.332-1.608,7.23-3.656a11.609,11.609,0,0,0,2.78-7.446c.159-2.536-.193-5.12.169-7.643a4.918,4.918,0,0,1,1.149-2.819,21.613,21.613,0,0,1,3.8-2.637c4.771-3.024,10.194-5.867,12.985-11.036,2.868-5.313,2.007-11.8-.586-17.044-4.554-9.2-15.764-10.993-24.77-13.234-10.188-2.534-20.524-4.828-30.3-8.74a63.2,63.2,0,0,1-6.5-3.037c-2.719-1.467-5.145,2.676-2.422,4.144,9.1,4.909,19.281,7.606,29.251,10.112,4.8,1.207,9.624,2.335,14.406,3.616,3.99,1.07,8.407,2.021,11.846,4.409,3.914,2.716,6.079,7.723,6.076,12.412,0,5.606-4.2,9.1-8.566,11.869-2.405,1.527-4.879,2.943-7.173,4.641-2.663,1.971-3.728,4.466-4.039,7.714-.384,4.021,1.316,10.13-3.028,12.476-2.154,1.163-4.706,1.464-6.963,2.4a14.226,14.226,0,0,0-6.224,5,15.964,15.964,0,0,0-2.584,8.633c-.125,2.642.136,5.35-.548,7.935-.485,1.83-1.853,4.29-4.088,4.1-2.378-.2-1.975-3.144-2.58-4.774A8.626,8.626,0,0,0,81.729,97.7c-2.105,1.173-3.155,3.471-3.69,5.719-.576,2.417-.932,4.851-1.61,7.251a27.824,27.824,0,0,1-3.453,8.225,28.834,28.834,0,0,1-5.592,5.752,74.234,74.234,0,0,1-7.621,5.553c-2.355,1.486-4.732,2.968-6.352,5.295-3.315,4.761-1.711,10.545-3.356,15.756a9.52,9.52,0,0,1-9.363,6.345,7.228,7.228,0,0,1-5.181-3.279,61.6,61.6,0,0,1-4.366-7.785,70.279,70.279,0,0,0-10.258-15.181,34.31,34.31,0,0,0-11.735-8.171,31.068,31.068,0,0,0-6.094-2.172c-3.014-.632-4.3,3.994-1.276,4.628Z"/><path class="c" d="M32.708,169.819c-2.419-.588-5.393-.325-7.123,1.675-1.649,1.905-1.677,4.484-.993,6.794,1.268,4.284,4.474,8.253,7.881,11.064,3.38,2.79,8.845,6.181,13.1,3.121a6.318,6.318,0,0,0,2.307-6.488c-.47-2.312-2.161-4.085-3.684-5.781-1.733-1.928-3.421-3.883-5.125-5.835a13.879,13.879,0,0,0-6.365-4.55c-2.967-.881-4.235,3.75-1.276,4.629,2.944.874,4.826,4.088,6.742,6.276,1.246,1.423,2.577,2.769,3.806,4.208A6.6,6.6,0,0,1,43,186.416a2.443,2.443,0,0,1,.224,1.369c-.092.473-.12.626-.556.865a2.406,2.406,0,0,1-1.344.177,9.8,9.8,0,0,1-4.3-1.992,23.569,23.569,0,0,1-6.445-6.891,12.449,12.449,0,0,1-1.209-2.456,5.711,5.711,0,0,1-.425-2.193c-.023.287.02-.131.027-.164.062-.307.006-.133.087-.291.1-.191.059-.119,0-.055.228-.242.091-.15.407-.3a3.473,3.473,0,0,1,1.964-.035C34.433,175.178,35.713,170.55,32.708,169.819Z"/><path class="c" d="M121.777,170.808a7.174,7.174,0,0,0-3.75,6.26c.038,2.97,2.3,4.878,4.853,5.882a45.337,45.337,0,0,0,7.363,1.77c2.743.569,5.519.981,8.3,1.295,2.472.28,5.152.237,7.062-1.617a7.079,7.079,0,0,0,1.7-6.327,9.413,9.413,0,0,0-2.472-5.3,10.4,10.4,0,0,0-5.769-2.511,84.24,84.24,0,0,0-8.781-.64c-2.96-.141-5.785-.144-8.51,1.188a2.423,2.423,0,0,0-.861,3.283,2.449,2.449,0,0,0,3.284.861,9.934,9.934,0,0,1,4.828-.6c2.042.1,4.091.137,6.131.273,2.25.15,5.741.15,6.877,2.4a6.361,6.361,0,0,1,.6,3.127,1.154,1.154,0,0,1-.436.858,2.72,2.72,0,0,1-1.666.371c-3.928-.025-7.9-1.1-11.717-1.881-1.7-.348-3.956-.5-5.394-1.574-1.248-.933-.276-2.385.775-2.975C126.894,173.441,124.477,169.293,121.777,170.808Z"/><path class="c" d="M122.4,0A129.918,129.918,0,0,0,81.971,6.316,117.931,117.931,0,0,0,22.206,50.429,120.48,120.48,0,0,0,5.822,83.452,125.007,125.007,0,0,0,0,121.117,140.685,140.685,0,0,0,5.331,160.3a119.411,119.411,0,0,0,15.226,33.089,111.331,111.331,0,0,0,23.7,25.732A116.878,116.878,0,0,0,75.637,236.69a130.991,130.991,0,0,0,37.125,7.791,141.672,141.672,0,0,0,39.3-2.79,121.383,121.383,0,0,0,34.175-12.93,111.935,111.935,0,0,0,27.4-21.806,113.977,113.977,0,0,0,19.565-29.71,129.939,129.939,0,0,0,10.345-36.683,136.437,136.437,0,0,0-.379-39.5,122.24,122.24,0,0,0-11.455-35.45,118.813,118.813,0,0,0-21.446-29.96,117.386,117.386,0,0,0-30.078-22.092A122.331,122.331,0,0,0,142.807,1.554,137.488,137.488,0,0,0,122.4,0c-3.089,0-3.094,4.8,0,4.8a125.537,125.537,0,0,1,38.993,6.092,114.606,114.606,0,0,1,32.534,16.85,112.032,112.032,0,0,1,24.614,25.239,116.293,116.293,0,0,1,15.857,31.9,120.56,120.56,0,0,1,5.6,36.4,135.746,135.746,0,0,1-5.16,37.736,115.107,115.107,0,0,1-14.657,31.815,107.444,107.444,0,0,1-22.92,24.794,109.879,109.879,0,0,1-29.669,16.541,126.628,126.628,0,0,1-35.726,7.521,137.02,137.02,0,0,1-37.85-2.629,117.03,117.03,0,0,1-32.9-12.372,107.5,107.5,0,0,1-26.458-21.019,109.912,109.912,0,0,1-18.852-28.708,123.4,123.4,0,0,1-9.777-34.57,131.11,131.11,0,0,1,.256-38.216A118.188,118.188,0,0,1,17.308,67.894,114.585,114.585,0,0,1,37.932,39.047,113.214,113.214,0,0,1,66.893,17.78,118.438,118.438,0,0,1,102.921,6.236,128.794,128.794,0,0,1,122.4,4.8C125.488,4.8,125.494,0,122.4,0Z"/><path class="c" d="M129.652,125.366a40.141,40.141,0,0,1-9.2,1.335c-1.363.077-4.546.388-4.8-1.555-.314-2.416,2.964-3.66,4.674-4.4a40.5,40.5,0,0,0,8.131-4.279,15.755,15.755,0,0,0,3.936-4.4,22.593,22.593,0,0,1,3-4.214c.137-.132.277-.263.425-.383.312-.255-.444.245.136-.084a5.3,5.3,0,0,1,.564-.307c-.413.172-.064.048.022.024.649-.183-.48.005.207-.048-.02,0,.685.032.361-.006a4.579,4.579,0,0,1,.981.348c1.787.962,1.76,2.674,1.368,4.515a29.985,29.985,0,0,1-3.161,8.564c-1.533,2.654-3.781,3.988-6.645,4.893-2.934.928-1.681,5.564,1.277,4.629a16.009,16.009,0,0,0,8.486-5.538c2.13-2.864,3.344-6.481,4.319-9.883.818-2.855,1.274-6.3-.51-8.909a7.7,7.7,0,0,0-7.856-3.219c-2.376.6-4.036,2.567-5.373,4.488-.662.952-1.255,1.948-1.886,2.92a8.662,8.662,0,0,1-1.584,2.05c-4.766,4.482-14.862,4.567-15.647,12.508-.447,4.515,3.577,6.911,7.546,7.113a37.616,37.616,0,0,0,5.438-.293A36.936,36.936,0,0,0,130.929,130C133.883,129.117,132.625,124.483,129.652,125.366Z"/><path class="c" d="M111.069,137.785a14.818,14.818,0,0,0,.49-5.444,8.464,8.464,0,0,0-1.829-4.8,7.786,7.786,0,0,0-8.738-2.284,6.516,6.516,0,0,0-3.951,4.06,9.991,9.991,0,0,0-.068,5.264c.672,3.208,2.2,6.392,5.483,7.55a6.969,6.969,0,0,0,5.146-.37,6.718,6.718,0,0,0,3.467-3.975,2.415,2.415,0,0,0-1.677-2.952,2.462,2.462,0,0,0-2.952,1.676c-.18.5.278-.47.01-.021-.05.084-.091.173-.141.256a2.01,2.01,0,0,0-.157.243c-.032-.155.358-.409.019-.04-.1.11-.36.257-.409.388l.265-.2c-.076.055-.153.107-.232.157-.118.075-.243.136-.363.208-.2.118-.226-.023.192-.07a2.186,2.186,0,0,0-.329.116,4.171,4.171,0,0,0-.612.147c.391-.2.465-.031.152-.032-.117,0-.234.01-.351.008-.094,0-.187-.011-.281-.014-.484-.015.513.127.078,0a3.368,3.368,0,0,0-.684-.205c.3-.022.414.207.175.063-.1-.062-.213-.127-.32-.183-.227-.118-.226-.3.056.07a2.319,2.319,0,0,0-.249-.219c-.1-.1-.2-.2-.289-.3-.4-.453.144.292-.09-.121-.114-.2-.246-.392-.355-.6-.083-.156-.156-.315-.234-.473-.168-.341.071.061.034.084.013-.008-.488-1.492-.531-1.658-.07-.269-.135-.541-.192-.813q-.038-.177-.069-.354c-.006-.033-.077-.622-.04-.224s-.013-.205-.015-.233c-.009-.123-.015-.247-.019-.37-.005-.155,0-.309,0-.463,0-.074.045-.7.009-.323-.038.4.042-.185.05-.222.027-.117.058-.235.094-.351.015-.05.254-.533.072-.222-.193.331.117-.176.129-.2.219-.435-.06.026-.068.052.028-.1.2-.224.276-.294.272-.261.209,0-.048.015a2.732,2.732,0,0,0,.419-.259,1.3,1.3,0,0,1,.3-.148l-.266.115q.157-.06.318-.108c.215-.066.434-.108.653-.158.553-.126-.537,0,.026,0,.11,0,.221-.012.331-.012s.218,0,.326.006.214.014.321.025q-.529-.078-.243-.027c.243.063.486.107.725.187l.154.053c.2.078.2.078.012,0l-.14-.056c.1.046.19.094.283.145s.182.105.271.162c.046.029.45.339.139.084s.079.079.115.112c.113.106.222.216.326.332a2.227,2.227,0,0,1,.2.236q-.323-.425-.1-.11l.085.131q.124.2.231.408l.07.14q.162.354-.055-.138a3.1,3.1,0,0,1,.231.765l.034.159c.037.212.04.213.011,0s-.026-.209,0,.007c.01.11.017.221.021.332.036.71.044,1.426.01,2.136-.008.172-.019.344-.034.515-.009.106-.139.719-.015.176-.09.4-.163.786-.288,1.174a2.42,2.42,0,0,0,1.676,2.952A2.453,2.453,0,0,0,111.069,137.785Z"/><path class="c" d="M100.36,221.671c-8.081-.129-15.16-5.414-16.73-13.482a11,11,0,0,1,4.279-10.909c3.435-2.763,8.761-4.2,12.81-1.96,1.664.921,2.921,2.307,4.516,3.347a10.517,10.517,0,0,0,6.477,1.412c2.674-.145,5.321-.388,7.556-2,1.614-1.167,3.138-3.368,5.213-3.7,2.263-.365,4.65,1.165,6.37,2.462a14.4,14.4,0,0,1,4.534,5.549c2.307,5.176.743,10.4-1.189,15.4-.918,2.378-2.43,4.67-4.982,5.454-2.777.854-5.578.181-8.308-.53a38.953,38.953,0,0,0-9.958-1.42c-3.534,0-7.054.389-10.588.38-3.089-.008-3.094,4.792,0,4.8,3.534.009,7.054-.376,10.588-.38a38.238,38.238,0,0,1,9.544,1.471,19.554,19.554,0,0,0,9.249.512,11.941,11.941,0,0,0,7.24-5.207,31.293,31.293,0,0,0,3.562-8.818,21.3,21.3,0,0,0,.491-9.5,19.375,19.375,0,0,0-10.825-13.705c-2.861-1.366-6.05-1.852-8.977-.372-2.138,1.081-3.526,3.367-5.736,4.265a12.425,12.425,0,0,1-3.979.553,7.023,7.023,0,0,1-3.173-.37c-1.686-.817-3.086-2.5-4.89-3.566-10.067-5.949-24.759,2.725-24.873,14.285a20.71,20.71,0,0,0,6.667,14.992,22.792,22.792,0,0,0,15.112,5.839C103.449,226.52,103.45,221.72,100.36,221.671Z"/><path class="c" d="M72.469,145.623a1.588,1.588,0,0,1,.711-.658c-.148.032.227-.018.255-.014a1.541,1.541,0,0,1,.741.306,6.454,6.454,0,0,1,1.953,2.816,20.288,20.288,0,0,1,1.559,9.347,7.046,7.046,0,0,1-.259,1.507c.082-.2-.093.163-.092.16a3.415,3.415,0,0,1-.265.414c.254-.324-.516.456-.168.175a1.758,1.758,0,0,1-1.182.529c.476-.078-.468-.035-.251-.009.266.032-.234-.059-.289-.077-.384-.128.233.137-.146-.051-.13-.065-.635-.458-.357-.211-.09-.08-.509-.515-.439-.431A9.4,9.4,0,0,1,73.423,158a4.076,4.076,0,0,1-.236-.616c-.085-.245-.164-.492-.239-.74-.195-.649-.355-1.309-.5-1.972a27.018,27.018,0,0,1-.6-4.08c-.091-1.6-.167-3.546.619-4.972,1.493-2.707-2.651-5.131-4.145-2.423-2.09,3.79-1.359,8.706-.5,12.751.728,3.431,2.148,7.344,5.719,8.672,4.082,1.517,8.209-1.7,8.776-5.739a24.334,24.334,0,0,0-2.048-13.242,9.081,9.081,0,0,0-5.151-5.206,5.84,5.84,0,0,0-6.8,2.764,2.4,2.4,0,0,0,4.145,2.423Z"/><path class="c" d="M72.988,177.405a10.047,10.047,0,0,0-.322-7.56,7.685,7.685,0,0,0-4.491-3.659c-4-1.362-8.6.216-11.976,2.442-3.724,2.454-7.192,6.716-6.762,11.451a7.528,7.528,0,0,0,3.405,5.749,13.082,13.082,0,0,0,7.515,1.711,12.785,12.785,0,0,0,7.721-2.756,16.967,16.967,0,0,0,4.91-7.378,2.4,2.4,0,1,0-4.629-1.277c-1.166,3.317-3.6,5.972-6.892,6.519a15.346,15.346,0,0,1-2.333.091,9.621,9.621,0,0,1-2.663-.473,3.5,3.5,0,0,1-1.824-1.179c.243.306-.038-.091-.088-.175s-.257-.538-.1-.143c-.084-.211-.127-.434-.2-.65-.025-.076-.081-.467-.027-.039-.019-.152-.026-.309-.031-.463-.006-.2,0-.391.011-.588,0-.108.089-.6.014-.2a8.46,8.46,0,0,1,.232-.958c.061-.2.129-.4.2-.594q.088-.23.005-.013c.059-.128.121-.254.186-.379a10.586,10.586,0,0,1,3.087-3.649,16.088,16.088,0,0,1,4.134-2.2c.365-.128.734-.242,1.111-.334.143-.034.287-.066.432-.095-.019,0,.693-.11.335-.063s.355-.027.336-.025c.146-.01.291-.017.437-.02.36-.008.717.013,1.076.037.671.045-.3-.068.094.018.2.043.406.083.607.139.164.045.324.1.487.152.47.143-.285-.2.165.075.166.1.887.6.5.272.133.115.738.785.435.376.122.165.212.347.327.514.265.385-.05-.3.1.2.044.143.091.281.129.426.008.03.132.732.08.293a7.259,7.259,0,0,1-.377,3.124,2.4,2.4,0,0,0,4.629,1.277Z"/><path class="c" d="M142.132,83.356a10.022,10.022,0,0,0-7.627,8.9,8.067,8.067,0,0,0,1.752,5.914,9.672,9.672,0,0,0,4.48,2.967,14.445,14.445,0,0,0,5.245.62,10.216,10.216,0,0,0,5.294-1.425c3.438-2.307,4.369-6.889,2.946-10.67a10.092,10.092,0,0,0-12.09-6.3,2.416,2.416,0,0,0-1.676,2.952,2.456,2.456,0,0,0,2.952,1.676,3.022,3.022,0,0,1,.817-.117,9.054,9.054,0,0,1,1.2.017c.037,0,.459.073.15.018.172.031.345.067.515.109.213.053.419.122.629.184.287.085-.21-.137.178.065a7.619,7.619,0,0,1,.969.584c-.341-.247.326.3.389.358.223.214.434.44.637.673-.038-.043.427.549.255.307-.085-.119.23.372.281.46.079.14.153.281.221.427.173.374-.112-.486.067.2.08.312.173.617.238.934.1.481.03.2.018.087.022.2.034.412.041.618.015.421-.037.841-.028,1.261s.14-.486-.015.13c-.034.135-.059.27-.1.405s-.089.257-.125.387c.113-.411.076-.148.006-.027s-.121.23-.189.341c0,.009-.363.522-.14.231s-.175.182-.184.191c-.108.112-.246.207-.345.325-.211.251.445-.256-.042.028-.11.064-.213.138-.323.2-.149.085-.78.335-.295.168-.279.1-.556.172-.84.251-.13.037-.587.114-.044.033-.226.034-.458.05-.686.07a17.56,17.56,0,0,1-1.919.062c-.331-.009-.659-.039-.989-.059-.1-.006-.471-.067-.006.007-.21-.034-.42-.069-.629-.113q-.411-.086-.813-.2c-.132-.04-.263-.082-.394-.128,0,0-.606-.259-.285-.105s-.269-.145-.264-.142c-.119-.063-.237-.13-.353-.2s-.227-.146-.341-.219c-.526-.342.3.306-.158-.125-.2-.189-.393-.389-.59-.583-.463-.455.137.222-.092-.1-.085-.119-.166-.241-.245-.365-.2-.308.1.473-.069-.154-.04-.145-.09-.286-.128-.432s-.06-.294-.1-.438c.121.459-.012-.145-.018-.247a8.078,8.078,0,0,1,.031-1.111c-.038.441-.009.071.014-.022.054-.216.095-.434.157-.649.041-.142.093-.281.135-.423.152-.518-.127.193.1-.246.17-.329.36-.638.549-.955.346-.581-.171.178.084-.126.117-.139.236-.275.363-.4.141-.146.29-.284.443-.417q.191-.159-.011,0c.1-.071.2-.139.3-.2.135-.088.272-.171.413-.25.086-.048.617-.31.471-.247-.234.1.227-.08.276-.1.267-.091.538-.164.812-.231a2.422,2.422,0,0,0,1.676-2.952A2.448,2.448,0,0,0,142.132,83.356Z"/></svg>