<?xml version="1.0" encoding="UTF-8" standalone="no"?>
<svg
   version="1.1"
   width="256"
   height="128"
   style="clip-rule:evenodd;fill-rule:evenodd;image-rendering:optimizeQuality;shape-rendering:geometricPrecision;text-rendering:geometricPrecision"
   id="svg37"
   sodipodi:docname="mship_gopher_dark.svg"
   inkscape:export-filename="mship_gopher_dark.svg"
   inkscape:export-xdpi="18.120001"
   inkscape:export-ydpi="18.120001"
   viewBox="0 0 691.89189 345.94594"
   inkscape:version="1.3.2 (091e20ef0f, 2023-11-25)"
   xmlns:inkscape="http://www.inkscape.org/namespaces/inkscape"
   xmlns:sodipodi="http://sodipodi.sourceforge.net/DTD/sodipodi-0.dtd"
   xmlns="http://www.w3.org/2000/svg"
   xmlns:svg="http://www.w3.org/2000/svg">
  <defs
     id="defs37" />
  <sodipodi:namedview
     id="namedview37"
     pagecolor="#ffffff"
     bordercolor="#666666"
     borderopacity="1.0"
     inkscape:showpageshadow="2"
     inkscape:pageopacity="0.0"
     inkscape:pagecheckerboard="0"
     inkscape:deskcolor="#d1d1d1"
     inkscape:zoom="1.0136364"
     inkscape:cx="609.19282"
     inkscape:cy="432.10762"
     inkscape:window-width="2039"
     inkscape:window-height="1394"
     inkscape:window-x="0"
     inkscape:window-y="0"
     inkscape:window-maximized="0"
     inkscape:current-layer="svg37" />
  <g
     id="g1">
    <path
       style="opacity:0.6"
       fill="#0b130c"
       d="m 217.5,96.5 c -1.574,1.6016 -2.241,3.602 -2,6 -0.997,6.323 -2.997,12.323 -6,18 1.016,2.782 2.016,5.449 3,8 -0.285,3.329 0.382,6.329 2,9 0.98,12.921 1.314,25.921 1,39 -0.65,0.304 -1.317,0.637 -2,1 -0.667,-9.158 -1.333,-18.158 -2,-27 -0.669,-18.506 -5.502,-35.839 -14.5,-52 -5.041,-6.6962 -11.541,-11.5295 -19.5,-14.5 -25.001,-8.2978 -50.668,-11.4645 -77,-9.5 0.166,4.0138 -0.001,8.0138 -0.5,12 -1.4272,2.2871 -3.2606,2.6205 -5.5,1 -0.8953,1.7464 -1.562,3.5797 -2,5.5 18.543,13.558 22.043,30.391 10.5,50.5 C 93.3649,154.399 81.5316,157.899 67.5,154 51.0689,145.41 44.5689,131.91 48,113.5 c 7.7762,-19.6377 21.9429,-26.6377 42.5,-21 0.304,-3.0219 0.804,-6.0219 1.5,-9 1.6804,-1.1034 3.1804,-0.7701 4.5,1 1.3122,-2.7375 2.3122,-5.5708 3,-8.5 -18.0083,0.0011 -34.675,4.6678 -50,14 -7.0422,6.5812 -12.2089,14.415 -15.5,23.5 -2.964,8.525 -5.2973,17.191 -7,26 -0.1428,47.351 -0.9761,94.684 -2.5,142 -1.3333,0 -2.6667,0 -4,0 1.2603,-24.987 2.2603,-49.987 3,-75 -1.4054,-22.683 -1.2387,-45.349 0.5,-68 1.1847,-6.072 2.6847,-12.072 4.5,-18 -4.967,-11.7 -8.3003,-23.8662 -10,-36.5 0.4725,-22.8983 10.4725,-28.565 30,-17 4.5858,4.0796 8.5858,8.5796 12,13.5 29.3099,-10.1912 59.31,-12.6912 90,-7.5 9.471,1.492 18.637,3.992 27.5,7.5 4.124,-6.4576 9.29,-11.9576 15.5,-16.5 5.46,-2.2847 11.127,-2.9513 17,-2 4.4,2.0774 6.9,5.5774 7.5,10.5 1.98,8.0522 1.813,16.0522 -0.5,24 z"
       id="path1" />
  </g>
  <g
     id="g2">
    <path
       style="opacity:0.996"
       fill="#64dc8b"
       d="m 210.5,66.5 c 3.984,12.3325 3.817,24.6658 -0.5,37 -3.675,-2.49 -7.175,-5.8238 -10.5,-10 2.598,-3.938 5.598,-7.6047 9,-11 -0.865,-1.0827 -1.865,-1.2494 -3,-0.5 -1.741,1.6196 -3.575,3.1196 -5.5,4.5 -0.333,-2.6667 -0.667,-5.3333 -1,-8 -0.414,-0.4574 -0.914,-0.7907 -1.5,-1 -0.838,4.7056 -1.838,9.3723 -3,14 -3.414,-2.4574 -6.914,-4.7907 -10.5,-7 -0.452,-5.6021 1.715,-10.1021 6.5,-13.5 5.847,-5.2163 12.513,-6.7163 20,-4.5 z"
       id="path2" />
  </g>
  <g
     id="g3">
    <path
       style="opacity:0.996"
       fill="#63da8a"
       d="m 27.5,66.5 c 6.8218,-2.0614 13.1551,-0.8947 19,3.5 3.2041,2.8688 6.0374,6.0354 8.5,9.5 0.6667,1.3333 0.6667,2.6667 0,4 -4.1053,2.638 -7.9386,5.638 -11.5,9 -0.9188,-5.0178 -1.9188,-10.0178 -3,-15 -0.6667,3.3333 -1.3333,6.6667 -2,10 -1.769,-2.057 -3.769,-3.8903 -6,-5.5 -1.135,-0.7494 -2.135,-0.5827 -3,0.5 3.4249,3.4145 6.4249,7.0812 9,11 -3.3309,3.4995 -6.4976,7.166 -9.5,11 -5.253,-12.9611 -5.753,-25.6278 -1.5,-38 z"
       id="path3" />
  </g>
  <g
     id="g4">
    <path
       style="opacity:0.996"
       fill="#66de8e"
       d="m 211.5,150.5 c 0.332,9.357 -0.002,18.69 -1,28 -7.361,3.861 -12.861,9.527 -16.5,17 -4.985,-13.3 -14.651,-19.966 -29,-20 -14.091,0.301 -23.924,6.968 -29.5,20 -0.996,-6.298 -1.33,-12.632 -1,-19 -1.373,0.157 -2.707,-0.01 -4,-0.5 1.558,-0.21 2.891,-0.71 4,-1.5 10.805,-0.943 14.639,-6.61 11.5,-17 -2.588,-3.71 -6.088,-6.043 -10.5,-7 -5.256,-9.445 -13.256,-12.611 -24,-9.5 -4.745,1.566 -7.412,4.733 -8,9.5 -11.7046,2.506 -15.2046,9.173 -10.5,20 1.9438,1.721 4.1105,3.054 6.5,4 1.938,1.663 4.272,2.329 7,2 0,35 0,70 0,105 -27.3333,0 -54.6667,0 -82,0 1.5239,-47.316 2.3572,-94.649 2.5,-142 1.7027,-8.809 4.036,-17.475 7,-26 3.2911,-9.085 8.4578,-16.9188 15.5,-23.5 15.325,-9.3322 31.9917,-13.9989 50,-14 -0.6878,2.9292 -1.6878,5.7625 -3,8.5 -1.3196,-1.7701 -2.8196,-2.1034 -4.5,-1 -0.696,2.9781 -1.196,5.9781 -1.5,9 -20.5571,-5.6377 -34.7238,1.3623 -42.5,21 -3.4311,18.41 3.0689,31.91 19.5,40.5 14.0316,3.899 25.8649,0.399 35.5,-10.5 11.543,-20.109 8.043,-36.942 -10.5,-50.5 0.438,-1.9203 1.1047,-3.7536 2,-5.5 2.2394,1.6205 4.0728,1.2871 5.5,-1 0.499,-3.9862 0.666,-7.9862 0.5,-12 26.332,-1.9645 51.999,1.2022 77,9.5 7.959,2.9705 14.459,7.8038 19.5,14.5 8.998,16.161 13.831,33.494 14.5,52 z"
       id="path4" />
  </g>
  <g
     id="g5">
    <path
       fill="#f8f9f9"
       d="m 72.5,92.5 c 23.9139,0.0809 35.414,12.081 34.5,36 C 101.97,146.53 90.1372,154.697 71.5,153 54.3441,145.863 47.1775,133.03 50,114.5 54.1086,103.557 61.6086,96.2232 72.5,92.5 Z"
       id="path5"
       style="opacity:1" />
  </g>
  <g
     id="g6">
    <path
       fill="#32ca65"
       d="m 210.5,66.5 c 1.673,0.843 2.84,2.1763 3.5,4 2.812,15.6161 0.812,30.616 -6,45 -3,-6 -6,-12 -9,-18 -0.765,-1.5657 -0.598,-2.8991 0.5,-4 3.325,4.1762 6.825,7.51 10.5,10 4.317,-12.3342 4.484,-24.6675 0.5,-37 z"
       id="path6"
       style="opacity:1" />
  </g>
  <g
     id="g7">
    <path
       fill="#31cb65"
       d="m 27.5,66.5 c -4.253,12.3722 -3.753,25.0389 1.5,38 3.0024,-3.834 6.1691,-7.5005 9.5,-11 0.8909,0.7613 1.5576,1.7613 2,3 -4.0218,6.043 -7.5218,12.377 -10.5,19 -3.927,-10.705 -6.427,-21.7055 -7.5,-33 0.0284,-3.7364 0.5284,-7.4031 1.5,-11 0.6972,-2.0844 1.8639,-3.7511 3.5,-5 z"
       id="path7"
       style="opacity:1" />
  </g>
  <g
     id="g8">
    <path
       style="opacity:0.00799997"
       fill="#18ee51"
       d="m 217.5,96.5 c -0.095,2.2857 -0.762,4.286 -2,6 -0.241,-2.398 0.426,-4.3984 2,-6 z"
       id="path8" />
  </g>
  <g
     id="g9">
    <path
       fill="#0e0e0e"
       d="m 69.5,115.5 c 9.2081,-1.613 13.3748,2.054 12.5,11 -2.3529,4.926 -6.1862,6.76 -11.5,5.5 -4.6549,-2.897 -6.1549,-7.063 -4.5,-12.5 1.3756,-1.205 2.5423,-2.538 3.5,-4 z"
       id="path9"
       style="opacity:1" />
  </g>
  <g
     id="g10">
    <path
       fill="#bdbdbd"
       d="m 75.5,118.5 c 1,0 2,0 3,0 0,1.333 0,2.667 0,4 -1,0 -2,0 -3,0 0,-1.333 0,-2.667 0,-4 z"
       id="path10"
       style="opacity:1" />
  </g>
  <g
     id="g11">
    <path
       style="opacity:0.00400002"
       fill="#00ff00"
       d="m 212.5,128.5 c 1.765,2.623 2.432,5.623 2,9 -1.618,-2.671 -2.285,-5.671 -2,-9 z"
       id="path11" />
  </g>
  <g
     id="g12">
    <path
       style="opacity:0.94"
       fill="#212121"
       d="m 519.5,133.5 c 8.097,-1.136 14.597,1.53 19.5,8 2.821,17.84 -4.679,24.673 -22.5,20.5 -7.888,-4.958 -10.055,-11.791 -6.5,-20.5 2.325,-3.735 5.491,-6.401 9.5,-8 z"
       id="path12" />
  </g>
  <g
     id="g13">
    <path
       fill="#0a0c08"
       d="m 134.5,174.5 c -2.266,-0.359 -4.099,0.308 -5.5,2 -0.278,-0.916 -0.778,-1.582 -1.5,-2 -2.361,-0.174 -4.694,-0.507 -7,-1 0,1 0,2 0,3 -1.4,-0.6 -2.4,-1.6 -3,-3 -2.065,0.017 -4.065,0.35 -6,1 -0.722,0.418 -1.222,1.084 -1.5,2 -0.383,-0.556 -0.883,-0.889 -1.5,-1 -2.787,-0.977 -5.787,-1.31 -9,-1 -2.3895,-0.946 -4.5562,-2.279 -6.5,-4 -4.7046,-10.827 -1.2046,-17.494 10.5,-20 0.588,-4.767 3.255,-7.934 8,-9.5 10.744,-3.111 18.744,0.055 24,9.5 4.412,0.957 7.912,3.29 10.5,7 3.139,10.39 -0.695,16.057 -11.5,17 z"
       id="path13"
       style="opacity:1" />
  </g>
  <g
     id="g14">
    <path
       fill="#181d19"
       d="m 167.5,93.5 c 3.149,-0.2886 6.149,0.2114 9,1.5 16.244,12.736 19.411,28.236 9.5,46.5 -8.649,11.554 -20.149,16.054 -34.5,13.5 -18.427,-8.353 -25.593,-22.519 -21.5,-42.5 0.308,-0.808 0.808,-1.475 1.5,-2 12.091,-5.715 24.091,-11.3814 36,-17 z"
       id="path14"
       style="opacity:1" />
  </g>
  <g
     id="g15">
    <path
       fill="#f8f9f9"
       d="m 168.5,95.5 c 6.561,1.0419 11.728,4.3752 15.5,10 8.996,16.844 6.163,31.344 -8.5,43.5 -20.513,8.991 -35.013,3.157 -43.5,-17.5 -0.667,-5.667 -0.667,-11.333 0,-17 0.374,-0.916 0.874,-1.75 1.5,-2.5 11.758,-5.548 23.424,-11.048 35,-16.5 z"
       id="path15"
       style="opacity:1" />
  </g>
  <g
     id="g16">
    <path
       fill="#0d0d0d"
       d="m 144.5,115.5 c 9.082,-0.759 13.249,3.241 12.5,12 -4.445,5.636 -9.445,6.303 -15,2 -2.582,-5.38 -1.749,-10.047 2.5,-14 z"
       id="path16"
       style="opacity:1" />
  </g>
  <g
     id="g17">
    <path
       fill="#b3b3b3"
       d="m 149.5,119.5 c 1.333,0 2.667,0 4,0 0,1 0,2 0,3 -1.333,0 -2.667,0 -4,0 0,-1 0,-2 0,-3 z"
       id="path17"
       style="opacity:1" />
  </g>
  <g
     id="g18">
    <path
       style="opacity:0.969"
       fill="#212121"
       d="m 389.5,141.5 c 9.667,0 19.333,0 29,0 -0.167,17.67 0,35.336 0.5,53 6.458,-12.946 16.958,-19.613 31.5,-20 20.894,1.396 33.06,12.396 36.5,33 0.5,24.664 0.667,49.331 0.5,74 -10,0 -20,0 -30,0 0.167,-22.336 0,-44.669 -0.5,-67 -1.968,-9.465 -7.801,-14.465 -17.5,-15 -10.551,0.511 -17.051,5.845 -19.5,16 -0.5,21.997 -0.667,43.997 -0.5,66 -10,0 -20,0 -30,0 0,-46.667 0,-93.333 0,-140 z"
       id="path18" />
  </g>
  <g
     id="g19">
    <path
       fill="#eacb99"
       d="m 101.5,152.5 c 1,0 2,0 3,0 0.711,3.882 3.044,6.382 7,7.5 7.076,1.356 13.743,0.356 20,-3 0.813,-1.803 1.98,-3.303 3.5,-4.5 9.497,2.654 12.164,8.321 8,17 -3.765,2.462 -7.932,3.462 -12.5,3 -10.654,-0.65 -21.321,-0.817 -32,-0.5 -4.3883,-2.61 -6.2216,-6.443 -5.5,-11.5 2.0738,-3.577 4.9072,-6.244 8.5,-8 z"
       id="path19"
       style="opacity:1" />
  </g>
  <g
     id="g20">
    <path
       fill="#e9eaea"
       d="m 117.5,173.5 c 0,1 0,2 0,3 -2.582,0.475 -4.582,-0.192 -6,-2 1.935,-0.65 3.935,-0.983 6,-1 z"
       id="path20"
       style="opacity:1" />
  </g>
  <g
     id="g21">
    <path
       style="opacity:0.989"
       fill="#212221"
       d="m 211.5,150.5 c 0.667,8.842 1.333,17.842 2,27 0.683,-0.363 1.35,-0.696 2,-1 13.215,-3.563 25.048,-0.896 35.5,8 4.005,5.011 6.672,10.678 8,17 0.5,26.665 0.667,53.331 0.5,80 -10,0 -20,0 -30,0 0.167,-23.669 0,-47.336 -0.5,-71 -1.912,-6.465 -6.245,-10.132 -13,-11 -0.499,5.323 -0.666,10.656 -0.5,16 -0.988,-5.14 -1.321,-10.474 -1,-16 -1,0 -2,0 -3,0 -6.476,1.165 -10.976,4.832 -13.5,11 -0.5,23.664 -0.667,47.331 -0.5,71 -9.333,0 -18.667,0 -28,0 0.167,-23.336 0,-46.669 -0.5,-70 -5.126,-11.973 -13.626,-15.14 -25.5,-9.5 -3.031,2.559 -5.198,5.726 -6.5,9.5 -0.5,23.331 -0.667,46.664 -0.5,70 -9.667,0 -19.333,0 -29,0 -0.326,-35.406 0.007,-70.74 1,-106 0.617,0.111 1.117,0.444 1.5,1 0.278,-0.916 0.778,-1.582 1.5,-2 1.418,1.808 3.418,2.475 6,2 0,-1 0,-2 0,-3 0.6,1.4 1.6,2.4 3,3 2.888,0.51 5.221,-0.156 7,-2 0.722,0.418 1.222,1.084 1.5,2 1.401,-1.692 3.234,-2.359 5.5,-2 -1.109,0.79 -2.442,1.29 -4,1.5 1.293,0.49 2.627,0.657 4,0.5 -0.33,6.368 0.004,12.702 1,19 5.576,-13.032 15.409,-19.699 29.5,-20 14.349,0.034 24.015,6.7 29,20 3.639,-7.473 9.139,-13.139 16.5,-17 0.998,-9.31 1.332,-18.643 1,-28 z"
       id="path21" />
  </g>
  <g
     id="g22">
    <path
       fill="#e1e2e1"
       d="m 127.5,174.5 c -1.779,1.844 -4.112,2.51 -7,2 0,-1 0,-2 0,-3 2.306,0.493 4.639,0.826 7,1 z"
       id="path22"
       style="opacity:1" />
  </g>
  <g
     id="g23">
    <path
       style="opacity:0.96"
       fill="#212121"
       d="m 322.5,174.5 c 12.658,-0.305 24.325,2.862 35,9.5 7.323,6.147 11.323,13.98 12,23.5 -9.009,0.368 -18.009,0.535 -27,0.5 -3.122,-7.764 -8.955,-11.597 -17.5,-11.5 -6.771,-0.45 -11.771,2.216 -15,8 0.207,6.552 3.707,10.386 10.5,11.5 11.519,1.904 22.853,4.57 34,8 16.038,7.426 21.204,19.592 15.5,36.5 -6.917,13.05 -17.75,20.55 -32.5,22.5 -17.241,3.069 -33.241,0.069 -48,-9 -7.323,-6.147 -11.323,-13.98 -12,-23.5 9.665,-0.625 19.331,-0.792 29,-0.5 3.106,8.484 9.272,12.65 18.5,12.5 6.441,0.111 11.774,-2.222 16,-7 1.378,-4.398 0.212,-7.898 -3.5,-10.5 -10.825,-3.299 -21.825,-5.966 -33,-8 -23.634,-8.224 -30.134,-23.724 -19.5,-46.5 10.277,-10.699 22.777,-16.032 37.5,-16 z"
       id="path23" />
  </g>
  <g
     id="g24">
    <path
       style="opacity:0.962"
       fill="#202020"
       d="m 619.5,174.5 c 25.928,2.091 40.761,16.091 44.5,42 3.084,19.188 -0.582,36.855 -11,53 -11.905,12.854 -26.405,17.021 -43.5,12.5 -8.105,-3.106 -13.939,-8.606 -17.5,-16.5 -0.5,18.664 -0.667,37.33 -0.5,56 -10,0 -20,0 -30,0 0,-48.333 0,-96.667 0,-145 10,0 20,0 30,0 -0.166,5.676 10e-4,11.343 0.5,17 5.748,-11.445 14.915,-17.778 27.5,-19 z m -8,24 c 10.472,0.636 17.305,5.969 20.5,16 4.125,13.785 2.459,26.785 -5,39 -7.371,6.455 -15.537,7.622 -24.5,3.5 -8.538,-7.258 -12.205,-16.591 -11,-28 -1.125,-10.733 2.208,-19.733 10,-27 3.35,-1.486 6.684,-2.653 10,-3.5 z"
       id="path24" />
  </g>
  <g
     id="g25">
    <path
       style="opacity:0.964"
       fill="#212121"
       d="m 509.5,176.5 c 10,0 20,0 30,0 0,35 0,70 0,105 -10,0 -20,0 -30,0 0,-35 0,-70 0,-105 z"
       id="path25" />
  </g>
  <g
     id="g26">
    <path
       style="opacity:0.996"
       fill="#4e9b67"
       d="m 99.5,174.5 c 3.213,-0.31 6.213,0.023 9,1 -0.993,35.26 -1.326,70.594 -1,106 -0.333,0 -0.667,0 -1,0 0,-35 0,-70 0,-105 -2.728,0.329 -5.062,-0.337 -7,-2 z"
       id="path26" />
  </g>
  <g
     id="g27">
    <path
       style="opacity:0.996"
       fill="#67de8e"
       d="m 169.5,281.5 c -11,0 -22,0 -33,0 -0.167,-23.336 0,-46.669 0.5,-70 1.302,-3.774 3.469,-6.941 6.5,-9.5 11.874,-5.64 20.374,-2.473 25.5,9.5 0.5,23.331 0.667,46.664 0.5,70 z"
       id="path27" />
  </g>
  <g
     id="g28">
    <path
       style="opacity:0.996"
       fill="#66dd8d"
       d="m 211.5,199.5 c 0.166,5.344 -0.001,10.677 -0.5,16 -7.39,5.351 -9.39,12.351 -6,21 2.412,5.159 5.079,10.159 8,15 0.5,9.994 0.666,19.994 0.5,30 -5.333,0 -10.667,0 -16,0 -0.167,-23.669 0,-47.336 0.5,-71 2.524,-6.168 7.024,-9.835 13.5,-11 z"
       id="path28" />
  </g>
  <g
     id="g29">
    <path
       fill="#151915"
       d="m 83.5,190.5 c 1,0 2,0 3,0 -0.1655,4.014 0.0012,8.014 0.5,12 1.3561,0.88 2.8561,1.214 4.5,1 -0.1633,-2.357 0.0034,-4.69 0.5,-7 0.7333,-4.488 2.7333,-5.488 6,-3 2.969,4.795 3.302,9.795 1,15 -2.6298,3.632 -5.6298,6.965 -9,10 -0.4221,1.855 -0.9221,3.689 -1.5,5.5 1.9266,3.238 2.4266,6.738 1.5,10.5 -1.8003,2.551 -3.8003,4.885 -6,7 -0.6667,1.667 -0.6667,3.333 0,5 4.5475,4.284 5.5475,9.284 3,15 -7.6471,5.33 -12.8138,3.497 -15.5,-5.5 2.2846,-4.924 3.6179,-10.09 4,-15.5 -7.4429,0.066 -14.7762,0.566 -22,1.5 -6.9416,-3.8 -9.4416,-9.633 -7.5,-17.5 4.0318,-7.537 10.1985,-10.037 18.5,-7.5 4.8837,1.684 9.8837,2.851 15,3.5 0.3297,-2.657 0.663,-5.324 1,-8 -1.5711,-4.901 -2.0711,-9.901 -1.5,-15 0.9042,-2.733 2.4042,-5.067 4.5,-7 z"
       id="path29"
       style="opacity:1" />
  </g>
  <g
     id="g30">
    <path
       fill="#ebcc99"
       d="m 53.5,219.5 c 10.0525,0.468 20.0525,1.968 30,4.5 3.6854,1.283 5.0188,3.617 4,7 -2.4412,0.036 -4.4412,0.869 -6,2.5 7.8895,0.155 7.8895,1.655 0,4.5 -8.8533,0.205 -17.52,0.872 -26,2 -7.0054,-3.174 -9.1721,-8.341 -6.5,-15.5 1.7073,-1.537 3.2073,-3.204 4.5,-5 z"
       id="path30"
       style="opacity:1" />
  </g>
  <g
     id="g31">
    <path
       fill="#4e5860"
       d="m 91.5,211.5 c 1.2666,-0.587 2.2666,-0.587 3,0 -1.5082,2.007 -3.3416,3.674 -5.5,5 -0.8221,2.288 -1.4888,4.622 -2,7 -1.4404,-1.43 -1.7737,-3.097 -1,-5 1.6665,-2.496 3.4998,-4.829 5.5,-7 z"
       id="path31"
       style="opacity:1" />
  </g>
  <g
     id="g32">
    <path
       fill="#64727d"
       d="m 91.5,211.5 c -5.0643,1.401 -8.0643,4.734 -9,10 -1.2414,-2.81 -0.908,-5.477 1,-8 -3.0086,-5.945 -3.6753,-12.112 -2,-18.5 0.9835,-0.591 1.6501,-0.257 2,1 -1.3595,3.411 -0.8595,6.578 1.5,9.5 3.2056,1.624 5.8723,0.958 8,-2 0.6011,-3.137 1.6011,-6.137 3,-9 0.3333,0.333 0.6667,0.667 1,1 0.3089,6.111 -1.5245,11.444 -5.5,16 z"
       id="path32"
       style="opacity:1" />
  </g>
  <g
     id="g33">
    <path
       style="opacity:0.511"
       fill="#12160e"
       d="m 211.5,199.5 c 1,0 2,0 3,0 -0.321,5.526 0.012,10.86 1,16 3.156,4.972 6.323,9.972 9.5,15 2.623,6.588 2.956,13.255 1,20 -2.285,3.392 -5.452,5.059 -9.5,5 0.777,8.657 1.444,17.323 2,26 -1.667,0 -3.333,0 -5,0 0.166,-10.006 0,-20.006 -0.5,-30 -2.921,-4.841 -5.588,-9.841 -8,-15 -3.39,-8.649 -1.39,-15.649 6,-21 0.499,-5.323 0.666,-10.656 0.5,-16 z"
       id="path33" />
  </g>
  <g
     id="g34">
    <path
       style="opacity:0.998"
       fill="#e8c896"
       d="m 210.5,217.5 c 5.8,4.672 9.967,10.672 12.5,18 0.827,4.041 0.66,8.041 -0.5,12 -0.667,-1.333 -1.333,-2.667 -2,-4 -0.333,0.667 -0.667,1.333 -1,2 0.656,1.953 0.989,3.953 1,6 -3.152,0.541 -5.652,-0.459 -7.5,-3 -2.257,-4.183 -4.257,-8.516 -6,-13 -1.459,-6.618 -0.292,-12.618 3.5,-18 z"
       id="path34" />
  </g>
  <g
     id="g35">
    <path
       fill="#4b545c"
       d="m 81.5,240.5 c 0.3754,4.313 1.8754,8.313 4.5,12 0.6667,2.667 0.6667,5.333 0,8 -0.7175,0.951 -1.5509,1.117 -2.5,0.5 0.7401,-1.785 1.4067,-3.618 2,-5.5 -1.5156,-3.031 -3.0156,-6.031 -4.5,-9 -0.4901,-2.045 -0.3235,-4.045 0.5,-6 z"
       id="path35"
       style="opacity:1" />
  </g>
  <g
     id="g36">
    <path
       fill="#536068"
       d="m 77.5,240.5 c 0.9972,-0.03 1.6639,0.47 2,1.5 -0.9091,1.789 -1.0758,3.623 -0.5,5.5 2.0298,2.726 3.5298,5.726 4.5,9 -1.3109,6.36 -4.1442,7.36 -8.5,3 -0.7811,-1.229 -1.2811,-2.562 -1.5,-4 2.2902,-4.737 3.6235,-9.737 4,-15 z"
       id="path36"
       style="opacity:1" />
  </g>
  <g
     id="g37">
    <path
       fill="#152019"
       d="m 76.5,252.5 c 4.878,0.035 6.2113,2.368 4,7 -2.0846,1.147 -3.5846,0.48 -4.5,-2 -0.6397,-1.765 -0.4731,-3.432 0.5,-5 z"
       id="path37"
       style="opacity:1" />
  </g>
</svg>
