<?xml version="1.0" encoding="UTF-8"?><svg id="Layer_1" xmlns="http://www.w3.org/2000/svg" viewBox="0 0 308 130"><defs><style>.cls-1{fill:#0b8759;}.cls-2{fill:#252b37;}</style></defs><path class="cls-2" d="M304,126.013051l-18.591704-21.066773c9.151954-10.763621,14.620122-24.750576,14.620122-39.946279,0-34.247889-27.858784-62.106678-62.106673-62.106678s-62.106673,27.858788-62.106673,62.106678,27.858784,62.106678,62.106673,62.106678c11.74213,0,22.735994-3.280888,32.118182-8.979282l6.907137,7.885647,27.052937.000009ZM250.066762,65.230239h-27.052955l33.384497,37.528778c-5.583276,2.762857-11.857256,4.259398-18.476596,4.259398-23.138917,0-42.018419-18.879511-42.018419-42.018419s18.879502-42.018419,42.018419-42.018419,42.018419,18.879511,42.018419,42.018419c0,9.209517-2.9931,17.728321-8.058327,24.693021l-21.815039-24.462778Z"/><path class="cls-1" d="M66.106675,22.952799c13.929392,0,26.995401,6.907137,34.823484,18.476592l2.072145,3.108213,17.382961-10.072909-2.302379-3.511127C106.57099,13.397926,87.173448,2.864542,66.106675,2.864542,31.916346,2.864542,4,30.723328,4,65.028776s27.858788,62.106682,62.106679,62.106682c21.009214,0,40.406748-10.475823,51.976206-28.089027l2.302379-3.511132-17.382961-10.072909-2.072145,3.108208c-7.885647,11.569459-20.836529,18.476587-34.823484,18.476587-23.138908,0-42.018419-18.879511-42.018419-42.018419s18.879511-42.075969,42.018419-42.075969Z"/><rect class="cls-2" x="137.940912" y="4.418646" width="20.145818" height="121.162708"/></svg>