<?xml version="1.0" encoding="iso-8859-1"?>
<!-- Uploaded to: SVG Repo, www.svgrepo.com, Generator: SVG Repo Mixer Tools -->
<svg version="1.1" id="Layer_1" xmlns="http://www.w3.org/2000/svg" xmlns:xlink="http://www.w3.org/1999/xlink" 
	 viewBox="0 0 512.001 512.001" xml:space="preserve">
<path style="fill:#78A5FF;" d="M501.042,221.512c-29.412-42.161-63.315-62.652-103.645-62.652
	c-41.188,0-66.774,28.277-85.457,48.922c-10.857,11.995-21.111,23.328-29.342,23.328c-0.759,0-1.436,0.252-2.139,0.432
	c0.18-0.703,0.432-1.38,0.432-2.139c0-8.236,11.332-18.489,23.328-29.338c20.645-18.688,48.922-44.274,48.922-85.462
	c0-40.333-20.494-74.233-62.647-103.641c-20.951-14.608-48.022-14.608-68.981,0c-42.154,29.407-62.648,63.308-62.648,103.641
	c0,41.188,28.277,66.774,48.922,85.462c11.995,10.849,23.327,21.102,23.327,29.338c0,0.759,0.252,1.436,0.432,2.139
	c-0.703-0.18-1.38-0.432-2.139-0.432c-8.231,0-18.485-11.332-29.342-23.328c-18.684-20.645-44.27-48.922-85.457-48.922
	c-40.329,0-74.233,20.49-103.645,62.652c-14.613,20.948-14.613,48.026,0,68.973c29.412,42.161,63.315,62.652,103.645,62.652
	c41.188,0,66.774-28.277,85.457-48.922c10.857-11.995,21.111-23.328,29.342-23.328c0.759,0,1.436-0.252,2.139-0.432
	c-0.18,0.703-0.432,1.38-0.432,2.139c0,8.236-11.332,18.489-23.327,29.338c-20.645,18.688-48.922,44.274-48.922,85.462
	c0,40.324,20.49,74.225,62.648,103.641c10.478,7.304,22.482,10.961,34.491,10.961s24.013-3.657,34.491-10.961
	c42.157-29.415,62.647-63.315,62.647-103.641c0-41.188-28.277-66.774-48.922-85.462c-11.995-10.849-23.328-21.102-23.328-29.338
	c0-0.759-0.252-1.436-0.432-2.139c0.703,0.18,1.38,0.432,2.139,0.432c8.231,0,18.485,11.332,29.342,23.328
	c18.684,20.645,44.27,48.922,85.457,48.922c40.329,0,74.233-20.491,103.645-62.652C515.654,269.538,515.654,242.458,501.042,221.512
	z"/>
<path style="fill:#6993F2;" d="M213.528,306.688c11.5,9.627,26.302,15.437,42.474,15.437s30.974-5.811,42.474-15.437
	c-9.621-8.886-17.585-17.201-17.585-24.095c0-0.759-0.252-1.436-0.432-2.139c0.703,0.18,1.38,0.432,2.139,0.432
	c6.89,0,15.207,7.965,24.1,17.59c9.683-11.515,15.535-26.359,15.535-42.582c0-16.172-5.812-30.976-15.441-42.476
	c-8.929,9.67-17.28,17.691-24.194,17.691c-0.759,0-1.436,0.252-2.139,0.432c0.18-0.703,0.432-1.38,0.432-2.139
	c0-6.92,8.025-15.273,17.698-24.198c-11.516-9.685-26.361-15.54-42.586-15.54s-31.07,5.855-42.586,15.54
	c9.673,8.926,17.698,17.278,17.698,24.198c0,0.759,0.252,1.436,0.432,2.139c-0.703-0.18-1.38-0.432-2.139-0.432
	c-6.916,0-15.266-8.022-24.194-17.691c-9.629,11.5-15.441,26.305-15.441,42.476c0,16.223,5.853,31.067,15.535,42.582
	c8.893-9.624,17.209-17.59,24.1-17.59c0.759,0,1.436-0.252,2.139-0.432c-0.18,0.703-0.432,1.38-0.432,2.139
	C231.113,289.486,223.15,297.802,213.528,306.688z"/>
<g>
	<circle style="fill:#5A82E6;" cx="256.005" cy="255.893" r="26.492"/>
	<rect x="185.359" y="247.062" style="fill:#5A82E6;" width="141.292" height="17.661"/>
	<rect x="247.174" y="185.247" style="fill:#5A82E6;" width="17.661" height="141.292"/>
</g>
<g>
	<circle style="fill:#BEDCFF;" cx="185.359" cy="255.893" r="17.661"/>
	<circle style="fill:#BEDCFF;" cx="326.651" cy="255.893" r="17.661"/>
	<circle style="fill:#BEDCFF;" cx="256.005" cy="326.539" r="17.661"/>
	<circle style="fill:#BEDCFF;" cx="256.005" cy="185.247" r="17.661"/>
</g>
</svg>