<?xml version="1.0" encoding="UTF-8"?><svg id="Layer_1" xmlns="http://www.w3.org/2000/svg" xmlns:xlink="http://www.w3.org/1999/xlink" viewBox="0 0 628 628"><defs><style>.cls-1{fill:url(#linear-gradient);}</style><linearGradient id="linear-gradient" x1="26.16" y1="315.96" x2="606.97" y2="315.96" gradientUnits="userSpaceOnUse"><stop offset="0" stop-color="#00ba7b"/><stop offset=".5" stop-color="#00aaa6"/><stop offset="1" stop-color="#0097d6"/></linearGradient></defs><g><path d="m78.89,355.18c-29.5,0-52.73-22.66-52.73-51.44s23.23-51.44,52.73-51.44,52.87,22.66,52.87,51.44-23.23,51.44-52.87,51.44Zm0-83.93c-17.81,0-31.49,13.96-31.49,32.49s13.68,32.49,31.49,32.49,31.64-14.11,31.64-32.49-13.68-32.49-31.64-32.49Z"/><path d="m142.18,288.78h16.8v5.35c5.23-4.11,11.57-6.22,18.42-6.22,18.42,0,32.98,14.68,32.98,33.35s-14.69,33.23-33.48,33.23c-6.35,0-12.57-1.74-17.67-5.1v30.24h-17.05v-90.85Zm17.05,19.79v25.51c3.73,3.73,9.33,5.97,15.43,5.97,10.7,0,18.92-8.09,18.92-18.79s-8.34-18.79-18.92-18.79c-6.22,0-11.57,2.12-15.43,6.1Z"/><path d="m251.94,354.86c-19.66,0-34.85-14.69-34.85-33.6s14.56-33.6,33.35-33.6,32.11,14.93,32.11,34.85v4.48h-48.29c2.36,8.09,9.46,13.57,18.42,13.57,5.72,0,10.83-1.87,14.31-5.23l11.2,10.21c-7.96,6.47-15.93,9.33-26.26,9.33Zm-17.8-40.07h31.73c-2.12-7.72-8.34-13.07-15.81-13.07-7.84,0-13.81,5.1-15.93,13.07Z"/><path d="m291.76,288.78h17.05v5.1c4.98-4.11,11.08-6.35,18.17-6.35,15.06,0,25.64,10.58,25.64,25.76v40.32h-17.05v-37.83c0-8.21-5.23-13.57-13.44-13.57-5.73,0-10.33,2.24-13.32,6.47v44.93h-17.05v-64.84Z"/><path d="m365.43,266.5h66.95v15.68h-48.91v19.91h32.23v15.18h-32.23v20.66h49.41v15.68h-67.45v-87.12Z"/><path d="m444.45,266.5h18.05v71.19h47.66v15.93h-65.71v-87.12Z"/><path d="m550.72,266.5h20.91l35.34,87.12h-19.54l-8.84-22.9h-35.97l-8.96,22.9h-18.79l35.84-87.12Zm22.4,49.78l-12.32-32.11-12.57,32.11h24.89Z"/></g><g><path class="cls-1" d="m78.89,355.18c-29.5,0-52.73-22.66-52.73-51.44s23.23-51.44,52.73-51.44,52.87,22.66,52.87,51.44-23.23,51.44-52.87,51.44Zm0-83.93c-17.81,0-31.49,13.96-31.49,32.49s13.68,32.49,31.49,32.49,31.64-14.11,31.64-32.49-13.68-32.49-31.64-32.49Z"/><path class="cls-1" d="m142.18,288.78h16.8v5.35c5.23-4.11,11.57-6.22,18.42-6.22,18.42,0,32.98,14.68,32.98,33.35s-14.69,33.23-33.48,33.23c-6.35,0-12.57-1.74-17.67-5.1v30.24h-17.05v-90.85Zm17.05,19.79v25.51c3.73,3.73,9.33,5.97,15.43,5.97,10.7,0,18.92-8.09,18.92-18.79s-8.34-18.79-18.92-18.79c-6.22,0-11.57,2.12-15.43,6.1Z"/><path class="cls-1" d="m251.94,354.86c-19.66,0-34.85-14.69-34.85-33.6s14.56-33.6,33.35-33.6,32.11,14.93,32.11,34.85v4.48h-48.29c2.36,8.09,9.46,13.57,18.42,13.57,5.72,0,10.83-1.87,14.31-5.23l11.2,10.21c-7.96,6.47-15.93,9.33-26.26,9.33Zm-17.8-40.07h31.73c-2.12-7.72-8.34-13.07-15.81-13.07-7.84,0-13.81,5.1-15.93,13.07Z"/><path class="cls-1" d="m291.76,288.78h17.05v5.1c4.98-4.11,11.08-6.35,18.17-6.35,15.06,0,25.64,10.58,25.64,25.76v40.32h-17.05v-37.83c0-8.21-5.23-13.57-13.44-13.57-5.73,0-10.33,2.24-13.32,6.47v44.93h-17.05v-64.84Z"/><path class="cls-1" d="m365.43,266.5h66.95v15.68h-48.91v19.91h32.23v15.18h-32.23v20.66h49.41v15.68h-67.45v-87.12Z"/><path class="cls-1" d="m444.45,266.5h18.05v71.19h47.66v15.93h-65.71v-87.12Z"/><path class="cls-1" d="m550.72,266.5h20.91l35.34,87.12h-19.54l-8.84-22.9h-35.97l-8.96,22.9h-18.79l35.84-87.12Zm22.4,49.78l-12.32-32.11-12.57,32.11h24.89Z"/></g></svg>