<?xml version="1.0" encoding="UTF-8"?><svg id="Layer_1" xmlns="http://www.w3.org/2000/svg" xmlns:xlink="http://www.w3.org/1999/xlink" viewBox="0 0 1200 267.79"><defs><style>.cls-1{fill:url(#linear-gradient);}</style><linearGradient id="linear-gradient" x1="58.59" y1="136.18" x2="1151.06" y2="136.18" gradientUnits="userSpaceOnUse"><stop offset="0" stop-color="#00ba7b"/><stop offset=".5" stop-color="#00aaa6"/><stop offset="1" stop-color="#0097d6"/></linearGradient></defs><g><path d="m157.76,209.95c-55.48,0-99.17-42.62-99.17-96.76S102.28,16.43,157.76,16.43s99.44,42.62,99.44,96.76-43.69,96.76-99.44,96.76Zm0-157.87c-33.5,0-59.24,26.27-59.24,61.11s25.73,61.11,59.24,61.11,59.5-26.54,59.5-61.11-25.73-61.11-59.5-61.11Z"/><path d="m276.81,85.05h31.6v10.07c9.83-7.72,21.77-11.7,34.64-11.7,34.64,0,62.03,27.62,62.03,62.73s-27.62,62.5-62.96,62.5c-11.94,0-23.64-3.28-33.24-9.6v56.88h-32.07V85.05Zm32.07,37.22v47.98c7.02,7.02,17.55,11.24,29.02,11.24,20.13,0,35.58-15.21,35.58-35.34s-15.68-35.34-35.58-35.34c-11.7,0-21.77,3.98-29.02,11.47Z"/><path d="m483.26,209.34c-36.98,0-65.54-27.62-65.54-63.2s27.39-63.2,62.73-63.2,60.39,28.09,60.39,65.54v8.43h-90.82c4.45,15.21,17.79,25.51,34.64,25.51,10.77,0,20.36-3.51,26.92-9.83l21.07,19.19c-14.98,12.17-29.96,17.55-49.39,17.55Zm-33.47-75.37h59.69c-3.98-14.51-15.68-24.58-29.73-24.58-14.75,0-25.98,9.6-29.96,24.58Z"/><path d="m558.16,85.05h32.07v9.6c9.36-7.72,20.83-11.94,34.17-11.94,28.32,0,48.22,19.9,48.22,48.45v75.84h-32.07v-71.16c0-15.45-9.83-25.51-25.28-25.51-10.77,0-19.43,4.21-25.04,12.17v84.5h-32.07v-121.95Z"/><path d="m696.73,43.15h125.93v29.49h-91.99v37.45h60.62v28.56h-60.62v38.86h92.93v29.49h-126.87V43.15Z"/><path d="m845.36,43.15h33.94v133.89h89.65v29.96h-123.59V43.15Z"/><path d="m1045.26,43.15h39.32l66.48,163.85h-36.75l-16.62-43.07h-67.65l-16.85,43.07h-35.34l67.41-163.85Zm42.13,93.63l-23.17-60.39-23.64,60.39h46.81Z"/></g><g><path class="cls-1" d="m157.76,209.95c-55.48,0-99.17-42.62-99.17-96.76S102.28,16.43,157.76,16.43s99.44,42.62,99.44,96.76-43.69,96.76-99.44,96.76Zm0-157.87c-33.5,0-59.24,26.27-59.24,61.11s25.73,61.11,59.24,61.11,59.5-26.54,59.5-61.11-25.73-61.11-59.5-61.11Z"/><path class="cls-1" d="m276.81,85.05h31.6v10.07c9.83-7.72,21.77-11.7,34.64-11.7,34.64,0,62.03,27.62,62.03,62.73s-27.62,62.5-62.96,62.5c-11.94,0-23.64-3.28-33.24-9.6v56.88h-32.07V85.05Zm32.07,37.22v47.98c7.02,7.02,17.55,11.24,29.02,11.24,20.13,0,35.58-15.21,35.58-35.34s-15.68-35.34-35.58-35.34c-11.7,0-21.77,3.98-29.02,11.47Z"/><path class="cls-1" d="m483.26,209.34c-36.98,0-65.54-27.62-65.54-63.2s27.39-63.2,62.73-63.2,60.39,28.09,60.39,65.54v8.43h-90.82c4.45,15.21,17.79,25.51,34.64,25.51,10.77,0,20.36-3.51,26.92-9.83l21.07,19.19c-14.98,12.17-29.96,17.55-49.39,17.55Zm-33.47-75.37h59.69c-3.98-14.51-15.68-24.58-29.73-24.58-14.75,0-25.98,9.6-29.96,24.58Z"/><path class="cls-1" d="m558.16,85.05h32.07v9.6c9.36-7.72,20.83-11.94,34.17-11.94,28.32,0,48.22,19.9,48.22,48.45v75.84h-32.07v-71.16c0-15.45-9.83-25.51-25.28-25.51-10.77,0-19.43,4.21-25.04,12.17v84.5h-32.07v-121.95Z"/><path class="cls-1" d="m696.73,43.15h125.93v29.49h-91.99v37.45h60.62v28.56h-60.62v38.86h92.93v29.49h-126.87V43.15Z"/><path class="cls-1" d="m845.36,43.15h33.94v133.89h89.65v29.96h-123.59V43.15Z"/><path class="cls-1" d="m1045.26,43.15h39.32l66.48,163.85h-36.75l-16.62-43.07h-67.65l-16.85,43.07h-35.34l67.41-163.85Zm42.13,93.63l-23.17-60.39-23.64,60.39h46.81Z"/></g></svg>