<svg width="193" height="193" viewBox="0 0 193 193" fill="none" xmlns="http://www.w3.org/2000/svg">
<path d="M43.4345 111.221H68.7667V118.5H34.5V73.5H68.5054V80.7792H43.4345H42.9345V81.2792V91.793V92.293H43.4345H59.7853V99.3111H43.4345H42.9345V99.8111V110.721V111.221H43.4345Z" fill="url(#paint0_linear_4_17)" stroke="url(#paint1_linear_4_17)"/>
<path d="M84.6638 111.089H108.633V118.5H75.9V73.5H84.1638V110.589V111.089H84.6638Z" fill="url(#paint2_linear_4_17)" stroke="url(#paint3_linear_4_17)"/>
<path d="M145.555 106.732L145.433 106.408H145.087H126.522H126.178L126.055 106.73L121.554 118.5H112.94L131.037 73.5H141.15L158.997 118.5H149.994L145.555 106.732ZM142.261 99.7861H142.982L142.729 99.1105L136.37 82.1564L135.907 80.9206L135.435 82.1533L128.948 99.1074L128.688 99.7861H129.415H142.261Z" fill="url(#paint4_linear_4_17)" stroke="url(#paint5_linear_4_17)"/>
<circle cx="96.5" cy="96.5" r="87" stroke="url(#paint6_linear_4_17)" stroke-width="19"/>
<defs>
<linearGradient id="paint0_linear_4_17" x1="-153.167" y1="99.1177" x2="69.2667" y2="99.1177" gradientUnits="userSpaceOnUse">
<stop stop-color="#00BA7B"/>
<stop offset="0.5" stop-color="#00AAA6"/>
<stop offset="1" stop-color="#0097D6"/>
</linearGradient>
<linearGradient id="paint1_linear_4_17" x1="-153.167" y1="99.1177" x2="69.2667" y2="99.1177" gradientUnits="userSpaceOnUse">
<stop stop-color="#00BA7B"/>
<stop offset="0.5" stop-color="#00AAA6"/>
<stop offset="1" stop-color="#0097D6"/>
</linearGradient>
<linearGradient id="paint2_linear_4_17" x1="-103.63" y1="99.1177" x2="109.133" y2="99.1177" gradientUnits="userSpaceOnUse">
<stop stop-color="#00BA7B"/>
<stop offset="0.5" stop-color="#00AAA6"/>
<stop offset="1" stop-color="#0097D6"/>
</linearGradient>
<linearGradient id="paint3_linear_4_17" x1="-103.63" y1="99.1177" x2="109.133" y2="99.1177" gradientUnits="userSpaceOnUse">
<stop stop-color="#00BA7B"/>
<stop offset="0.5" stop-color="#00AAA6"/>
<stop offset="1" stop-color="#0097D6"/>
</linearGradient>
<linearGradient id="paint4_linear_4_17" x1="-140.069" y1="99.1177" x2="159.733" y2="99.1177" gradientUnits="userSpaceOnUse">
<stop stop-color="#00BA7B"/>
<stop offset="0.5" stop-color="#00AAA6"/>
<stop offset="1" stop-color="#0097D6"/>
</linearGradient>
<linearGradient id="paint5_linear_4_17" x1="-140.069" y1="99.1177" x2="159.733" y2="99.1177" gradientUnits="userSpaceOnUse">
<stop stop-color="#00BA7B"/>
<stop offset="0.5" stop-color="#00AAA6"/>
<stop offset="1" stop-color="#0097D6"/>
</linearGradient>
<linearGradient id="paint6_linear_4_17" x1="-1024.29" y1="109.581" x2="193" y2="109.581" gradientUnits="userSpaceOnUse">
<stop stop-color="#00BA7B"/>
<stop offset="0.5" stop-color="#00AAA6"/>
<stop offset="1" stop-color="#0097D6"/>
</linearGradient>
</defs>
</svg>
