<?xml version="1.0" encoding="utf-8"?>
<!-- Uploaded to: SVG Repo, www.svgrepo.com, Generator: SVG Repo Mixer Tools -->
<svg width="800px" height="800px" viewBox="0 -42.18 311.289 311.289" xmlns="http://www.w3.org/2000/svg"><defs><style>.a{fill:#6dbf6b;}.b{fill:#8acc89;}.c{fill:#a095c1;}.d{fill:#3f88c9;}.e{fill:#211715;}.f{fill:#cfcae0;}.g{fill:#9fc3e4;}.h{fill:#c6dcef;}</style></defs><path class="a" d="M48.684,133.205c-12.957-2.692-25.556-8.486-33.725-18.964C4.481,100.8.814,81.176,3.034,64.284c10.612-1.486,30.99-9.908,44.94-9.169a50.311,50.311,0,0,1,19.484,4.994s18.642,6.4,8.91,40.229S48.684,133.205,48.684,133.205Z"/><path class="b" d="M68.04,79.63a10.246,10.246,0,0,1-2.014-2.77A16.133,16.133,0,0,1,64.71,65.386c1.056-4.095,2.562-6.064,6.615-8.269,0,0,1.893-.612,2.124-.709a6.428,6.428,0,0,0-.326-.91c-1.773-.043-5.994-1.744-7.878-6.141a10.981,10.981,0,0,1-.686-5.077,12.084,12.084,0,0,1,9.308-9.68,13.623,13.623,0,0,1-.581-5.163,7.091,7.091,0,0,1,7.172-5.975c3.419.192,6.971,3.428,7.016,6.852.207.009.6.024.845.053-.252-3.776,4.694-7.616,8.441-7.079,4.432.635,7.411,5.11,6.215,8.7,4.966,1.3,8.736,4.328,10.378,9.192s-1.125,11.2-6.187,12.051Z"/><path class="a" d="M284.941,144.262c10.746,9.05,18.385,23.809,21.741,38.464,1.4,6.12,2.61,17.2,2.074,19.865-1.941,1.949-7.148,4.276-12.261,6.046-23.828,8.248-53.089,9.321-72.032-2.6-4.12-2.593-10.74-9.444-13.521-15.006,0,0-14.754-26.958,16.3-47.35C260.769,121.663,284.941,144.262,284.941,144.262Z"/><path class="c" d="M291.239,68.779a4.081,4.081,0,0,1-.9-3.874c2.469-8.425,1.924-18.46-2.537-25.865-4.852-8.052-13.765-13.15-23.551-14.077l-.013,0a4.123,4.123,0,0,1-3.5-2.668,33.655,33.655,0,0,0-5.751-9.43c-6.268-7.5-20.441-14.171-34.534-8.275a30.194,30.194,0,0,0-11.388,8.5,4.015,4.015,0,0,1-4.955.953c-10.756-5.72-24.886-4.208-35.029,2.759-5.268,3.618-11.9,8.936-13.665,20.024,0,0-.3,3.774-.46,9.926a28.071,28.071,0,0,1,12.561,2.611c9.418,4.609,13.6,8.961,17.663,16.727.855,1.633,1.351,3.616,2.92,4.582a7.485,7.485,0,0,0,3.307.867q.306.027.612.059a34.436,34.436,0,0,1,25.32,16.464,37.88,37.88,0,0,1,3.064,31.605c9.5,6.221,11.864,17.789,10.879,29.351.068.03.138.051.205.085,5.625,2.874,15.854,5.934,24.138,4.017,10.572-2.446,17.615-6.882,22.039-15.485a29.625,29.625,0,0,0,2.844-14.359,4.049,4.049,0,0,1,2.507-4.031,24.452,24.452,0,0,0,8.486-5.657c5.69-5.888,7.394-13.559,7.852-17.394C300.936,82.916,296.251,74.373,291.239,68.779Z"/><path class="a" d="M91.044,199.981c-4.017,12.05-16.026,17.88-22.341,19.642a90.379,90.379,0,0,1-33.514,2.84,46.744,46.744,0,0,1,22.4-67.233s13.684-1.595,25.733,15.553S91.044,199.981,91.044,199.981Z"/><path class="d" d="M192.016,71.592q-.306-.032-.612-.059a7.485,7.485,0,0,1-3.307-.867c-1.569-.966-2.065-2.949-2.92-4.582-4.068-7.766-8.245-12.118-17.663-16.727-7.261-3.553-15.6-2.935-23.945-1.39-6.75,1.25-14.224,6.138-17.419,12.7a.369.369,0,0,1-.545.146c-12.555-8.569-30.4-8.354-42.937.259-12.592,8.648-19.2,25.06-16.505,40.094a.368.368,0,0,1-.16.375C53.4,109.9,45.939,124.8,48.792,139.668c1.091,5.686,4.763,13.1,10.336,14.676-2.861,9.847-1.351,21.614,4.8,29.816,6.289,8.38,17.789,15.117,27.173,14.327,5.842,14.941,18.926,23.22,32.243,25.605,12.535,2.245,26.821-4.279,31.258-16.156a.371.371,0,0,1,.63-.12c4.233,4.684,10.962,7.047,17.532,8.232,9.423,1.7,18.075.26,25.026-5.1a36.678,36.678,0,0,0,10.66-12.359c2.733-5.045,2.835-12.188,1.153-17.672a.373.373,0,0,1,.371-.483c5.056.043,9.35-3.648,12.57-7.626,3.517-4.344,7.088-12.876,8-18.093,2.32-13.3.927-27.808-10.144-35.056a37.88,37.88,0,0,0-3.064-31.605A34.436,34.436,0,0,0,192.016,71.592Z"/><path class="e" d="M283.246,145.96c13.362,11.355,20.5,29,22.582,46.088.252,2.061.461,4.131.58,6.2.047.813.083,1.629.08,2.443,0,.336-.014.671-.027,1.006,0,.112-.024.226-.025.338,0,.477.089-.522.01-.082l.617-1.059c-2.055,1.973-5.415,3.236-8.153,4.3a104.18,104.18,0,0,1-10.542,3.425,110.66,110.66,0,0,1-20.848,3.608c-13.064.954-27.02-.281-38.772-6.494a34.926,34.926,0,0,1-8.823-6.7,37.653,37.653,0,0,1-7.208-9.8,2.422,2.422,0,0,0-3.284-.861,2.453,2.453,0,0,0-.861,3.284,43.856,43.856,0,0,0,12.471,14.862,47.409,47.409,0,0,0,14.907,7.358c11.483,3.635,23.927,4.1,35.83,2.758a119.424,119.424,0,0,0,18.45-3.543c6.037-1.67,12.449-3.616,17.8-6.956a8.186,8.186,0,0,0,2.806-2.331,6.057,6.057,0,0,0,.455-2.892,57.5,57.5,0,0,0-.406-6.622,95.792,95.792,0,0,0-2.847-16c-3.737-13.367-10.7-26.633-21.394-35.722a2.463,2.463,0,0,0-3.394,0,2.421,2.421,0,0,0,0,3.394Z"/><path class="e" d="M236.587,166.289a182.815,182.815,0,0,1,23.047,7.786,81.848,81.848,0,0,1,9.5,4.766c3.616,2.027,7.194,4.135,10.636,6.448a60.946,60.946,0,0,1,9.034,7.247c2.194,2.179,5.59-1.213,3.394-3.394-5.514-5.476-12.237-9.655-18.949-13.488A111.874,111.874,0,0,0,263,170.323c-3.736-1.648-7.6-3.076-11.434-4.462q-6.747-2.436-13.7-4.2c-3-.755-4.274,3.873-1.276,4.629Z"/><path class="e" d="M242.153,166.933a10.176,10.176,0,0,1,.33,1.625c.015.1.065.474.006.034s-.014-.1,0-.011c.026.219.052.439.076.658q.073.682.129,1.366a50.1,50.1,0,0,1,.162,5.889,2.417,2.417,0,0,0,2.4,2.4,2.45,2.45,0,0,0,2.4-2.4,50.1,50.1,0,0,0-.175-6.039c-.085-1.023-.206-2.042-.35-3.058a10.593,10.593,0,0,0-.347-1.74,2.4,2.4,0,1,0-4.628,1.276Z"/><path class="e" d="M260.043,174.021c2.329,7.89,2.467,16.328,2.163,24.487-.114,3.089,4.686,3.084,4.8,0,.319-8.566.11-17.482-2.334-25.763-.873-2.956-5.507-1.7-4.629,1.276Z"/><path class="e" d="M59.467,54.541a51.291,51.291,0,0,0-13.744-1.866,63.558,63.558,0,0,0-10.988,1.256c-7.525,1.422-14.851,3.69-22.226,5.716A83.111,83.111,0,0,1,2.4,61.97C1.27,62.132.757,63.323.633,64.284A75.989,75.989,0,0,0,4.5,99.956a58.474,58.474,0,0,0,8.537,15.683A48.54,48.54,0,0,0,27.047,127.73a67.571,67.571,0,0,0,19.716,7.609c3.014.637,4.3-3.989,1.276-4.628-11.238-2.377-22.519-7.788-30.1-16.6C10.686,105.676,6.786,94.394,5.405,83.476a76,76,0,0,1,.028-19.192L3.672,66.6c6.4-.923,12.627-3.049,18.84-4.769,7.025-1.945,14.229-3.919,21.544-4.3a45.664,45.664,0,0,1,14.135,1.64c2.987.8,4.262-3.831,1.276-4.629Z"/><path class="e" d="M75.178,45.349A15.421,15.421,0,0,0,81.9,48.594a37.831,37.831,0,0,0,7.3.381c4.563-.059,9.826-1.179,13.628-3.814a2.462,2.462,0,0,0,.861-3.283,2.422,2.422,0,0,0-3.284-.861,20.575,20.575,0,0,1-10.873,3.152c-3.8.1-7.8.246-10.96-2.214a2.479,2.479,0,0,0-3.394,0,2.415,2.415,0,0,0,0,3.394Z"/><path class="e" d="M98.42,29.918c.4,1.239.133,4.09-2.366,4.337-3.3-.013-3.472-3.458-2.357-5.081A2.678,2.678,0,0,1,98.42,29.918Z"/><path class="e" d="M77.827,31.149c-.228,1.282.434,4.068,2.944,3.967,3.269-.469,2.96-3.905,1.631-5.358A2.678,2.678,0,0,0,77.827,31.149Z"/><path class="e" d="M157.725,37.455a25.591,25.591,0,0,1,4.713-11.5,26.917,26.917,0,0,1,3.309-3.558,32.3,32.3,0,0,1,3.293-2.653,34.509,34.509,0,0,1,24.485-6.577,29.61,29.61,0,0,1,6.267,1.548c2.079.755,4.007,2.236,6.3,2.19,2.6-.053,4.119-1.594,5.766-3.364a28.2,28.2,0,0,1,4.579-4.02,27.553,27.553,0,0,1,27.5-1.992,28.037,28.037,0,0,1,10.28,8.175,30.844,30.844,0,0,1,4.048,6.82c1.166,2.783,2.9,4.434,5.971,4.831l-1.211-.328c1.266.633,3.137.558,4.538.859a33.2,33.2,0,0,1,4.5,1.3,28.069,28.069,0,0,1,7.578,4.216,25.38,25.38,0,0,1,9.314,15.787,33.041,33.041,0,0,1,.176,9.853c-.428,3.374-2.313,6.912-.511,10.162A27.369,27.369,0,0,0,291.1,72.33c.517.672,1.285,1.8,1.828,2.689a28.786,28.786,0,0,1,3.1,7,32.374,32.374,0,0,1,1.239,9.1,41.925,41.925,0,0,1-.337,5.276c.057-.441-.012.073-.037.234-.039.24-.078.479-.12.718q-.154.864-.353,1.719c-1.373,5.926-4.4,11.745-9.473,15.319a24.486,24.486,0,0,1-4.09,2.337,7.776,7.776,0,0,0-3.728,2.776,7.544,7.544,0,0,0-.989,4.571,28.312,28.312,0,0,1-.23,4.527,24.887,24.887,0,0,1-7.893,15.219c-4.2,3.8-9.762,5.84-15.222,7.036-6.252,1.368-13.1-.168-18.959-2.423-1.143-.439-2.225-.986-3.339-1.488a2.475,2.475,0,0,0-3.284.861,2.419,2.419,0,0,0,.861,3.284c6.184,2.783,12.521,4.9,19.384,5.025a37.572,37.572,0,0,0,19.059-5.306,29.072,29.072,0,0,0,11.922-13.466,32,32,0,0,0,2.45-10.643c.049-.764.07-1.53.058-2.3a6.662,6.662,0,0,1,.015-1.845c.339-1.226,1.944-1.5,2.943-1.981,12.387-6.016,17.447-20.851,15.911-33.856a34.463,34.463,0,0,0-6.27-16.4c-.793-1.085-1.7-2.07-2.516-3.134-.892-1.166-.118-2.488.173-3.772a39.146,39.146,0,0,0,.938-10.8,31.181,31.181,0,0,0-7.791-19.5,33.206,33.206,0,0,0-16.959-9.732,40.3,40.3,0,0,0-5.136-.815l1.212.327c-.74-.37-1.566-.248-2.158-.894-.721-.787-.985-2.159-1.451-3.116a36.623,36.623,0,0,0-4.248-6.572,31.365,31.365,0,0,0-9.585-8.071,32.942,32.942,0,0,0-30-1.182A33.286,33.286,0,0,0,209.183,9.4c-.7.71-1.315,1.647-2.079,2.282a1.694,1.694,0,0,1-1.713.316c-1.161-.388-2.281-1.109-3.427-1.566a30.963,30.963,0,0,0-6.656-1.816,38.544,38.544,0,0,0-27.627,6.24,38.734,38.734,0,0,0-8.539,7.578A29.591,29.591,0,0,0,153.1,36.179a2.473,2.473,0,0,0,1.676,2.952,2.419,2.419,0,0,0,2.952-1.676Z"/><path class="e" d="M56.375,153.158a50.229,50.229,0,0,0-22.9,19.533,50.358,50.358,0,0,0-3.612,44.346c.5,1.238,1.036,2.464,1.629,3.661.571,1.151,1.21,2.856,2.238,3.65,1.1.846,3.2.688,4.54.781q2.377.164,4.761.2a93.857,93.857,0,0,0,18.416-1.57,59.025,59.025,0,0,0,12.686-3.566c8.685-3.727,16.121-10.5,19.221-19.574,1-2.93-3.634-4.187-4.629-1.276C86.45,206.02,81.2,211.077,75.115,214.4a31.441,31.441,0,0,1-7.05,2.909,84.8,84.8,0,0,1-15.274,2.844,91.126,91.126,0,0,1-17.6-.089l2.072,1.189a45.47,45.47,0,0,1-5.749-28.86,43.558,43.558,0,0,1,13.263-26A47.491,47.491,0,0,1,58.8,157.3a2.415,2.415,0,0,0,.861-3.284,2.463,2.463,0,0,0-3.283-.861Z"/><path class="e" d="M32.468,68.114a49.808,49.808,0,0,0-1.385,10.2,59.353,59.353,0,0,0,.17,10.231,2.473,2.473,0,0,0,2.4,2.4,2.415,2.415,0,0,0,2.4-2.4,58.219,58.219,0,0,1-.191-9.845A44.576,44.576,0,0,1,37.1,69.39c.8-2.988-3.831-4.263-4.628-1.276Z"/><path class="e" d="M14.036,76.863a100.062,100.062,0,0,0,38.6,25.105,2.423,2.423,0,0,0,2.952-1.676,2.449,2.449,0,0,0-1.676-2.952A94.811,94.811,0,0,1,17.43,73.469c-2.133-2.243-5.523,1.155-3.394,3.394Z"/><path class="e" d="M24.712,101.863a49.711,49.711,0,0,0,17.237-4.074,2.417,2.417,0,0,0,.861-3.284,2.458,2.458,0,0,0-3.283-.861q-.216.1-.432.193L39,93.875c-.3.122-.611.243-.92.357-.636.237-1.279.455-1.927.659-1.337.42-2.695.777-4.063,1.083q-2.017.451-4.065.755l-.492.07q.348-.047-.089.009c-.315.037-.63.075-.945.108q-.894.092-1.789.147a2.4,2.4,0,1,0,0,4.8Z"/><path class="e" d="M48.32,82.6A72.088,72.088,0,0,0,47.5,97.6a2.4,2.4,0,1,0,4.8,0,68.07,68.07,0,0,1,.648-13.718,2.463,2.463,0,0,0-1.677-2.952A2.426,2.426,0,0,0,48.32,82.6Z"/><path class="e" d="M192.016,69.192c-1-.1-2.314-.088-3.047-.9a15.637,15.637,0,0,1-1.72-3.42A41.4,41.4,0,0,0,183.642,59a35.555,35.555,0,0,0-10.569-9.386,40.08,40.08,0,0,0-8.154-3.869,32.378,32.378,0,0,0-9.192-1.4,57.641,57.641,0,0,0-9.84.8,33.808,33.808,0,0,0-8.309,2.189,29.718,29.718,0,0,0-7.846,4.934,23.982,23.982,0,0,0-3,3.124c-.514.644-1.013,1.3-1.466,1.99a9.141,9.141,0,0,1-1.047,1.786l2.335-.617c-.5-.089-1.221-.777-1.671-1.042q-.987-.581-2.01-1.1a39.862,39.862,0,0,0-14.342-4.11A40.623,40.623,0,0,0,65.3,81.012a44.368,44.368,0,0,0-2.011,10.314,39.732,39.732,0,0,0-.066,5.118c.044.852.117,1.7.218,2.551a17.773,17.773,0,0,1,.3,2.386l.7-1.7a19.865,19.865,0,0,1-2.627,1.951q-1.353,1.056-2.621,2.212a41.661,41.661,0,0,0-4.611,4.992,42.3,42.3,0,0,0-6.632,11.951c-2.972,8.349-3.014,17.894.671,26.019,1.95,4.3,5.191,8.436,9.868,9.85l-1.676-2.952A38.471,38.471,0,0,0,58.8,180.242c3.661,7.862,10.905,14.229,18.73,17.784A28.076,28.076,0,0,0,91.1,200.887l-2.314-1.762a43.737,43.737,0,0,0,24.164,24.408,40.3,40.3,0,0,0,15.839,3.394,33.229,33.229,0,0,0,16.224-4.517,27.445,27.445,0,0,0,11.9-13.836l-.617,1.059.165-.2-1.059.617.238-.046-1.849-.242c.365.2.745.782,1.083,1.086.53.476,1.089.918,1.657,1.348a25,25,0,0,0,3.594,2.27,38.639,38.639,0,0,0,8.058,3.033,43.247,43.247,0,0,0,17.5,1.16c10.762-1.66,20.515-9.8,25.177-19.528a24.039,24.039,0,0,0,2.218-9.214,27.49,27.49,0,0,0-.19-4.833c-.108-.865-.234-1.729-.409-2.583a15.21,15.21,0,0,1-.475-1.821l-.7,1.7.137-.177-1.059.617c.433-.13,1.222-.087,1.76-.17a12.105,12.105,0,0,0,1.844-.423A16.6,16.6,0,0,0,218,180.311a27.361,27.361,0,0,0,6.245-5.8,45.693,45.693,0,0,0,7.247-14.044,50.222,50.222,0,0,0,2.39-14.9,40.767,40.767,0,0,0-2.145-14.9,26.262,26.262,0,0,0-10.125-13.076l1.1,2.711a39.952,39.952,0,0,0-.177-26.8A37.592,37.592,0,0,0,205.957,73.7a36.189,36.189,0,0,0-13.941-4.512,2.415,2.415,0,0,0-2.4,2.4,2.455,2.455,0,0,0,2.4,2.4,31.727,31.727,0,0,1,19.41,10.157,33.888,33.888,0,0,1,8.659,21.392,34.739,34.739,0,0,1-2,13.482,2.434,2.434,0,0,0,1.1,2.71c5.767,3.841,8.685,10.278,9.575,16.987a46.225,46.225,0,0,1-2.209,21.344,44.383,44.383,0,0,1-5.045,10.14c-2,2.907-4.9,5.905-8.259,7.206a8.9,8.9,0,0,1-2.5.6c-1.306.1-2.479.206-3.211,1.457-.6,1.031-.208,2.123.06,3.179a22.336,22.336,0,0,1,.545,2.833,20.5,20.5,0,0,1-1.588,11.565c-3.462,6.791-9.6,13.08-16.883,15.668-7.668,2.726-16.335,1.754-23.869-.975a26.352,26.352,0,0,1-5.272-2.584,17.193,17.193,0,0,1-2.114-1.576,9.387,9.387,0,0,0-2.484-2.082,2.782,2.782,0,0,0-3.4,1.226c-.441.755-.688,1.677-1.1,2.461a20.644,20.644,0,0,1-2.732,4.043A26.87,26.87,0,0,1,131.191,222c-6.812.647-13.807-1.317-19.817-4.46a37.856,37.856,0,0,1-17.956-19.686,2.47,2.47,0,0,0-2.314-1.762c-7.322.547-14.626-3.2-20.043-7.865A30.284,30.284,0,0,1,60.346,168.3a35.006,35.006,0,0,1,1.1-13.322,2.441,2.441,0,0,0-1.676-2.952c-2.987-.9-4.993-3.716-6.38-6.373a25.308,25.308,0,0,1-2.7-9.765,34.289,34.289,0,0,1,5.5-21.086,38.711,38.711,0,0,1,7.541-8.574c.62-.528,1.254-1.038,1.912-1.519a8.465,8.465,0,0,0,2.572-2.121c.591-1.011.233-2.122.08-3.19-.13-.919-.207-1.849-.26-2.776A39.206,39.206,0,0,1,72.8,75.645a35.946,35.946,0,0,1,15.532-15.1,36.9,36.9,0,0,1,22.015-3.187,35.278,35.278,0,0,1,10.772,3.56c1.834.974,4.142,3.294,6.242,1.841a6.654,6.654,0,0,0,1.647-2.321,16.837,16.837,0,0,1,1.585-2.221,24.307,24.307,0,0,1,9.063-6.585,38.645,38.645,0,0,1,12.062-2.366,30.917,30.917,0,0,1,12.741,1.392,37.764,37.764,0,0,1,9.819,5.521,27.833,27.833,0,0,1,6.2,6.656,46.149,46.149,0,0,1,2.535,4.308c.866,1.658,1.422,3.509,2.837,4.816,1.717,1.588,3.94,1.811,6.157,2.037a2.415,2.415,0,0,0,2.4-2.4A2.454,2.454,0,0,0,192.016,69.192Z"/><path class="b" d="M105.1,64.773a2.156,2.156,0,0,1-2.1.3,3.032,3.032,0,0,1-1.211-1.97c-.9-2.889-2.176-6.555-2.985-9.377,0,0-.63-3.653,4.574-4.237,6.38-.472,6.2,2.653,6.2,2.653-.116,3.746-.678,9.458-3.826,12.153A5.181,5.181,0,0,1,105.1,64.773Z"/><path class="b" d="M86.351,57.68c.786,2.842,1.689,8.679.112,11.171a3.333,3.333,0,0,1-2.443,1.666c-1.94.135-2.939-2.123-3.694-3.915-1.136-2.7-1.889-4.322-2.259-5.388,0,0-1.837-4.121,2.643-5.357S86.351,57.68,86.351,57.68Z"/><path class="e" d="M107.182,52.138c-.023.719-.059,1.438-.116,2.155q-.045.561-.107,1.12c-.011.1-.1.748-.045.387.051-.336-.046.285-.063.392a21.459,21.459,0,0,1-.521,2.392q-.158.561-.355,1.111c-.032.089-.27.691-.137.372.123-.3-.121.255-.167.349a10.226,10.226,0,0,1-.543.97c-.085.134-.2.407-.331.485-.008,0,.31-.356.12-.159-.076.079-.142.17-.215.251-.128.142-.261.28-.4.412-.123.116-.369.313-.081.1-.2.146-.414.259-.624.386-.235.141.059-.03.1-.045-.28.1-.138-.005.058.016a1.37,1.37,0,0,1,.461.164c-.1-.042-.229-.208-.048-.019s.369.371.127.043c-.194-.262.115.379.018.061-.028-.09-.064-.178-.094-.267-.07-.212-.134-.426-.2-.64-.287-.913-.584-1.822-.882-2.732-.692-2.113-1.4-4.223-2.014-6.359a2.4,2.4,0,1,0-4.629,1.276c.627,2.172,1.346,4.316,2.049,6.464.336,1.028.66,2.06.991,3.089a5.019,5.019,0,0,0,2.443,3.307c2.841,1.279,5.491-.834,7.064-3.062a15.086,15.086,0,0,0,2.223-5.531,36.729,36.729,0,0,0,.72-6.489,2.419,2.419,0,0,0-2.4-2.4,2.448,2.448,0,0,0-2.4,2.4Z"/><path class="e" d="M84.037,58.318c.179.655.33,1.316.458,1.982q.112.579.2,1.162c.013.086.024.173.038.259.056.34-.054-.458-.013-.113.024.207.051.414.073.622a22.377,22.377,0,0,1,.134,2.588c0,.37-.02.74-.051,1.108,0,.042-.023.325-.033.327s.093-.5.033-.24c-.046.2-.069.406-.114.607a6.994,6.994,0,0,0-.268.893c.034-.455.2-.394.08-.207-.035.052-.059.116-.09.171-.046.082-.109.159-.15.243-.132.271.244-.234.024-.025-.139.132-.527.473-.153.214-.079.054-.158.107-.24.156s-.434.157-.14.084-.033-.008-.07,0c.062-.008.507-.061.1-.023-.066.006-.368.033.007.015.315-.015.077,0-.052-.039-.3-.1.459.171.164.06-.016-.005-.191-.119-.192-.118.032-.037.435.421.126.085-.052-.056-.111-.117-.168-.168-.02-.019-.165-.155-.161-.18-.007.044.265.4.073.089-.122-.2-.25-.383-.364-.584-.188-.332-.355-.676-.514-1.024-.084-.185-.164-.371-.245-.557-.015-.037-.128-.3-.026-.062.18.424-.23-.544-.3-.7-.405-.953-.818-1.9-1.226-2.853-.036-.084-.311-.726-.15-.349s-.074-.18-.113-.277c-.119-.292-.233-.585-.338-.883a2.4,2.4,0,1,0-4.628,1.276c.633,1.8,1.469,3.536,2.217,5.291.186.435.083.193.042.1.1.242.2.486.307.728.09.212.181.423.275.633a12.066,12.066,0,0,0,.683,1.329,6.233,6.233,0,0,0,2.475,2.476,5.365,5.365,0,0,0,7.027-2.8,12.63,12.63,0,0,0,.919-6.123,31.192,31.192,0,0,0-1.033-6.445,2.4,2.4,0,1,0-4.628,1.276Z"/><path class="c" d="M268.865,79.16c.1-3.947-.9-8.046-2.255-10.252a8.454,8.454,0,0,0-7.224-3.961c-2.9.072-4.305,1.158-5.993,2.721-2.177,2.016-3.841,5.749-4.47,9.813-3.61.4-8.286,1.045-10,2.087-3.823,2.317-4.764,5.017-4.783,6.958-.034,3.476,1.6,5.286,4.487,7.221a21.278,21.278,0,0,0,8.832,3.091c-.081,3.838-.327,9.23,2.587,12.159,2.41,2.423,5.462,2.792,8.7,1.709,3.7-1.236,7.164-7.08,8.146-11.86,7.69.911,11.962-1.639,13.623-3.868a5.7,5.7,0,0,0,.689-5.735c-.519-1.484-3.285-6.671-12.4-8.91C268.834,79.945,268.855,79.553,268.865,79.16Z"/><path class="e" d="M251.2,78.316a20.96,20.96,0,0,1,1.176-4.628,14.042,14.042,0,0,1,.786-1.715,15.334,15.334,0,0,1,1.039-1.66A10.786,10.786,0,0,1,255.491,69a5.718,5.718,0,0,1,1.117-.872,3.771,3.771,0,0,1,1.562-.647,6.015,6.015,0,0,1,1.808-.125,6.252,6.252,0,0,1,3.186,1.247,6.031,6.031,0,0,1,1.214,1.267,7.762,7.762,0,0,1,.506.87c.027.052.307.643.19.373a19.668,19.668,0,0,1,1.32,9.3,2.421,2.421,0,0,0,2.4,2.4,2.448,2.448,0,0,0,2.4-2.4c.461-5.754-.853-13.153-6.215-16.349a10.739,10.739,0,0,0-8.865-.983,13.339,13.339,0,0,0-6.259,5.1A22.789,22.789,0,0,0,246.4,78.316a2.412,2.412,0,0,0,2.4,2.4,2.461,2.461,0,0,0,2.4-2.4Z"/><path class="e" d="M248.544,75.123a46.8,46.8,0,0,0-8.789,1.513,12.382,12.382,0,0,0-6.727,5.341,9.734,9.734,0,0,0-1.014,7.158c.63,2.793,2.666,4.775,4.927,6.362a22.875,22.875,0,0,0,10.042,3.679,2.482,2.482,0,0,0,2.952-1.677,2.417,2.417,0,0,0-1.676-2.952,19.856,19.856,0,0,1-9.121-3.355A7.426,7.426,0,0,1,237,88.922c-.072-.134-.138-.27-.2-.409.1.219.1.193,0-.076-.075-.315-.177-.619-.229-.942.055.338-.031-.581-.033-.683,0-.26.021-.515.023-.773.028-.266.022-.224-.02.126.021-.119.044-.238.071-.355.073-.245.141-.491.215-.735.1-.253.094-.251-.01,0,.06-.13.124-.259.192-.386a7.662,7.662,0,0,1,.482-.784q.244-.342.079-.108c.113-.136.229-.268.35-.4a9.9,9.9,0,0,1,.823-.79,14.555,14.555,0,0,1,1.69-1.137c.236-.109.225-.107-.034.008.137-.053.275-.1.413-.148.309-.1.622-.194.936-.277.728-.193,1.467-.346,2.208-.482,1.549-.285,3.039-.478,4.59-.654a2.474,2.474,0,0,0,2.4-2.4,2.415,2.415,0,0,0-2.4-2.4Z"/><path class="e" d="M245.048,97.107c-.117,5.213-.064,11.12,4.472,14.588a10.326,10.326,0,0,0,8.656,1.662,11.4,11.4,0,0,0,6.42-4.252,24.092,24.092,0,0,0,4.426-8.836c.787-2.99-3.842-4.266-4.629-1.276a18.416,18.416,0,0,1-3.74,7.375,6.918,6.918,0,0,1-2.494,2.011c.4-.186-.543.166-.659.2a9.031,9.031,0,0,1-1.194.267,8.572,8.572,0,0,1-1.669,0,5.469,5.469,0,0,1-4.262-4.074,26,26,0,0,1-.527-7.662c.069-3.09-4.731-3.089-4.8,0Z"/><path class="e" d="M269.858,83.114a19.257,19.257,0,0,1,3.658,1.533c.531.292,1.049.607,1.549.948.216.147.427.3.637.454-.36-.267.319.267.408.344a20.972,20.972,0,0,1,1.842,1.906c.211.233-.254-.393-.1-.131.035.061.087.115.126.173.1.148.2.293.3.444.165.256.321.52.463.791.051.1.1.2.148.3.215.408-.138-.122-.094-.238-.012.031.082.206.094.245a9.727,9.727,0,0,1,.33,1.2,4.961,4.961,0,0,1,.01,1.072c-.026.11-.282.864-.147.566a6.616,6.616,0,0,1-.493.846c-.373.581.365-.371-.094.117-.109.116-.215.236-.328.349s-.243.237-.37.349c-.076.067-.156.129-.232.2-.317.285.3-.174.045-.036-.349.189-.667.452-1.016.647q-.285.159-.577.3c-.117.056-.234.109-.351.163.31-.145.134-.051-.079.028a17.858,17.858,0,0,1-8.808.754,2.415,2.415,0,0,0-2.4,2.4,2.458,2.458,0,0,0,2.4,2.4c5.188.6,11.756-.062,15.318-4.409,3.531-4.309,1.661-9.739-1.95-13.238a22.69,22.69,0,0,0-9.012-5.1,2.4,2.4,0,0,0-1.276,4.628Z"/><path class="e" d="M258.845,83.926a4.62,4.62,0,0,0-4.132,7.966,4.657,4.657,0,1,0,4.132-7.966Z"/><path class="f" d="M234.831,34.72c0-3.948-1.109-8.02-2.52-10.19a8.452,8.452,0,0,0-7.324-3.773c-2.9.147-4.274,1.27-5.921,2.876-2.123,2.071-3.69,5.846-4.214,9.925-3.6.489-8.256,1.259-9.947,2.345-3.763,2.416-4.633,5.139-4.6,7.08.056,3.476,1.735,5.242,4.673,7.1a21.285,21.285,0,0,0,8.908,2.862c.019,3.838-.087,9.235,2.9,12.088,2.472,2.359,5.532,2.649,8.744,1.482,3.663-1.331,6.978-7.262,7.836-12.067,7.711.712,11.916-1.948,13.519-4.219a5.7,5.7,0,0,0,.54-5.751c-.558-1.47-3.457-6.584-12.628-8.586Q234.832,35.311,234.831,34.72Z"/><path class="e" d="M217.154,34.4a16.594,16.594,0,0,1,2.96-8.364,6.469,6.469,0,0,1,5.465-2.88,6.259,6.259,0,0,1,5.367,3.891,20.187,20.187,0,0,1,1.447,8.931,2.4,2.4,0,1,0,4.8,0c.309-5.733-1.15-13.163-6.584-16.214a10.762,10.762,0,0,0-8.881-.8,13.226,13.226,0,0,0-6.154,5.222,22.807,22.807,0,0,0-3.22,10.215,2.415,2.415,0,0,0,2.4,2.4,2.453,2.453,0,0,0,2.4-2.4Z"/><path class="e" d="M213.836,31.3a40.747,40.747,0,0,0-8.33,1.715,12.263,12.263,0,0,0-6.507,5.6,9.724,9.724,0,0,0-.67,7.322c.839,2.709,2.878,4.569,5.193,6.068a24.076,24.076,0,0,0,10.53,3.362,2.414,2.414,0,0,0,2.4-2.4,2.457,2.457,0,0,0-2.4-2.4,18.993,18.993,0,0,1-8.8-3.171A7.7,7.7,0,0,1,204,46.325c-.064-.065-.618-.744-.369-.4-.178-.248-.317-.512-.475-.772-.12-.255-.134-.272-.043-.053-.057-.147-.109-.3-.155-.445a6.309,6.309,0,0,1-.224-.96c.043.3-.03-.609-.031-.716,0-.2.012-.392.019-.588s0-.116-.036.2c.018-.123.04-.245.066-.367.059-.258.141-.508.208-.764.1-.254.093-.261-.01-.02.06-.136.125-.271.194-.4a7.921,7.921,0,0,1,.492-.821,9.263,9.263,0,0,1,1.316-1.386,10.234,10.234,0,0,1,1.628-1.11c.239-.109.237-.11-.007,0,.141-.055.284-.107.428-.156.317-.11.639-.206.962-.3.739-.206,1.488-.375,2.239-.529,1.626-.332,3.267-.583,4.91-.813a2.415,2.415,0,0,0,1.676-2.953,2.464,2.464,0,0,0-2.952-1.676Z"/><path class="e" d="M211.486,53.215c.018,5.238.212,11.123,4.822,14.52a10.289,10.289,0,0,0,8.625,1.474,11.724,11.724,0,0,0,6.563-4.656,23.272,23.272,0,0,0,4.022-8.675A2.4,2.4,0,0,0,230.89,54.6a19.272,19.272,0,0,1-3.341,7.267,8.031,8.031,0,0,1-2.611,2.306q-.388.184-.046.028c-.2.074-.411.143-.62.207-.3.093-.61.174-.921.241a6.089,6.089,0,0,1-1.9.11,5.176,5.176,0,0,1-2.973-1.423,5.849,5.849,0,0,1-1.5-2.607,25.833,25.833,0,0,1-.7-7.516c-.011-3.088-4.811-3.094-4.8,0Z"/><path class="e" d="M235.866,38.632a19.5,19.5,0,0,1,3.7,1.423c.538.277,1.064.579,1.573.906.22.142.436.287.649.438.116.083.231.167.346.252-.267-.2-.069-.056.081.069a15,15,0,0,1,1.89,1.857c.22.262.271.386.038.032.1.149.211.288.312.435.172.253.334.512.483.779.1.181.175.382.282.557.144.234-.215-.661-.111-.262.108.417.276.816.372,1.24a1.845,1.845,0,0,1,.061.634c0,.046-.018.59,0,.338.019-.212-.035.189-.035.188-.039.165-.084.324-.131.487-.012.043-.174.412-.042.127-.146.316-.356.588-.528.888-.149.257.382-.421-.017.015-.108.118-.213.238-.325.353s-.241.239-.367.352c-.074.068-.156.13-.229.2-.31.3.3-.19.051-.032-.338.216-.655.458-1,.659q-.281.162-.569.309c-.115.058-.232.11-.346.168-.4.208.2-.071-.07.037a17.722,17.722,0,0,1-8.684.959,2.418,2.418,0,0,0-2.4,2.4,2.452,2.452,0,0,0,2.4,2.4c5.181.468,11.63-.334,15.142-4.663,3.541-4.364,1.608-9.844-2.129-13.282A22.666,22.666,0,0,0,237.142,34c-2.972-.864-4.241,3.766-1.276,4.629Z"/><path class="e" d="M224.926,39.787a4.568,4.568,0,0,0-3.9,7.989,4.888,4.888,0,0,0,5.924.43,4.806,4.806,0,0,0,1.794-4.131A4.855,4.855,0,0,0,224.926,39.787Z"/><path class="d" d="M194.366,139.322q-.551-.081-1.128-.142c.11-5.322-2.168-12.369-5.8-14.573-3.184-1.932-5.739-2.121-8.884-.126-3.8,2.412-5.658,8.042-6.455,12.146a23.2,23.2,0,0,0-10.135,1.158c-3.537,1.361-5.708,2.891-6.51,6.595a9.111,9.111,0,0,0,2.591,7.627c1.57,1.53,7.273,4.328,10.95,5.548-.312,4.471.558,8.841,2.386,11.509,1.418,2.068,2.649,3.561,5.715,4.336,3.026.766,5.921-.822,8.1-3.055a21.219,21.219,0,0,0,5.612-11c10.248-.44,14.285-3.469,15.195-4.921a8.506,8.506,0,0,0,.914-7.36C205.748,144.42,202,140.45,194.366,139.322Z"/><path class="e" d="M166.669,156.64c-.579,6.01.638,13.2,5.7,17.127a10.072,10.072,0,0,0,9.09,1.785,15.556,15.556,0,0,0,7.337-5.776,21.993,21.993,0,0,0,4.339-9.909,2.479,2.479,0,0,0-1.676-2.952,2.417,2.417,0,0,0-2.952,1.676,18.686,18.686,0,0,1-3.755,8.63c-1.571,2.019-4.043,4.431-6.845,3.9-2.59-.487-4.1-2.277-5.2-4.567-1.454-3.015-1.551-6.651-1.236-9.918a2.418,2.418,0,0,0-2.4-2.4,2.452,2.452,0,0,0-2.4,2.4Z"/><path class="e" d="M169.24,155.106a46.192,46.192,0,0,1-6.571-2.942A29.1,29.1,0,0,1,160,150.539c-.14-.1.234.247-.083-.074-.162-.164-.333-.317-.489-.488a6.414,6.414,0,0,1-.922-1.387,6.23,6.23,0,0,1-.513-1.342c-.075-.27-.14-.544-.191-.82a1.615,1.615,0,0,1-.051-.542,7.517,7.517,0,0,1,.012-.849c-.036.428.045-.175.078-.315a5.869,5.869,0,0,1,.461-1.363c.115-.223.24-.438.375-.651.064-.1.133-.206.207-.3-.034.044-.176.217,0,.015.159-.181.325-.354.5-.519.082-.076.6-.484.366-.318a12.505,12.505,0,0,1,2.713-1.428,21.705,21.705,0,0,1,9.819-1.112,2.42,2.42,0,0,0,2.4-2.4,2.448,2.448,0,0,0-2.4-2.4,25.168,25.168,0,0,0-10.781,1.164c-2.761,1.021-5.431,2.41-7.038,4.982a10.2,10.2,0,0,0-1.02,8.411,11.636,11.636,0,0,0,5.272,6.633,49.375,49.375,0,0,0,9.251,4.3,2.424,2.424,0,0,0,2.952-1.676,2.448,2.448,0,0,0-1.676-2.953Z"/><path class="e" d="M174.47,136.978a23.535,23.535,0,0,1,2.817-7.735c1.249-2.012,3.514-4.151,6.173-3.735a6.694,6.694,0,0,1,2.07.771c.3.163.608.333.894.525.229.162.258.181.088.055q.191.16.369.331a9.81,9.81,0,0,1,2,2.906,20.284,20.284,0,0,1,1.958,8.2c.106,3.081,4.906,3.095,4.8,0-.185-5.409-1.9-12.072-6.5-15.431a10.228,10.228,0,0,0-9.2-1.711,13.182,13.182,0,0,0-6.875,5.794,27.686,27.686,0,0,0-3.224,8.753,2.458,2.458,0,0,0,1.677,2.952,2.424,2.424,0,0,0,2.952-1.676Z"/><path class="e" d="M192.725,161.626A33.442,33.442,0,0,0,203.2,159.3a10.865,10.865,0,0,0,4.7-3.422,10.54,10.54,0,0,0,1.034-10.146,14.068,14.068,0,0,0-4.623-5.154,23.127,23.127,0,0,0-11.2-3.815,2.415,2.415,0,0,0-2.4,2.4,2.456,2.456,0,0,0,2.4,2.4,18.531,18.531,0,0,1,7.718,2.459c.265.161.527.329.782.506.1.072.613.451.468.336s.32.272.406.348q.335.3.648.612c.3.3.577.624.85.952.214.256-.248-.353-.068-.083.044.067.1.13.141.2.125.195.255.384.372.584.085.144.159.293.241.438.044.077.08.162.118.241-.021-.045-.146-.421-.052-.108a4.166,4.166,0,0,1,.248,1.8,8.321,8.321,0,0,1-1.115,3.458c-.164.333.38-.382.153-.2-.093.076-.174.194-.259.279s-.185.172-.276.259c-.34.326-.014.025.007.012a24.376,24.376,0,0,1-2.17,1.262c-.089.043-.18.081-.27.121-.242.11.333-.12-.1.038-.281.1-.56.212-.843.309-.682.233-1.376.432-2.076.606a34,34,0,0,1-5.318.838,2.462,2.462,0,0,0-2.4,2.4,2.418,2.418,0,0,0,2.4,2.4Z"/><path class="e" d="M181.091,153.048a4.979,4.979,0,0,1-2.467-9.371,5.325,5.325,0,0,1,6.423.8,5.2,5.2,0,0,1-3.956,8.567Z"/><path class="g" d="M130.176,87.677q.558-.008,1.138.01c.6-5.289,3.8-11.969,7.7-13.668,3.413-1.489,5.97-1.335,8.821,1.062,3.447,2.9,4.532,8.725,4.774,12.9a23.2,23.2,0,0,1,9.889,2.5c3.323,1.821,5.27,3.627,5.57,7.405a9.108,9.108,0,0,1-3.588,7.212c-1.759,1.307-7.783,3.317-11.591,4.035-.29,4.473-1.736,8.688-3.9,11.087-1.681,1.86-3.1,3.175-6.243,3.534-3.1.354-5.758-1.607-7.621-4.111a21.185,21.185,0,0,1-4.088-11.655c-10.1-1.8-13.7-5.345-14.4-6.906a8.505,8.505,0,0,1,.078-7.416C118.217,91.207,122.46,87.774,130.176,87.677Z"/><path class="e" d="M150.534,108.22a18.763,18.763,0,0,1-2.566,9.39,7.361,7.361,0,0,1-5.4,3.762c-2.72.286-4.827-1.961-6.173-4.094a18.243,18.243,0,0,1-2.97-9.4c-.04-3.086-4.841-3.095-4.8,0,.08,6.154,3.106,13.7,8.623,16.968a10.1,10.1,0,0,0,9.423.284,13.853,13.853,0,0,0,5.759-5.629,24.533,24.533,0,0,0,2.9-11.281c.117-3.089-4.683-3.084-4.8,0Z"/><path class="e" d="M153.93,111.37a49.049,49.049,0,0,0,8.464-2.576,12.239,12.239,0,0,0,6.534-5.207A10.405,10.405,0,0,0,169.937,95a11.786,11.786,0,0,0-5.691-6.288,25.953,25.953,0,0,0-11.822-3.142,2.4,2.4,0,1,0,0,4.8,20.551,20.551,0,0,1,10.163,2.946,6.87,6.87,0,0,1,2.448,2.367,5.006,5.006,0,0,1,.554,1.652,7.862,7.862,0,0,1,.077,1.373,7.486,7.486,0,0,1-1.353,3.206,5.725,5.725,0,0,1-2.8,2.076,45.04,45.04,0,0,1-8.855,2.749,2.4,2.4,0,0,0,1.276,4.628Z"/><path class="e" d="M154.988,87.69c-.4-5.7-1.842-11.883-6.793-15.333a9.614,9.614,0,0,0-8.824-1.049,12.9,12.9,0,0,0-6.554,5.374,24.925,24.925,0,0,0-3.7,9.492,2.471,2.471,0,0,0,1.677,2.952,2.42,2.42,0,0,0,2.952-1.676,21.53,21.53,0,0,1,3.212-8.346,9.491,9.491,0,0,1,2.405-2.555,7.057,7.057,0,0,1,3.546-1.091c2.418-.011,4.429,2.2,5.491,4.393a21.917,21.917,0,0,1,1.784,7.839,2.457,2.457,0,0,0,2.4,2.4,2.421,2.421,0,0,0,2.4-2.4Z"/><path class="e" d="M129.782,105.307a40.062,40.062,0,0,1-4.847-1.362,18.421,18.421,0,0,1-3.13-1.4c-.408-.227-.808-.469-1.2-.73-.2-.132-.385-.272-.578-.409.414.294.053.04-.134-.121a9.11,9.11,0,0,1-.691-.656c-.1-.111-.2-.242-.307-.348-.215-.209.307.522.075.084a5.871,5.871,0,0,1-.056-5.7c.06-.089.376-.515.148-.22-.244.316.141-.161.2-.232a10.973,10.973,0,0,1,.975-.966c.091-.08.54-.446.341-.292-.215.167.315-.223.4-.282a14.457,14.457,0,0,1,1.491-.887c.278-.144.56-.281.847-.406-.319.14.061-.025.106-.042q.3-.115.6-.221a18.77,18.77,0,0,1,2.233-.626,21.563,21.563,0,0,1,5.174-.4c3.089.082,3.088-4.718,0-4.8-6-.159-12.71,1.519-16.418,6.6-2.126,2.913-2.029,7.264-.466,10.408a10.325,10.325,0,0,0,3.635,3.659,30.2,30.2,0,0,0,10.319,3.981,2.454,2.454,0,0,0,2.952-1.677,2.425,2.425,0,0,0-1.676-2.952Z"/><path class="e" d="M141.523,102.939a5.088,5.088,0,0,0,5.536-3.378,4.988,4.988,0,0,0-1.883-5.363,5.417,5.417,0,0,0-6.468-.089,5.015,5.015,0,0,0-1.645,4.506A5.294,5.294,0,0,0,141.523,102.939Z"/><path class="h" d="M118.46,142.824c.041-4.412-1.049-8.644-2.984-11.177-1.522-1.992-2.829-3.42-5.93-4.037-3.062-.608-5.871,1.126-7.934,3.469a21.179,21.179,0,0,0-5.036,11.282c-10.23.893-13.981,4.661-14.815,6.158a6.717,6.717,0,0,0-.395,6.545c1.369,2.7,5.39,7.094,13.812,7.555.266,5.338,2.02,12.073,5.76,14.087,3.28,1.766,6.63,1.988,9.669-.166,3.674-2.6,5.236-8.319,5.823-12.466,3.239.128,7.036.266,10.23-1.156,3.462-1.541,5.382-3.7,5.992-7.439a10.183,10.183,0,0,0-3.095-7.971c-1.645-1.447-7.356-3.423-11.1-4.49C118.459,142.953,118.459,142.889,118.46,142.824Z"/><path class="e" d="M120.826,143.935c.276-6.193-1.344-13.3-6.724-17.049a9.966,9.966,0,0,0-8.93-1.225,15.564,15.564,0,0,0-7.105,6.12,22.9,22.9,0,0,0-3.9,10.688,2.418,2.418,0,0,0,2.4,2.4,2.452,2.452,0,0,0,2.4-2.4,18.2,18.2,0,0,1,3.684-8.888c1.337-1.8,3.649-4.02,6.257-3.657,2.5.348,4.124,2.063,5.311,4.188,1.638,2.93,1.953,6.533,1.807,9.823-.138,3.088,4.663,3.081,4.8,0Z"/><path class="e" d="M118.214,145.446a61.878,61.878,0,0,1,7.264,2.524,13.429,13.429,0,0,1,2.609,1.4c-.451-.334.025.062.18.222.091.094.36.394.36.394a8.489,8.489,0,0,1,.958,1.63,9.9,9.9,0,0,1,.454,1.3c.072.261.133.524.188.789.026.127.051.256.069.384-.035-.256-.008-.027,0,.1.014.264.007.525.01.788,0,.286.029-.1.034-.134-.019.149-.052.3-.081.446a9.789,9.789,0,0,1-.5,1.768c.084-.206-.153.313-.191.385-.119.226-.252.444-.388.66a5.947,5.947,0,0,1-.841.966,4.593,4.593,0,0,1-.971.758,12.445,12.445,0,0,1-1.639.895c-2.932,1.316-6.35,1.072-9.478.952-3.089-.118-3.084,4.682,0,4.8,6.271.24,14.134-.3,17.462-6.608a11.627,11.627,0,0,0-4.371-15.349,52.524,52.524,0,0,0-9.849-3.7c-2.97-.871-4.239,3.759-1.276,4.629Z"/><path class="e" d="M114.073,163.729c-.723,4.7-2.666,12.466-8.716,11.946a7.763,7.763,0,0,1-3.813-1.421c.272.2-.378-.366-.444-.433-.13-.135-.454-.515-.482-.551a12.817,12.817,0,0,1-.974-1.652,22.875,22.875,0,0,1-2.009-8.121,2.461,2.461,0,0,0-2.4-2.4,2.419,2.419,0,0,0-2.4,2.4c.435,5.226,1.768,12.228,6.686,15.164a11.682,11.682,0,0,0,9.638,1.291A12.516,12.516,0,0,0,115.9,173.9a27.554,27.554,0,0,0,2.8-8.9,2.477,2.477,0,0,0-1.676-2.952,2.418,2.418,0,0,0-2.953,1.676Z"/><path class="e" d="M94.03,140.256c-4.96.679-11.034,2.3-14.087,6.657a9.262,9.262,0,0,0-.463,9.71,15.4,15.4,0,0,0,4.877,5.091,21.593,21.593,0,0,0,10.95,3.312,2.4,2.4,0,0,0,0-4.8,17.172,17.172,0,0,1-7.651-2.106c-.458-.266-.9-.562-1.327-.868-.33-.232.128.129-.262-.212-.226-.2-.452-.392-.669-.6q-.466-.447-.889-.939c-.061-.072-.455-.576-.239-.286.2.265-.159-.234-.229-.338-1.217-1.822-1.142-3.463-.027-5.436.242-.427-.1.183-.13.156a3.392,3.392,0,0,1,.24-.282c.215-.228.432-.451.666-.661.145-.13.3-.25.446-.376-.354.3-.14.107.1-.06.378-.266.77-.511,1.172-.739a16.7,16.7,0,0,1,1.657-.824c.25-.107.031-.011-.016.008.2-.079.393-.154.591-.227q.57-.212,1.15-.392a33.14,33.14,0,0,1,5.418-1.16,2.414,2.414,0,0,0,1.676-2.952,2.464,2.464,0,0,0-2.952-1.676Z"/><path class="e" d="M106.608,148.17a4.945,4.945,0,0,1,2.939,9.177,5.35,5.35,0,0,1-6.455-.465,5.184,5.184,0,0,1-1.279-4.71A5.293,5.293,0,0,1,106.608,148.17Z"/><path class="e" d="M110.711,54.451a12.256,12.256,0,0,0,4.771-14.421,16.969,16.969,0,0,0-11.869-10.355l1.677,2.952c1.639-5.451-2.851-10.963-8.211-11.7-5.209-.713-11.328,3.979-11.16,9.436l2.4-2.4c-.282-.025-.563-.04-.845-.053l2.4,2.4a9.981,9.981,0,0,0-11.8-9.014,9.636,9.636,0,0,0-6.165,4.763c-1.547,2.928-1.116,6.086-.356,9.175l1.676-2.953a15.065,15.065,0,0,0-7.653,4.562,13,13,0,0,0-3.443,9.305c.388,5.7,4.968,11.456,10.99,11.746l-2.314-1.762c.086.258.164.517.234.779l1.677-2.952c-4.527,1.591-8.228,4.532-9.838,9.153-2.079,5.966-1.19,13.626,3.461,18.211,2.2,2.17,5.6-1.222,3.394-3.395-3.487-3.437-3.752-9.16-2.226-13.54,1.011-2.9,3.774-4.848,6.485-5.8a2.452,2.452,0,0,0,1.676-2.952c-.071-.262-.148-.521-.234-.779A2.49,2.49,0,0,0,73.123,53.1c-.061,0-.519-.077-.162,0,.39.08-.161-.044-.235-.065a9.618,9.618,0,0,1-1.07-.35c.331.139-.381-.2-.366-.191-.164-.086-.326-.177-.486-.271a8.062,8.062,0,0,1-.979-.667,7.727,7.727,0,0,1-2.911-5.768c-.172-4.6,3.582-7.758,7.591-8.867a2.444,2.444,0,0,0,1.676-2.952c-.412-1.675-.969-3.655-.21-5.321a4.921,4.921,0,0,1,3.04-2.625,5.1,5.1,0,0,1,6.063,4.3,2.456,2.456,0,0,0,2.4,2.4c.282.013.563.028.845.053a2.417,2.417,0,0,0,2.4-2.4c-.077-2.483,3.225-5.031,5.746-4.71a5.33,5.33,0,0,1,3.441,2.085,3.966,3.966,0,0,1,.755,3.609,2.433,2.433,0,0,0,1.676,2.952c3.689,1,6.907,3.176,8.435,6.792,1.329,3.146.56,7.33-2.483,9.211-2.623,1.622-.215,5.776,2.422,4.145Z"/></svg>