<svg xmlns="http://www.w3.org/2000/svg" width="434.789" height="305.7" viewBox="0 0 434.789 305.7"><defs><style>.a{fill:#fff;}.b{fill:#211715;}.c{fill:#7abee6;}.d{fill:#85807f;}.e{fill:#3d8dcc;}.f{fill:#b3b3b3;}.g{fill:#ffda71;}</style></defs><path class="a" d="M363.607,162.768a32.7,32.7,0,0,1-1.706,6.418,43.447,43.447,0,0,1-10.119,15.256c0,.875,0,1.486,0,1.486-.8.649-10.343,8.775-14.877,12.558l-2.777.176c-5.213-2.775-16.214-8.776-17.134-9.246v-.3a30.2,30.2,0,0,1-9.345-6.759,37.5,37.5,0,0,1-8.281-13.051,5.675,5.675,0,0,1-4.787-.835,14.982,14.982,0,0,1-5.014-6.853c-1.156-2.721-1.512-7.216-.22-9.753a4.787,4.787,0,0,1,4.121-2.582,5.231,5.231,0,0,1,3.791,1.073s-4.751-27.133,26.69-31.39c42.666-5.778,38.876,27.1,38.876,27.1a5.23,5.23,0,0,1,3.618-1.558,4.786,4.786,0,0,1,4.423,2.023c1.611,2.347,1.844,6.85,1.052,9.7a14.98,14.98,0,0,1-4.077,7.448,5.784,5.784,0,0,1-4.276,1.5"/><path class="a" d="M2.065,198.205a49.437,49.437,0,0,1,.872-6.019c1.07-4.989,3.256-10.536,5.357-12.28,3.6-3.339,7.078-2.04,11.472-.785,1.24.354,6.341,2.341,6.74,4.582a3.714,3.714,0,0,1,2.913-2.825,4.281,4.281,0,0,1,4.96,1.937c1.666,2.931,1.753,10.586.131,13.36a2.861,2.861,0,0,1-.84.921c.047,1.075.08,1.812.08,1.812.1,2.384.831,6.611-.238,9.108-1.636,3.819-4.045,6.133-7.068,7.186-.04.643-.07,1.128-.07,1.128-.047.775-.067,2.012-.082,3.336-5.9.7-11.841,1.621-17.768,2.7-.578-1.938-1.442-5.83-1.239-8.06.187-2.044-1.306-3.843-2.387-5.587a17.15,17.15,0,0,1-2.893-7.778A20.552,20.552,0,0,1,2.065,198.205Z"/><path class="b" d="M24.374,216.33c-.169,2.864-.014,5.74-.183,8.6a2.012,2.012,0,0,0,2,2,2.046,2.046,0,0,0,2-2c.169-2.864.014-5.74.183-8.6a2.012,2.012,0,0,0-2-2,2.046,2.046,0,0,0-2,2Z"/><path class="b" d="M25.726,217.488a13.63,13.63,0,0,0,8.817-7.014,12.453,12.453,0,0,0,1.545-6.056c.012-1.844-.247-3.671-.338-5.51a2.043,2.043,0,0,0-2-2,2.019,2.019,0,0,0-2,2c.08,1.631.3,3.253.332,4.887a8.246,8.246,0,0,1-.871,4.43,9.671,9.671,0,0,1-6.549,5.406c-2.5.59-1.444,4.448,1.064,3.857Z"/><path class="b" d="M13.609,189.01c1.671.043,3.341.059,5.008.19a31.354,31.354,0,0,0,5.477.21c3.135-.3,5.219-2.692,4.46-5.906-.6-2.554-3.014-4.063-5.239-5.111a29.923,29.923,0,0,0-7.372-2.34,9.986,9.986,0,0,0-8.428,1.9c-2.257,1.808-3.483,4.471-4.524,7.1a43.134,43.134,0,0,0-2.527,9.7c-.446,3.094-.8,6.25.072,9.307a22.74,22.74,0,0,0,2.635,5.668c.786,1.264,2.047,2.651,2.13,4.2a41.471,41.471,0,0,0,.356,4.9,34.71,34.71,0,0,0,1.019,4.332c.753,2.454,4.615,1.407,3.857-1.063a26.149,26.149,0,0,1-1.269-6.6,12.074,12.074,0,0,0-.3-3.575,17.054,17.054,0,0,0-2.022-3.722c-1.521-2.358-2.9-4.976-2.956-7.844a33.868,33.868,0,0,1,.82-7.343,36.976,36.976,0,0,1,2.553-8.083c.906-1.953,2.05-3.976,4.166-4.816s4.516.009,6.57.6a19.5,19.5,0,0,1,4.85,2c.912.554,3,2.489.813,2.718a28.511,28.511,0,0,1-5.138-.239c-1.667-.131-3.337-.147-5.008-.19-2.575-.067-2.574,3.933,0,4Z"/><path class="b" d="M22.507,189.765c.11.029.217.064.324.1-.223-.1-.232-.1-.03-.009.18.1.355.207.528.322-.388-.258-.036-.009.044.073s.132.138.194.212c-.165-.221-.185-.244-.061-.067.048.086.291.381.264.48l-.1-.23c.03.083.056.167.079.253.147.546.038-.228.032.1a1.5,1.5,0,0,0,0,.378c.052-.325.058-.379.018-.164a2.378,2.378,0,0,1-.063.238,2.55,2.55,0,0,0-.1.276c.094-.523.208-.436.1-.244-.047.081-.086.168-.135.248a2.616,2.616,0,0,0-.172.257c.056-.131.353-.386.1-.146-.037.035-.266.215-.267.253.279-.209.335-.252.167-.131-.043.031-.087.06-.132.088-.11.07-.233.122-.343.192-.254.166.422-.138-.108.038a6.208,6.208,0,0,1-1.032.241c.5-.075-.286.01-.375.014-.2.009-.395.011-.593.013q-.669,0-1.34,0c-1.854-.018-3.708-.1-5.561-.163a2.016,2.016,0,0,0-2,2,2.041,2.041,0,0,0,2,2c1.71.059,3.419.133,5.13.158a14.007,14.007,0,0,0,4.961-.447,5.278,5.278,0,0,0,3.616-6.137,5.726,5.726,0,0,0-4.065-4.056,2,2,0,0,0-1.064,3.857Z"/><path class="b" d="M20.42,196.467c.146.07.74.294.774.456-.026-.123-.255-.215,0,.023.111.1.206.221.316.322.17.156-.187-.3.006.007.079.126.152.25.225.379.191.338-.059-.35.017.059.013.071.152.458.055.155-.092-.287-.012.081,0,.166.044.4.11-.312,0,.063a2.193,2.193,0,0,1-.063.22c-.049.139-.028.1.06-.124-.01.127-.167.295-.226.4-.175.313.144-.123-.017.024-.094.086-.175.19-.269.279q-.114.107-.234.2l.158-.125c-.041.081-.357.232-.434.276-.124.072-.251.138-.38.2-.077.038-.154.074-.233.109.188-.077.214-.089.08-.036-.3.1-.6.216-.9.312a10.013,10.013,0,0,0-1.913.724,3.73,3.73,0,0,0-1.707,2.022,5.244,5.244,0,0,0,0,2.741,2.01,2.01,0,0,0,2.46,1.4,2.054,2.054,0,0,0,1.4-2.46c-.031-.167-.051-.5-.034-.151a2.351,2.351,0,0,1-.006-.51c-.022.121-.183.514-.015.25q-.256.323-.027.093l-.174.145a2.725,2.725,0,0,1,.254-.14l-.206.082a4.418,4.418,0,0,1,.423-.148c.313-.1.629-.19.941-.3a8.006,8.006,0,0,0,4.108-2.725,4.789,4.789,0,0,0,.667-4.485,6.244,6.244,0,0,0-3.082-3.364,2,2,0,0,0-2.019,3.454Z"/><path class="b" d="M31.523,199.724a5.487,5.487,0,0,0,4.881-2.856,13.4,13.4,0,0,0,1.145-4.562,20.152,20.152,0,0,0-.971-9.476,6.264,6.264,0,0,0-4.012-3.86,7.346,7.346,0,0,0-4.859.388c-3.617,1.634-4.1,6.756-3.806,10.224.363,4.346,2.354,10.175,7.622,10.142,2.573-.017,2.578-4.017,0-4a2.536,2.536,0,0,1-2.267-1.556,11.773,11.773,0,0,1-1.306-4.088,15.245,15.245,0,0,1,.024-3.869,13.79,13.79,0,0,1,.45-1.964,1.975,1.975,0,0,1,.74-1.167,3.755,3.755,0,0,1,1.048-.322c.343-.078-.027.007-.09.011.134-.009.268-.025.4-.03a4.848,4.848,0,0,1,.781.021c-.52-.062.5.163.322.1a3.053,3.053,0,0,0,.446.248,3.112,3.112,0,0,1,.438.488c.086.125.441.866.271.451a15.223,15.223,0,0,1,.877,6.743,11.8,11.8,0,0,1-.537,3.566c-.047.153-.368.865-.141.431-.045.086-.08.177-.13.261-.018.03-.283.435-.133.232a1.658,1.658,0,0,1-1.2.448,2.047,2.047,0,0,0-2,2A2.017,2.017,0,0,0,31.523,199.724Z"/><path class="c" d="M98.443,243.689c.862,3.467,1.79,6.892,3.029,11.657,5.038-8.786,6.964-12.159,11.428-21.117,3.763-7.552,7.737-15.46,11.35-23.4l-1.016.347a37.135,37.135,0,0,1-17.5,1.2,47.44,47.44,0,0,1-15.043-5.734c1.58,8.616,3.56,17.332,5.178,25.46C96.82,236.864,97.6,240.3,98.443,243.689Z"/><path class="d" d="M304.254,105.87q-.267.213-.53.43a37.913,37.913,0,0,0-14.267,30.87,40.843,40.843,0,0,0,2.428,12.465,6.451,6.451,0,0,1,1.582-.35,5.231,5.231,0,0,1,3.791,1.073l1.4,1.147c1.213-5.378,5.5-16.3,10.946-19.173,4.208-2.1,11.51-.405,16.394-.369,8.087.059,22.564-4.144,26.439-.835,2.941,1.673,8.589,18.65,10.383,14.94a5.23,5.23,0,0,1,3.618-1.558,6.5,6.5,0,0,1,1.47.111,39.483,39.483,0,0,0,.743-12.633c-1.59-14.544-9.562-23.29-17.243-28.179a41.52,41.52,0,0,0-47.158,2.061Z"/><path class="a" d="M302.313,303.709c-2.32-12.485-5.153-27.695-7.8-40.839-9.081,6.635-15.355,11.73-24.778,19.448l-2.777,2.562c-.149-3.543-.273-6.847-.334-9.5-.31-12.526-1.355-27.672-1.748-40.523l1.009-1.109c4.425-4.6,13.805-18.57,19.759-23.157,7.273-5.6,17.685-10.533,26.85-14.044,1.6-2.307,3.5-5.656,4.5-7.13.92.47,11.921,6.471,17.134,9.246l2.777-.176c4.534-3.783,14.073-11.909,14.877-12.558,1.276,1.23,3.8,4.09,5.826,6.024,9.182,3.749,24.985,10,29.8,11.6l38.335,30.2c.567.028,1.077.054,1.86.065A2.015,2.015,0,0,1,429.424,235a35.739,35.739,0,0,1,2.25,7.092,62.144,62.144,0,0,1,.966,16.253c-.559,7.262-1.2,13.261-5.573,19.018-4.246,5.578-11,8.973-17.336,5.522a19.654,19.654,0,0,1-6.427-5.145q-6.687-8.514-12.644-17.579c2.681,12.946,6.186,28.707,9.493,43.552Z"/><path class="e" d="M335.026,273.167c-1.963-2.4-3.8-4.78-5.273-6.918a.979.979,0,0,1-.17-.6c.5-12.85,2.66-49.11,2.58-49.8a14.607,14.607,0,0,0-1.25-3.89c-.43-1.01-.77-1.95-1.09-2.85l-.551-1.286c1.893-3.645,4.2-7.828,4.855-9.161l2.777-.176c.927,1.187,4.109,4.887,6.729,8.1-.12,1.668-.25,2.907-.45,4.6-.03.34-.08.68-.13,1.03a10.232,10.232,0,0,0-.11,2.28c.04.42,10.03,37.23,12.72,49.16a.952.952,0,0,1-.08.64c-2.59,5.46-6.17,12.19-10.08,18.93a1.008,1.008,0,0,1-1.61.17C341.189,280.415,337.966,276.764,335.026,273.167Z"/><path class="a" d="M252.384,138.94a5.229,5.229,0,0,1,3.724-1.286A4.786,4.786,0,0,1,260.369,140c1.434,2.459,1.333,6.968.333,9.749a14.988,14.988,0,0,1-4.617,7.127,5.784,5.784,0,0,1-4.376,1.184l-.418-.072a31.569,31.569,0,0,1-1.536,3.941c-1.021,2.621-6.167,11.146-12.87,15.686v2.663c-.867.562-11.191,7.664-16.091,10.96l-2.781-.111c-4.9-3.3-15.224-10.4-16.09-10.96v-2.592a32.124,32.124,0,0,1-7.246-6.52,37.5,37.5,0,0,1-7.293-13.627,5.676,5.676,0,0,1-4.713-1.187,14.975,14.975,0,0,1-4.493-7.205c-.952-2.8-.975-7.308.5-9.743a4.788,4.788,0,0,1,4.3-2.27,5.233,5.233,0,0,1,3.7,1.351s-4.281-27,31.885-27C256.9,111.368,252.384,138.94,252.384,138.94Z"/><path class="a" d="M219.491,191.184l-1.478-.059c-4.9-3.3-15.224-10.4-16.09-10.96-1.316,1.558-4.049,5.435-5.966,7.48,3.4,14.391,9.072,29.774,13.605,43.695,3.678,11.3,4.757,14.729,9.855,27.221,4.521-11.634,6.485-16.1,10.167-27.364,4.5-13.75,10.11-28.934,13.527-43.169-1.922-1.954-4.85-6.121-6.226-7.752-.867.562-11.191,7.664-16.091,10.96Z"/><path class="e" d="M219.371,191.179l-1.358-.054c-.784,1.251-3.477,5.13-5.726,8.545l.373,1.4c.221.932.465,1.9.791,2.954a14.375,14.375,0,0,1,.838,4c.011.7-1.888,13.9-3.68,26.535,2.892,8.872,4.228,12.783,8.809,24.007,4.025-10.361,6.023-15.035,9.012-23.89-1.409-12.084-3.276-26.476-3.276-26.9a10.027,10.027,0,0,1,.346-2.256q.129-.505.233-1.011c.366-1.649.623-2.879.927-4.514-2.277-3.464-5.066-7.478-5.866-8.755Z"/><path class="f" d="M169.053,303.709c.36-8.57,1.01-20.96,1.18-28.33.337-13.638,1.435-27.7,1.707-41.014-4.293-4.275-6.512-7.564-10.464-12.108-3.333-3.834-6.685-8.133-10.33-11.121a52.109,52.109,0,0,0-5.532-3.935l8.029-5.055c7.666-5.334,24.67-11.027,33.06-12.227l4.641-.733a35.068,35.068,0,0,1,4.212-3.249c3.352,14.882,9.294,30.933,14.006,45.4,3.678,11.3,4.757,14.729,9.855,27.221,4.521-11.634,6.485-16.1,10.167-27.364,4.722-14.446,10.681-30.474,14.031-45.325a31.952,31.952,0,0,1,4.162,3.071c2.7.386,4.4.626,4.4.626a103.972,103.972,0,0,1,32.47,10.742s4.586,2.381,9.319,4.835a72.118,72.118,0,0,0-8.319,5.444c-5.954,4.587-15.334,18.556-19.759,23.157,0,0-.423.51-1.009,1.213.4,12.831,1.439,27.928,1.748,40.419.17,7.37.82,19.76,1.18,28.33Z"/><path class="d" d="M133.066,193.09a34.86,34.86,0,0,0,7.155.268c5.929-.212,10.59-3.289,12.345-7.962,2.2-5.848-.317-13.006.649-19.179l-.268-18.12a37.9,37.9,0,0,0,2.243-11.652c.352-12.449-4.555-21.295-10.309-27.189l-4.89-4.244a38.8,38.8,0,0,0-20.982-7.646A38.548,38.548,0,0,0,95.6,102.807a37.154,37.154,0,0,0-17.986,28.058,39.682,39.682,0,0,0,.573,11.854l-.981,17.92c-1.27,4.82-4.05,9.47-3.98,14.51a15.351,15.351,0,0,0,2.121,6.33c3.9,5.2,6.667,6.222,10.111,6.778l2.722,3.444,41.889,6.361Z"/><path class="a" d="M110.509,128.191c-.661,3.607-3.4,11.152-.991,10.588,10.256-2.283,18.734-7.833,25.638-16.009,1.6,9.788,8.386,24.271,12.487,26.563a5.122,5.122,0,0,1,3.722-1.029,4.69,4.69,0,0,1,4.022,2.556c1.25,2.495.873,6.9-.278,9.557a14.675,14.675,0,0,1-4.956,6.684,5.666,5.666,0,0,1-4.353.887l-.4-.1a31.125,31.125,0,0,1-1.747,3.759c-1.376,2.963-8.923,13.669-17.456,16.308a40.966,40.966,0,0,0-.2,7.693,8.917,8.917,0,0,0,.41,2.36,8.8,8.8,0,0,0,2.884,2.911l4.694,2.973s-2.92,3.37-4.75,4.416c-2.333,1.334-6,2.86-6,2.86a37.135,37.135,0,0,1-17.5,1.2,47.451,47.451,0,0,1-14.911-5.653,28.968,28.968,0,0,1-4.884-4.737,29.009,29.009,0,0,1-2.93-6.5l5.333-1.556c.99-.25,7.069-1.784,7.859-2.424a6.962,6.962,0,0,0,1.36-1.65c.63-.95,1.42-2.22,2.22-3.58-4.018-1.818-7.433-4.882-10.566-9.1a36.734,36.734,0,0,1-6.291-13.779,5.565,5.565,0,0,1-4.536-1.453,14.678,14.678,0,0,1-3.949-7.325c-.758-2.8-.5-7.207,1.093-9.5a4.689,4.689,0,0,1,4.347-1.954,5.088,5.088,0,0,1,3.66,1.688c8.943-5.448,17.388-11.15,26.658-17.112"/><path class="a" d="M149.923,210.167a78.733,78.733,0,0,0-15.465-8.792,32.046,32.046,0,0,0-4.42-4.281c-4.743,12.426-11.2,25.224-17.138,37.135-4.464,8.958-6.39,12.331-11.427,21.119-2.453-9.428-3.683-13.609-5.6-23.253-2.6-13.052-6.129-27.619-7.44-40.854A34.255,34.255,0,0,0,82,194.929a74.5,74.5,0,0,1-12.921,2.864,33.371,33.371,0,0,0-13.746,7.762l-12.966,12.9-6.775.289a278.432,278.432,0,0,0-30.55,4.27A3.472,3.472,0,0,0,2.22,226.3c-.521,15.031,2.842,36.325,7.987,44.814,2.5,4.121,6.422,7.84,10.48,7.69,6.055-.223,9.353-2.622,14.239-6.206,5.13-3.763,10.7-9.279,17.141-16.111l.785-.833c-1.366,5.768-2.559,10.359-3.368,12.768-2.347,6.978-12.276,20.9-19.715,30.853h0a2.739,2.739,0,0,0,2.147,4.439h99.667c2.372-14.53,5.8-34.66,8.764-50.709,9.628,6.467,19,14.126,28.445,21.522l1.437.992c0-.045,0-.09,0-.135.337-13.638,1.435-27.7,1.708-41.013-4.293-4.276-6.513-7.564-10.465-12.109-3.333-3.834-6.685-8.133-10.33-11.121Q150.543,210.641,149.923,210.167Z"/><path class="g" d="M16.031,171.534c-.88-13.325-2.921-43.809-3.052-57.753a2.525,2.525,0,0,1,2.306-2.514,68.761,68.761,0,0,1,18.1.474,82.211,82.211,0,0,1,18.089,4.618,2.613,2.613,0,0,1,1.5,3.311c-4.306,11.837-15.817,40.559-20.664,54.226Z"/><path class="b" d="M88.876,195.852c2.1-.53,4.2-1.065,6.256-1.75a6.247,6.247,0,0,0,3.228-1.962,26.785,26.785,0,0,0,1.763-2.578q.415-.661.819-1.331a4,4,0,0,0,.841-1.972,2,2,0,0,0-4,0v.01l.273-1.01c-.5.852-1.014,1.7-1.543,2.532q-.333.528-.677,1.048c-.144.217-.285.435-.44.643.194-.261-.145.165-.18.2-.089.1-.182.187-.279.274q.357-.254.19-.138A.926.926,0,0,0,95,189.9c-.077.036-.157.073-.232.112-.269.14.51-.195.187-.08-.456.162-.909.329-1.372.475-1.9.6-3.833,1.1-5.766,1.591a2,2,0,0,0,1.064,3.857Z"/><path class="b" d="M75.274,160.107c-.951,3.49-2.575,6.759-3.444,10.273a15.352,15.352,0,0,0,.664,9.889,16.655,16.655,0,0,0,12.43,9.916,2.06,2.06,0,0,0,2.46-1.4,2.017,2.017,0,0,0-1.4-2.46,11.584,11.584,0,0,1-5.281-2.03,13.7,13.7,0,0,1-4.614-5.751,11.194,11.194,0,0,1-.869-3.829,16.243,16.243,0,0,1,.806-4.521c.911-3.052,2.264-5.95,3.1-9.026.678-2.487-3.18-3.548-3.857-1.064Z"/><path class="b" d="M132.535,195.019A29.647,29.647,0,0,0,143,195.06a15.23,15.23,0,0,0,9.039-4.941c2.572-3.057,3.453-6.849,3.453-10.782,0-4.174-.952-8.424-.353-12.588a2.066,2.066,0,0,0-1.4-2.46,2.014,2.014,0,0,0-2.46,1.4c-.556,3.864-.059,7.659.147,11.528.178,3.338.108,6.913-1.945,9.722a11.407,11.407,0,0,1-7.186,4.2,23.189,23.189,0,0,1-4.114.275,21.812,21.812,0,0,1-4.59-.252c-2.513-.51-3.588,3.345-1.063,3.858Z"/><path class="d" d="M241.737,94.3a41.521,41.521,0,0,0-45.352.614,37.913,37.913,0,0,0-16.509,29.732,40.81,40.81,0,0,0,1.5,12.613,6.266,6.266,0,0,1,1.6-.236,5.233,5.233,0,0,1,3.7,1.351l5.288-4.231c3.977-4.225,10.987-10.585,15.889-13.026.575-.286,1.307.114,1.531,1.044a5.91,5.91,0,0,1,.13,2.222,1.185,1.185,0,0,0,1.689,1.256c3.5-1.847,9.741-5.572,14.159-7.333l6.52.834a21.205,21.205,0,0,1,5.981,3.72c3.934,3.341,7.693,7.911,9.34,12.032l5.176,4.05a5.229,5.229,0,0,1,3.724-1.286,6.33,6.33,0,0,1,1.5.233l.1-.547a38.684,38.684,0,0,0,1.534-12.01c-.447-12.819-6.115-21.556-12.425-27.183Z"/><path class="b" d="M133.512,304.241c2.764-16.929,5.649-33.841,8.763-50.709l-2.938,1.195c9.728,6.553,18.815,13.983,28.041,21.21a2.065,2.065,0,0,0,2.828,0,2.013,2.013,0,0,0,0-2.829c-9.493-7.435-18.84-15.092-28.85-21.835a2.012,2.012,0,0,0-2.938,1.2c-3.114,16.868-6,33.78-8.764,50.708a2.06,2.06,0,0,0,1.4,2.46,2.016,2.016,0,0,0,2.461-1.4Z"/><path class="a" d="M423.4,206.142a9.6,9.6,0,0,0-1.85-1.944c-3.8-2.337-7.1-4.389-10.739-6.167a26.6,26.6,0,0,0-2.673-1.071,6.059,6.059,0,0,0-4.548.249c-1.195.569-2.775,2.715-2.343,4.2l-3.239.408c-.923-.147-1.756-.644-2.668-.846a5.712,5.712,0,0,0-5.255,1.987,14.281,14.281,0,0,0-2.682,5.192,8.038,8.038,0,0,0-.073,4.561,3.012,3.012,0,0,0,1.97,2.042,4.858,4.858,0,0,0,4.059-.427l-.255,2.3a6.432,6.432,0,0,0-1.16,1.655,4.472,4.472,0,0,0,.881,4.72,57.435,57.435,0,0,0,4.269,3.971l1.727-1.864c1.652,1.367,2.969,3.09,3.133,4.822,1.1,9.488,3.434,13.363,7.178,14.4a21.263,21.263,0,0,0,9.078.377c.815-.2,4.5-1.258,5.037-1.9,1.054-1.269,2.223-2.206,2.644-3.89a10.276,10.276,0,0,0-.011-4.263c-.3-1.691-.814-5.992-1.017-8.855a55.489,55.489,0,0,1,.332-11.4,10.51,10.51,0,0,0-.918-6.932A10.052,10.052,0,0,0,423.4,206.142Z"/><path class="b" d="M35.587,216.743c-5.68.453-11.34,1.119-16.978,1.944q-4.388.642-8.755,1.413-1.947.342-3.891.707a8.134,8.134,0,0,0-3.446,1.173c-2.07,1.492-2.3,3.687-2.339,6.048-.031,2.072.006,4.145.1,6.215.2,4.566.65,9.116,1.292,13.639,1.089,7.682,2.577,15.8,6.112,22.78,1.91,3.774,4.965,7.547,8.919,9.271,4.057,1.769,9,.585,12.811-1.325a57.455,57.455,0,0,0,11.652-8.424c4.377-3.844,8.426-8.054,12.422-12.288,1.766-1.871-1.057-4.705-2.829-2.828-6.006,6.362-12.129,12.641-19.326,17.669-3.178,2.22-6.483,3.9-10.43,4.053-4,.157-7.158-3.668-9.02-6.788A35.284,35.284,0,0,1,8.6,261.951a96.506,96.506,0,0,1-2.547-11.14,120.917,120.917,0,0,1-1.846-24,1.681,1.681,0,0,1,.959-1.761,19.513,19.513,0,0,1,4.052-.787q4.368-.792,8.756-1.463,8.769-1.335,17.616-2.055c2.549-.2,2.571-4.2,0-4Z"/><path class="b" d="M124.145,188.372a36.742,36.742,0,0,0-.081,8.045,6.729,6.729,0,0,0,1.349,3.712,14.507,14.507,0,0,0,2.866,2.521,2.006,2.006,0,0,0,2.736-.717,2.056,2.056,0,0,0-.717-2.737c-.259-.188-.326-.235-.506-.385-.222-.184-.442-.369-.654-.565-.147-.135-.29-.273-.429-.416-.067-.069-.529-.65-.25-.251-.077-.11-.5-.617-.126-.1a2,2,0,0,1-.182-.626c-.032-.142-.06-.284-.084-.428q.025.257-.015-.119c-.027-.259-.048-.518-.065-.777a41.155,41.155,0,0,1,.158-7.159,2.006,2.006,0,0,0-2-2,2.057,2.057,0,0,0-2,2Z"/><path class="b" d="M18.031,171.534c-.622-9.426-1.24-18.853-1.786-28.284-.311-5.368-.6-10.736-.843-16.107-.194-4.322-.5-8.689-.419-13.017.019-1.044.753-.911,1.678-.991,1.741-.152,3.488-.242,5.236-.257a73.113,73.113,0,0,1,10.059.669,90.29,90.29,0,0,1,9.4,1.751,52.025,52.025,0,0,1,9.05,2.773c.9.4.737.807.427,1.653q-.475,1.3-.961,2.59-1.11,2.966-2.248,5.921-2.718,7.09-5.477,14.164c-3.994,10.291-8.068,20.562-11.763,30.965-.864,2.43,3,3.476,3.857,1.063,3.476-9.787,7.3-19.454,11.053-29.135q2.937-7.569,5.861-15.144,1.209-3.147,2.4-6.3c.737-1.962,2-4.228,1.391-6.356-.925-3.2-5.174-3.977-7.942-4.814a88.119,88.119,0,0,0-9.977-2.364,77.244,77.244,0,0,0-20.817-1.136,5.814,5.814,0,0,0-3.983,1.492,5.283,5.283,0,0,0-1.233,4.046c.031,2.155.1,4.31.171,6.463.188,5.327.453,10.651.742,15.973.621,11.467,1.371,22.926,2.128,34.384.169,2.556,4.171,2.575,4,0Z"/><path class="b" d="M43.776,219.868l10.162-10.11a40.815,40.815,0,0,1,9.486-7.556,29.339,29.339,0,0,1,5.4-2.264c2.141-.646,4.513-.763,6.71-1.23a77.076,77.076,0,0,0,12.811-3.933,2.063,2.063,0,0,0,1.4-2.46,2.013,2.013,0,0,0-2.46-1.4,77.041,77.041,0,0,1-13.265,4.028c-2.193.451-4.515.586-6.65,1.255a34.469,34.469,0,0,0-5.961,2.548,42.931,42.931,0,0,0-9.945,7.832L40.948,217.04c-1.827,1.818,1,4.647,2.828,2.828Z"/><path class="b" d="M425.747,235.755c.433.021,1.5-.152,1.86.065.019.011.313.694.419.96a34.736,34.736,0,0,1,1.35,4.25,47.456,47.456,0,0,1,1.276,8.525,62.88,62.88,0,0,1-1.08,17.4c-1.124,5.156-3.786,10.226-8.277,13.215a11.2,11.2,0,0,1-6.868,2.082c-2.541-.152-4.959-1.625-6.928-3.145-2.78-2.146-4.783-5.336-6.852-8.127q-3.443-4.647-6.673-9.445c-1.431-2.124-4.9-.124-3.454,2.019q3.368,5,6.961,9.831c2.114,2.842,4.15,6.032,6.892,8.309a18.791,18.791,0,0,0,8.439,4.367,14.238,14.238,0,0,0,8.891-1.493c5.776-2.936,9.721-8.944,11.369-15.074a53.917,53.917,0,0,0,1.434-9.469,68.925,68.925,0,0,0,.161-10.251,51.547,51.547,0,0,0-1.8-11.15c-.5-1.715-1.022-3.942-2.188-5.333-1.3-1.549-3.085-1.448-4.931-1.538-2.573-.124-2.567,3.876,0,4Z"/><path class="b" d="M387.943,201.622c-10.092-3.363-19.96-7.581-29.8-11.6a2.013,2.013,0,0,0-2.46,1.4,2.05,2.05,0,0,0,1.4,2.461c9.844,4.017,19.711,8.235,29.8,11.6,2.448.815,3.5-3.046,1.063-3.857Z"/><path class="b" d="M403.175,200.99c.025-1.483,1.575-2.319,2.877-2.357,1.9-.055,3.919,1.18,5.546,2.037,1.862.98,3.679,2.043,5.479,3.132q1.422.861,2.836,1.736a4.733,4.733,0,0,1,.736.492,8.992,8.992,0,0,1,.829.894,7.944,7.944,0,0,1,1.826,3.842,17.123,17.123,0,0,1-.3,4.929,53.721,53.721,0,0,0-.166,9.683c.217,3.277.6,6.553,1.119,9.8.279,1.753.279,3.414-.9,4.828-.272.327-.569.633-.85.952-.124.14-.24.29-.368.427.268-.286.222-.147.067-.054a6.788,6.788,0,0,1-1.327.564,18.113,18.113,0,0,1-8.11,1.02,15.977,15.977,0,0,1-2.613-.47c-.243-.065-.483-.134-.72-.219-.259-.094.052.07-.368-.177a5.35,5.35,0,0,1-1.628-1.374c-1.932-2.511-2.5-6.054-2.961-9.094-.329-2.175-.547-3.985-1.926-5.788a15.489,15.489,0,0,0-5.248-4.26c-2.285-1.176-4.311,2.274-2.019,3.454a10.5,10.5,0,0,1,4.593,3.975,8.1,8.1,0,0,1,.621,2.834c.156,1.131.338,2.26.572,3.378.63,3.021,1.617,6.15,3.694,8.505,2.1,2.381,5.174,2.986,8.205,3.255a20.963,20.963,0,0,0,9.5-1.374,9.315,9.315,0,0,0,5.936-9c-.07-1.786-.486-3.57-.7-5.345-.239-1.987-.447-3.98-.577-5.977a45.965,45.965,0,0,1,.3-10.321,12.762,12.762,0,0,0-3.242-11.3c-1.639-1.757-4.117-2.879-6.164-4.091a56.486,56.486,0,0,0-7.3-3.831c-2.5-1.024-5.1-1.529-7.643-.294a6.617,6.617,0,0,0-3.6,5.592c-.043,2.575,3.957,2.575,4,0Z"/><path class="b" d="M412.549,205.964c-2.321-1.248-4.679-2.435-7.044-3.6a16.382,16.382,0,0,0-2.566-1.153,5.453,5.453,0,0,0-5.785,1.853,6.157,6.157,0,0,0-.492,6.835,2,2,0,0,0,3.454-2.019,3.287,3.287,0,0,1-.176-.318c.08.194.08.18,0-.044-.037-.122-.068-.245-.093-.37.017.179.019.2.007.048a3.852,3.852,0,0,1,0-.7c-.034.352.079-.286.1-.368a3.115,3.115,0,0,1,.1-.295q-.084.242.073-.09a3.6,3.6,0,0,1,.2-.314c-.122.162-.107.157.044-.017.072-.059.479-.347.153-.146a3.3,3.3,0,0,1,.31-.181q-.309.111.021-.006c.093-.025.606-.125.185-.077.089-.01.8.03.427-.03.206.033.394.115.6.156.284.056-.544-.253-.292-.126.37.186.754.35,1.128.531,2.562,1.244,5.11,2.53,7.618,3.879a2.043,2.043,0,0,0,2.737-.718,2.023,2.023,0,0,0-.718-2.736Z"/><path class="b" d="M406.548,210.583a44.52,44.52,0,0,0-6.612-2.47,8.169,8.169,0,0,0-3.225-.507,5.115,5.115,0,0,0-3.1,1.624,5.322,5.322,0,0,0-.253,6.8,11.655,11.655,0,0,0,4.063,2.773c1.575.744,3.182,1.42,4.783,2.1a2.056,2.056,0,0,0,2.736-.717,2.022,2.022,0,0,0-.717-2.737,48.489,48.489,0,0,1-6.872-3.271c-.168-.106-.329-.22-.5-.325-.07-.044-.3-.233,0,.013-.063-.052-.126-.1-.187-.158-.01-.009-.4-.384-.388-.392s.248.317.08.07c-.195-.287.055.253.01.029a4.091,4.091,0,0,1-.128-.51c.045-.012.015.405.015.069,0-.1-.009-.206-.009-.31,0-.076.012-.154.009-.229-.012-.269-.122.326-.016.092a.949.949,0,0,0,.047-.206c.06-.387-.159.238-.03.039.09-.139.325-.478.077-.189.139-.161.293-.3.439-.448-.02.022-.284.182-.1.079.089-.049.171-.111.261-.161.066-.037.135-.068.2-.1-.384.208-.121.051.01.025.511-.1-.258-.008.106-.017.419-.012-.128-.016-.112-.033a1.812,1.812,0,0,1,.275.068q.638.163,1.274.336a27.721,27.721,0,0,1,2.977.969c.553.218,1.108.431,1.662.649.239.094.477.19.716.286.369.15.1.04.02.007.153.066.306.134.457.2a2.051,2.051,0,0,0,2.737-.718,2.024,2.024,0,0,0-.718-2.736Z"/><path class="b" d="M396.536,214a5.452,5.452,0,0,0-5.042,1.394,6.416,6.416,0,0,0-.065,9.03c.608.642,1.256,1.25,1.9,1.86a26.829,26.829,0,0,0,2.76,2.405,2.01,2.01,0,0,0,2.737-.718,2.055,2.055,0,0,0-.718-2.736c-.352-.254.359.308.1.076-.072-.064-.149-.123-.223-.186-.2-.173-.4-.351-.6-.53-.43-.389-.852-.786-1.271-1.186-.681-.651-1.32-1.358-2.012-2q-.139-.165.084.111c-.058-.082-.113-.167-.166-.254-.079-.133-.146-.271-.217-.409.217.417.009.01-.028-.106a1.627,1.627,0,0,1-.155-.613l.025.22c-.012-.1-.021-.209-.026-.313-.007-.157,0-.311,0-.467q.032-.345-.016.075c.018-.1.041-.2.067-.3.038-.136.242-.493.009-.082.184-.324.376-.639.571-.956.211-.342-.215.17.08-.1.087-.08.37-.265.061-.085.048-.029.576-.329.316-.206s.278-.112.345-.085c-.25.026-.3.032-.144.02.08-.008.16-.011.241-.011s.786.071.331,0a2.055,2.055,0,0,0,2.461-1.4,2.023,2.023,0,0,0-1.4-2.46Z"/><path class="b" d="M398.54,199.884c-1.026-.195-1.944-.736-2.977-.9a6.837,6.837,0,0,0-3.311.235,9.448,9.448,0,0,0-5.056,4.339,15.4,15.4,0,0,0-2.14,6.376c-.164,2.3.421,4.741,2.4,6.106a6.712,6.712,0,0,0,6.916.01,2,2,0,1,0-2.019-3.454,2.81,2.81,0,0,1-.652.289c-.059.018-.653.145-.337.1a3.758,3.758,0,0,1-.609.026c-.126,0-.252-.01-.378-.022.237.036.243.034.02-.006-.144-.04-.291-.081-.436-.116-.35-.084.268.193-.115-.052a3.309,3.309,0,0,1-.3-.177c.143.122.162.136.055.042a2.293,2.293,0,0,1-.194-.188c.115.17.106.156-.025-.042-.208-.272-.033.089-.121-.273-.063-.262-.134-.522-.176-.79a9.043,9.043,0,0,1-.039-1.218,9.935,9.935,0,0,1,.722-2.715,13.067,13.067,0,0,1,1.321-2.569,5.214,5.214,0,0,1,.706-.818c.064-.062.58-.49.411-.367a5.819,5.819,0,0,1,.537-.344,2.894,2.894,0,0,1,1.982-.478c-.314-.021.331.081.425.109.262.077.517.173.773.27a9.3,9.3,0,0,0,1.557.486,2.052,2.052,0,0,0,2.46-1.4,2.019,2.019,0,0,0-1.4-2.46Z"/><path class="b" d="M310.7,195.106c-8.86,3.491-17.777,7.551-25.439,13.28-5.692,4.256-9.931,10.34-14.243,15.907a101.651,101.651,0,0,1-6.549,8.04c-1.776,1.863,1.048,4.7,2.828,2.828,4.566-4.79,8.261-10.425,12.466-15.525a55.11,55.11,0,0,1,6.57-7.044,61.305,61.305,0,0,1,10.825-6.927,137.051,137.051,0,0,1,14.606-6.7,2.061,2.061,0,0,0,1.4-2.46,2.015,2.015,0,0,0-2.461-1.4Z"/><path class="b" d="M251.641,191.5a99.525,99.525,0,0,1,31.992,10.541c2.275,1.2,4.3-2.25,2.019-3.454A102.643,102.643,0,0,0,252.7,187.64a2.067,2.067,0,0,0-2.46,1.4,2.014,2.014,0,0,0,1.4,2.46Z"/><path class="b" d="M292.433,261.927c-8.243,6.066-16.2,12.494-24.114,18.977a2.015,2.015,0,0,0,0,2.829,2.047,2.047,0,0,0,2.829,0c7.653-6.268,15.335-12.488,23.3-18.352a2.06,2.06,0,0,0,.718-2.736,2.016,2.016,0,0,0-2.737-.718Z"/><path class="b" d="M154.652,203.873c4.835-3.329,10.455-5.564,15.955-7.524a88.21,88.21,0,0,1,16.627-4.5,2.012,2.012,0,0,0,1.4-2.46,2.052,2.052,0,0,0-2.46-1.4,88.881,88.881,0,0,0-16.975,4.626c-5.691,2.047-11.554,4.355-16.563,7.8-2.107,1.45-.109,4.918,2.019,3.454Z"/><path class="b" d="M127.716,200.585c8.279,3.569,17.12,7.229,23.762,13.511,6.783,6.415,11.922,14.367,18.417,21.047,1.8,1.849,4.625-.981,2.828-2.828-5.091-5.236-9.476-11.166-14.279-16.665a51.671,51.671,0,0,0-8.165-7.7A66.772,66.772,0,0,0,141,202.3c-3.677-1.886-7.468-3.534-11.262-5.17a2.067,2.067,0,0,0-2.736.717,2.015,2.015,0,0,0,.717,2.737Z"/><path class="b" d="M298.268,148.631a7.637,7.637,0,0,0-8.137-.378,7.2,7.2,0,0,0-3.375,5.224,18.091,18.091,0,0,0,3.987,14.14c2.171,2.688,5.3,4.4,8.8,3.719a2.021,2.021,0,0,0,1.4-2.46,2.042,2.042,0,0,0-2.461-1.4c-2.316.452-4.319-1.718-5.45-3.464a14.662,14.662,0,0,1-2.365-5.9c-.286-1.856-.326-4.113.691-5.727.217-.345-.176.157.115-.139.1-.1.4-.382.405-.384a3.941,3.941,0,0,1,1.163-.489,3.644,3.644,0,0,1,3.207.711,2.011,2.011,0,0,0,2.736-.717,2.051,2.051,0,0,0-.717-2.737Z"/><path class="b" d="M364.238,147.482a3.528,3.528,0,0,1,2.941-.961,3.028,3.028,0,0,1,1.261.4c.4.237.263.159.644.555.289.3-.153-.269.054.065.133.216.271.421.384.649a6.8,6.8,0,0,1,.466,1.324,12.587,12.587,0,0,1,.365,3.508,14.586,14.586,0,0,1-1.443,5.8c-1.025,2.158-2.694,4.519-5.346,4.36-2.572-.154-2.562,3.846,0,4,5.848.35,9.139-5.8,10.347-10.669,1.033-4.164.688-10.735-3.552-13.1a7.68,7.68,0,0,0-8.95,1.241c-1.835,1.811.994,4.639,2.829,2.828Z"/><path class="b" d="M361.679,162.236a32.322,32.322,0,0,1-5.248,13.327c-2.941,4.639-7,9.756-12.483,11.386-2.462.733-1.413,4.594,1.063,3.857,6.346-1.888,11.065-7.364,14.555-12.728a37.515,37.515,0,0,0,5.97-14.779,2.066,2.066,0,0,0-1.4-2.46,2.014,2.014,0,0,0-2.46,1.4Z"/><path class="b" d="M296.627,167.442c3.759,12.323,14.061,24.385,27.576,25.466,2.566.205,2.553-3.8,0-4-5.911-.473-10.9-3.681-14.986-7.807a35.726,35.726,0,0,1-8.733-14.722c-.749-2.455-4.611-1.409-3.857,1.063Z"/><path class="b" d="M349.915,100.608a44,44,0,0,0-39.975-.716,41.037,41.037,0,0,0-21.088,25.49,41.855,41.855,0,0,0,.909,24.223c.811,2.43,4.675,1.388,3.858-1.063a38.114,38.114,0,0,1-1.439-19.875,35.475,35.475,0,0,1,6.66-14.518,38.2,38.2,0,0,1,28.712-14.667,38.649,38.649,0,0,1,20.344,4.58c2.265,1.225,4.287-2.228,2.019-3.454Z"/><path class="b" d="M369.942,144.611a43.5,43.5,0,0,0,.663-13.061A42.958,42.958,0,0,0,367.62,119.9a38.472,38.472,0,0,0-11.952-15.519,2.066,2.066,0,0,0-2.828,0,2.012,2.012,0,0,0,0,2.828,35.492,35.492,0,0,1,11.007,13.962,38.547,38.547,0,0,1,2.237,22.373c-.46,2.516,3.394,3.6,3.858,1.063Z"/><path class="b" d="M326.012,175.705a14,14,0,0,0,6.778,1.123,11.068,11.068,0,0,0,6.536-2.308,2.012,2.012,0,0,0,0-2.829,2.051,2.051,0,0,0-2.829,0c-.349.3.336-.217.075-.051-.126.079-.245.167-.372.244s-.276.157-.418.229a1.331,1.331,0,0,1-.29.136c.075.022.467-.179.1-.045a10.978,10.978,0,0,1-1.4.415c-.159.036-.318.068-.478.1-.05.01-.516.088-.252.046s-.234.027-.285.032q-.3.03-.593.05a15.2,15.2,0,0,1-1.956.009c-.133-.008-.266-.018-.4-.031l-.227-.024c-.156-.019-.1-.01.172.024a2.049,2.049,0,0,1-.652-.117,9.116,9.116,0,0,1-1.136-.319c-.133-.047-.264-.1-.395-.149-.426-.164.516.223.036.015a2.054,2.054,0,0,0-2.736.718,2.021,2.021,0,0,0,.717,2.736Z"/><path class="b" d="M330.547,160.361c.18.527.348,1.059.508,1.592a11.62,11.62,0,0,1,.439,1.7l-.071-.532a1.444,1.444,0,0,1,0,.335l.071-.532a.988.988,0,0,1-.04.151l.2-.478a.745.745,0,0,1-.076.131l.313-.405a.42.42,0,0,1-.073.073l.4-.312a2.1,2.1,0,0,1-.38.21l.478-.2a1.792,1.792,0,0,1-.406.109l.532-.071a4.419,4.419,0,0,1-.762-.039,2,2,0,0,0-1.414,3.414,2.2,2.2,0,0,0,1.414.586,6.108,6.108,0,0,0,.633.049,3.8,3.8,0,0,0,1.74-.488,2.549,2.549,0,0,0,1.291-1.665,3.777,3.777,0,0,0-.068-1.736c-.246-1-.548-1.979-.88-2.95a2.133,2.133,0,0,0-.919-1.195,2,2,0,0,0-2.737.717,2,2,0,0,0-.2,1.541Z"/><path class="b" d="M313.123,152.56c-.431,1.746.181,5.66,3.545,5.776,4.415-.315,4.339-5.089,2.706-7.23C318.036,149.354,314.407,148.826,313.123,152.56Z"/><path class="b" d="M348.5,150.245c.655,1.676.559,5.635-2.762,6.189-4.419.263-4.965-4.481-3.625-6.816C343.208,147.707,346.738,146.711,348.5,150.245Z"/><path class="b" d="M121.412,2.536l23.729,58.157a2.064,2.064,0,0,0,2.46,1.4,2.012,2.012,0,0,0,1.4-2.46L125.269,1.472a2.063,2.063,0,0,0-2.46-1.4,2.013,2.013,0,0,0-1.4,2.46Z"/><path class="b" d="M50.426,33.239c8.3,10.13,16.862,20.051,25.445,29.94q3.738,4.308,7.515,8.581c1.71,1.931,4.531-.907,2.828-2.828C76.866,58.382,67.7,47.66,58.633,36.871q-2.706-3.216-5.379-6.46c-1.632-1.993-4.447.851-2.828,2.828Z"/><path class="b" d="M315.674,1.472,291.944,59.63a2.014,2.014,0,0,0,1.4,2.46,2.048,2.048,0,0,0,2.46-1.4l23.73-58.157a2.013,2.013,0,0,0-1.4-2.46,2.048,2.048,0,0,0-2.46,1.4Z"/><path class="b" d="M387.689,30.411c-8.3,10.13-16.863,20.051-25.445,29.94q-3.74,4.307-7.515,8.581c-1.7,1.92,1.117,4.759,2.828,2.828,9.348-10.55,18.51-21.271,27.582-32.06q2.7-3.218,5.378-6.461c1.618-1.976-1.2-4.822-2.828-2.828Z"/><path class="b" d="M84.832,143.3a7.545,7.545,0,0,0-7.806-1.714,7.163,7.163,0,0,0-4.219,4.6c-1.63,4.542-.664,10.057,1.756,14.149,1.7,2.872,4.485,5.3,8.008,5.108,2.56-.137,2.577-4.138,0-4s-4.2-2.19-5.171-4.3a14.4,14.4,0,0,1-1.365-5.676,12.331,12.331,0,0,1,.381-3.423,5.426,5.426,0,0,1,.845-1.918c.237-.359-.306.3.049-.053.376-.376.2-.279.629-.531a3.222,3.222,0,0,1,1.186-.379,3.473,3.473,0,0,1,2.878.964c1.823,1.822,4.652-1.006,2.829-2.829Z"/><path class="b" d="M148.652,151.059a3.5,3.5,0,0,1,3.118-.663,3.329,3.329,0,0,1,1.153.512c-.188-.135.241.233.292.28.064.066.126.134.184.2-.119-.158-.139-.182-.061-.07,1.007,1.53.975,3.819.672,5.653a14.317,14.317,0,0,1-2.278,5.642c-1.116,1.733-3.1,3.907-5.4,3.443a2.05,2.05,0,0,0-2.46,1.4,2.019,2.019,0,0,0,1.4,2.46c5.78,1.168,9.677-4.03,11.668-8.73a15.839,15.839,0,0,0,1.173-7.523,8.146,8.146,0,0,0-2.505-5.7,7.48,7.48,0,0,0-8.971-.354,2.062,2.062,0,0,0-.718,2.736,2.014,2.014,0,0,0,2.736.718Z"/><path class="b" d="M144.238,165.117a32.762,32.762,0,0,1-6.776,11.966c-3.594,4.208-8.211,8.553-13.895,9.422a2.016,2.016,0,0,0-1.4,2.461,2.051,2.051,0,0,0,2.461,1.4c6.3-.964,11.663-5.772,15.659-10.45a37.439,37.439,0,0,0,7.805-13.731c.72-2.477-3.138-3.535-3.857-1.064Z"/><path class="b" d="M80.531,161.487c1.955,12.185,10.365,25.329,23.08,28.129,2.509.553,3.58-3.3,1.063-3.857-11.439-2.519-18.542-14.466-20.286-25.335a2.014,2.014,0,0,0-2.46-1.4,2.048,2.048,0,0,0-1.4,2.46Z"/><path class="b" d="M141,103.285a42.91,42.91,0,0,0-38.63-5.868,40.32,40.32,0,0,0-23.832,22.018,41.265,41.265,0,0,0-2.283,23.816c.472,2.527,4.328,1.457,3.858-1.063-2.187-11.7,1.1-23.847,9.633-32.281a38.305,38.305,0,0,1,49.235-3.169,2.014,2.014,0,0,0,2.737-.717,2.046,2.046,0,0,0-.718-2.736Z"/><path class="b" d="M154.876,148.628a41.986,41.986,0,0,0,.973-24.109,38.23,38.23,0,0,0-9.553-16.677c-1.795-1.853-4.621.977-2.829,2.828a34.047,34.047,0,0,1,8.525,14.913A37.717,37.717,0,0,1,153.2,136a38.945,38.945,0,0,1-2.181,11.569c-.807,2.451,3.054,3.5,3.857,1.063Z"/><path class="b" d="M108.138,173.357a13.821,13.821,0,0,0,6.3,1.859,10.589,10.589,0,0,0,6.41-1.247,2,2,0,0,0-2.019-3.454c-.216.14-.485.224-.69.371a1.564,1.564,0,1,0,.181-.081c-.079.026-.157.057-.236.083-.194.065-.393.121-.592.169-.231.056-.464.1-.7.139-.376.067.3-.023.029-.006-.129.008-.257.026-.386.035a14.188,14.188,0,0,1-2-.009c-.166-.012-.332-.027-.5-.044s-.421-.052-.118-.008c-.3-.044-.609-.1-.91-.163a10.851,10.851,0,0,1-1.4-.4,2.732,2.732,0,0,0-.328-.126c.115.024.426.193.133.053-.156-.075-.313-.148-.466-.229-.235-.123-.463-.259-.689-.4a2,2,0,1,0-2.019,3.454Z"/><path class="b" d="M114.408,159.157c.149.766.278,1.537.382,2.309l-.071-.531a5,5,0,0,1,.086,1.182l.071-.532a1.088,1.088,0,0,1-.061.234l.2-.478a.878.878,0,0,1-.069.119l.313-.405a.677.677,0,0,1-.1.1l.4-.313a.94.94,0,0,1-.154.081l.477-.2a2.106,2.106,0,0,1-.447.132l.531-.072a1.623,1.623,0,0,1-.412,0l.532.072c-.191-.028-.372-.089-.561-.127a2.13,2.13,0,0,0-1.541.2,2,2,0,0,0-.717,2.737,1.988,1.988,0,0,0,1.2.919,10.733,10.733,0,0,0,1.092.2,3.024,3.024,0,0,0,1.322-.178,2.935,2.935,0,0,0,1.175-.685,2.651,2.651,0,0,0,.629-1.079,3.052,3.052,0,0,0,.106-1.236c-.125-1.176-.3-2.348-.529-3.509a2.019,2.019,0,0,0-.92-1.195,2,2,0,0,0-2.736.717,2.228,2.228,0,0,0-.2,1.541Z"/><path class="b" d="M98.524,148.975c-.652,1.638-.583,5.519,2.667,6.083,4.329.286,4.895-4.36,3.6-6.656C103.723,146.521,100.27,145.523,98.524,148.975Z"/><path class="b" d="M133.175,151.468c.411,1.714-.213,5.545-3.51,5.638-4.325-.337-4.22-5.015-2.606-7.1C128.38,148.295,131.941,147.8,133.175,151.468Z"/><path class="b" d="M133.252,123.483a65.629,65.629,0,0,0,5.6,16.647,48.261,48.261,0,0,0,3.743,6.677,13.694,13.694,0,0,0,4.034,4.253c2.225,1.3,4.241-2.152,2.018-3.454a3.845,3.845,0,0,1-.393-.251c.356.27-.108-.1-.143-.129-.272-.257-.537-.516-.787-.794a17.242,17.242,0,0,1-1.585-2.1,51.04,51.04,0,0,1-3.584-6.537,61.537,61.537,0,0,1-5.051-15.37,2.016,2.016,0,0,0-2.46-1.4,2.046,2.046,0,0,0-1.4,2.46Z"/><path class="b" d="M109.19,126.012c-8.777,5.648-17.44,11.474-26.343,16.923-2.193,1.342-.185,4.8,2.018,3.454,8.9-5.449,17.567-11.275,26.344-16.923,2.157-1.389.154-4.852-2.019-3.454Z"/><path class="b" d="M133.432,121.719a46.171,46.171,0,0,1-17.9,13.146,44.721,44.721,0,0,1-5.384,1.712q-.384.1-.77.185-.714.15-.126.046l1.018.421a1.085,1.085,0,0,1,.288.453q-.067-.318,0,.058c-.008-.125-.01-.251-.008-.377.016-.173.029-.54.039-.622.3-2.615,1.344-5.35,1.853-8.019.48-2.515-3.375-3.593-3.857-1.063-.475,2.492-1.3,4.9-1.752,7.4-.373,2.055-.676,5.653,2.361,5.741a14.9,14.9,0,0,0,4.474-1.055,48.794,48.794,0,0,0,5-1.886,44.81,44.81,0,0,0,8.75-5.08,54.859,54.859,0,0,0,8.841-8.232c1.676-1.939-1.141-4.78-2.828-2.829Z"/><path class="b" d="M351.432,132.855c.35.208-.13-.121-.128-.118a2.252,2.252,0,0,0,.237.219c.076.076.145.158.218.237.381.411-.107-.183.027.019.384.579.774,1.144,1.123,1.747.859,1.487,1.62,3.031,2.383,4.569.786,1.583,1.558,3.176,2.413,4.724a13.56,13.56,0,0,0,2.32,3.361c1.385,1.31,3.586,1.326,4.525-.536a2.048,2.048,0,0,0-.717-2.736,2.02,2.02,0,0,0-2.736.718.838.838,0,0,1-.126.217c.482-.466.32-.388.212-.281-.165.164.344-.25.3-.221-.248.154.44-.139.511-.148.58-.071-.168-.034.408,0,.383.024.244.039.137.011-.179-.048.566.263.251.1s.326.345.165.137c-.131-.167-.319-.321-.463-.478-.308-.337.214.32.04.056-.071-.109-.152-.211-.226-.318-.185-.27-.359-.547-.528-.826-.377-.623-.725-1.261-1.065-1.9-1.519-2.876-2.822-5.874-4.474-8.679a8.973,8.973,0,0,0-2.786-3.323c-2.218-1.319-4.232,2.137-2.019,3.454Z"/><path class="b" d="M188.1,136.958a7.7,7.7,0,0,0-8.233-1.259,7.113,7.113,0,0,0-3.822,4.74,17.686,17.686,0,0,0,2.6,14.281c1.89,2.778,4.819,5.2,8.388,4.779a2.062,2.062,0,0,0,2-2,2.012,2.012,0,0,0-2-2c-4.548.532-7.168-5.939-7.464-9.644-.153-1.927-.126-4.309,1.085-5.915-.289.385.529-.442.38-.337a3.076,3.076,0,0,1,1.179-.5,3.517,3.517,0,0,1,3.062.68c1.925,1.7,4.765-1.123,2.828-2.828Z"/><path class="b" d="M253.8,140.354a3.471,3.471,0,0,1,2.887-.635,2.755,2.755,0,0,1,1.857,1.092c-.2-.247-.049-.079.034.085.095.187.213.358.3.552a7.038,7.038,0,0,1,.38,1.321,12.357,12.357,0,0,1,.147,3.509,14.491,14.491,0,0,1-1.827,5.705c-1,1.823-2.921,4.471-5.332,4.146a2.07,2.07,0,0,0-2.46,1.4,2.013,2.013,0,0,0,1.4,2.46c6.13.826,9.851-4.816,11.536-9.95,1.364-4.157,1.322-10.578-2.737-13.264a7.674,7.674,0,0,0-9.007.754,2.017,2.017,0,0,0,0,2.828,2.041,2.041,0,0,0,2.828,0Z"/><path class="b" d="M250,155.12a29.13,29.13,0,0,1-1.657,5.117c-.089.207-.765,1.69-.455,1.012-.148.323-.3.644-.461.961a41.656,41.656,0,0,1-3.681,5.8c-3.292,4.433-7.76,9.119-13.355,10.342-2.513.55-1.449,4.407,1.064,3.857,6.459-1.412,11.54-6.634,15.391-11.708a42.721,42.721,0,0,0,4.035-6.268q.273-.531.511-1.078c-.005.012.4-.9.178-.4.175-.391.35-.781.515-1.176a32.493,32.493,0,0,0,1.772-5.392c.562-2.507-3.294-3.578-3.857-1.063Z"/><path class="b" d="M184.823,155.507c2.763,12.235,12.087,25.194,25.2,27.224a2.065,2.065,0,0,0,2.461-1.4,2.017,2.017,0,0,0-1.4-2.461c-11.827-1.83-19.92-13.416-22.407-24.43-.566-2.51-4.424-1.447-3.857,1.064Z"/><path class="b" d="M242.747,92.571a43.817,43.817,0,0,0-39.927-3.478A41.121,41.121,0,0,0,180.1,113a41.842,41.842,0,0,0-.8,24.211c.631,2.494,4.49,1.437,3.857-1.064-2.989-11.8-.534-24.467,7.68-33.635a38.628,38.628,0,0,1,11.432-8.793,39.1,39.1,0,0,1,18.969-3.825,38.513,38.513,0,0,1,19.5,6.131c2.174,1.392,4.182-2.068,2.019-3.454Z"/><path class="b" d="M259.635,137.872a42.8,42.8,0,0,0-.524-24.687,38.952,38.952,0,0,0-10.882-16.452c-1.91-1.716-4.748,1.1-2.828,2.829a34.865,34.865,0,0,1,9.852,14.687,38.867,38.867,0,0,1,.525,22.56c-.65,2.492,3.207,3.556,3.857,1.063Z"/><path class="b" d="M213.608,165.854a14.025,14.025,0,0,0,6.5,1.547c2.143.019,4.667-.291,6.446-1.612a2.05,2.05,0,0,0,.718-2.737,2.022,2.022,0,0,0-2.736-.717,5.058,5.058,0,0,1-.679.422c-.068.035-.138.067-.207.1-.335.169.147-.035.156-.061-.026.078-.513.186-.593.211a11.649,11.649,0,0,1-1.44.322c.5-.089-.056,0-.133.009-.149.015-.3.026-.449.035-.361.022-.722.03-1.083.027-.33,0-.661-.014-.991-.037-.18-.013-.36-.031-.54-.047-.4-.035.183.037-.05,0a13.158,13.158,0,0,1-1.456-.317q-.3-.089-.6-.2c-.081-.03-.161-.063-.242-.093-.358-.131.451.213.131.054-.242-.12-.487-.234-.727-.36a2,2,0,1,0-2.019,3.454Z"/><path class="b" d="M219.173,150.952a28.607,28.607,0,0,1,.685,3.166l-.072-.531a1.87,1.87,0,0,1,.009.436l.071-.532a1.028,1.028,0,0,1-.051.2l.2-.478a.827.827,0,0,1-.073.126l.313-.405a.494.494,0,0,1-.067.07l.4-.312a1.368,1.368,0,0,1-.292.157l.478-.2a1.951,1.951,0,0,1-.424.119l.532-.071a1.783,1.783,0,0,1-.444,0l.531.071c-.147-.022-.293-.058-.441-.078a1.5,1.5,0,0,0-.8-.036,1.486,1.486,0,0,0-.744.237,2,2,0,0,0-.718,2.737,1.922,1.922,0,0,0,1.2.919c.371.051.732.14,1.11.164a3.645,3.645,0,0,0,1.74-.4,2.537,2.537,0,0,0,1.368-1.595,3.7,3.7,0,0,0,.009-1.757c-.172-1.029-.4-2.049-.668-3.058a2,2,0,1,0-3.857,1.063Z"/><path class="b" d="M202.34,141.74c-.559,1.71-.238,5.658,3.108,6.023,4.427.012,4.7-4.755,3.233-7.01C207.477,138.906,203.9,138.112,202.34,141.74Z"/><path class="b" d="M237.788,142.047c.529,1.719.141,5.661-3.211,5.967-4.427-.064-4.621-4.835-3.112-7.065C232.7,139.124,236.3,138.392,237.788,142.047Z"/><path class="b" d="M230.878,120.865a26.226,26.226,0,0,1,8.366,6.018,28.783,28.783,0,0,1,6.036,8.539,2.064,2.064,0,0,0,2.46,1.4,2.014,2.014,0,0,0,1.4-2.461,32.575,32.575,0,0,0-6.871-10.1,29.376,29.376,0,0,0-9.369-6.843,2.066,2.066,0,0,0-2.737.718,2.014,2.014,0,0,0,.718,2.736Z"/><path class="b" d="M193.383,135.555a93.336,93.336,0,0,1,8.353-7.814,51.51,51.51,0,0,1,4.385-3.285c.637-.422,1.287-.826,1.956-1.2q.263-.145.531-.285a1.309,1.309,0,0,1-1.148-.283,12.88,12.88,0,0,0,.092,1.364c-.071,2.011,1.183,3.833,3.374,3.688,1.578-.1,3.311-1.474,4.674-2.231a95.16,95.16,0,0,1,10.3-5.279,2.064,2.064,0,0,0,1.4-2.461,2.014,2.014,0,0,0-2.46-1.4,100.279,100.279,0,0,0-10.934,5.506c-.8.445-1.6.892-2.41,1.333a4.452,4.452,0,0,0-.8.433q-.7.277.438.243.461.931.422.165a5.262,5.262,0,0,0-.543-3.229,3.245,3.245,0,0,0-2.169-1.728c-1.745-.383-3.664,1.178-5.028,2.1-1.592,1.073-3.115,2.252-4.6,3.467a92.693,92.693,0,0,0-8.656,8.063c-1.769,1.87,1.055,4.7,2.828,2.829Z"/><path class="b" d="M300.329,153.4a38.109,38.109,0,0,1,3.366-10.221,35.015,35.015,0,0,1,3.286-5.7,11.7,11.7,0,0,1,3.636-3.42c2.261-1.232.245-4.687-2.019-3.454-3.886,2.118-6.4,6.445-8.242,10.31a41.94,41.94,0,0,0-3.884,11.418,2.063,2.063,0,0,0,1.4,2.46,2.014,2.014,0,0,0,2.46-1.4Z"/><path class="b" d="M31.5,300.28C37.678,292,44.02,283.593,48.915,274.468a43.517,43.517,0,0,0,3.619-9.318c1.283-4.723,2.39-9.5,3.476-14.268q2.369-10.409,4.493-20.872c.515-2.513-3.34-3.588-3.857-1.064-2.293,11.2-4.641,22.421-7.53,33.487a43.51,43.51,0,0,1-3.095,8.948A115.909,115.909,0,0,1,38.6,283.522c-3.386,5.007-6.944,9.9-10.56,14.739A2.012,2.012,0,0,0,28.76,301a2.048,2.048,0,0,0,2.736-.717Z"/><path class="b" d="M385.124,241.761c2.569,15.718,6.191,31.286,9.625,46.832q1.728,7.825,3.475,15.648c.56,2.511,4.417,1.448,3.858-1.064-3.858-17.313-7.793-34.619-11.2-52.028-.679-3.476-1.333-6.957-1.9-10.452a2.016,2.016,0,0,0-2.461-1.4,2.05,2.05,0,0,0-1.4,2.461Z"/><path class="b" d="M290.544,253.541c3.588,16.837,6.7,33.776,9.84,50.7.47,2.527,4.326,1.457,3.858-1.064-3.145-16.924-6.253-33.863-9.84-50.7-.537-2.516-4.393-1.451-3.858,1.064Z"/><path class="b" d="M262.753,229.949c.176,10.122.788,20.232,1.277,30.343.448,9.259.655,18.526,1.066,27.786.232,5.211.487,10.42.707,15.631.108,2.564,4.109,2.578,4,0-.8-18.989-1.537-37.978-2.444-56.962-.268-5.6-.509-11.2-.606-16.8-.045-2.571-4.045-2.579-4,0Z"/><path class="b" d="M171.053,303.709c.757-17.947,1.423-35.9,2.3-53.838.278-5.674.521-11.351.616-17.032.043-2.575-3.957-2.576-4,0-.171,10.185-.813,20.354-1.29,30.528-.412,8.776-.6,17.561-1,26.338-.211,4.668-.437,9.335-.634,14-.109,2.574,3.892,2.569,4,0Z"/><path class="b" d="M209.366,256.185c-7.982-13.836-15.872-27.735-23.238-41.91-.486-.935-.914-1.933-1.462-2.833,0,0-.24-.607-.228-.319,0,.03-.225.457.105-.068a8.65,8.65,0,0,1,1.148-1.214c1.661-1.719,3.4-3.365,5.139-5a2.018,2.018,0,0,0-.4-3.141l-3.11-1.775-1.45-.828-.83-.473q-.711-.475-.207-.036l.273,1.01c-.013.313.245-.349.294-.437.159-.284.327-.563.5-.838.373-.591.773-1.167,1.194-1.725a37.007,37.007,0,0,1,2.925-3.368,37.92,37.92,0,0,1,6.551-5.565l-2.938-1.2a312.994,312.994,0,0,0,8.926,30.213c3.017,9,5.871,18.055,9,27.012,1.6,4.569,3.369,9.073,5.185,13.559a2.064,2.064,0,0,0,2.46,1.4,2.014,2.014,0,0,0,1.4-2.461c-3.154-7.79-5.944-15.667-8.545-23.656-3.27-10.043-6.8-20-9.922-30.093-1.74-5.624-3.343-11.292-4.645-17.034a2.014,2.014,0,0,0-2.938-1.195,43.229,43.229,0,0,0-10.534,9.874c-1.189,1.545-3.522,4.2-2.738,6.283.473,1.258,1.9,1.8,2.986,2.419l4.146,2.367L188,202.012c-1.627,1.526-3.246,3.062-4.806,4.658-1.347,1.378-3.054,2.825-2.689,4.959.321,1.877,1.717,3.8,2.591,5.478q1.5,2.88,3.033,5.745c4.1,7.671,8.324,15.271,12.614,22.835q3.558,6.273,7.167,12.517c1.286,2.229,4.743.217,3.454-2.019Z"/><path class="b" d="M222.038,257.324c3.195-8.183,6.426-16.334,9.175-24.682,3.236-9.824,6.691-19.578,9.75-29.459,1.715-5.54,3.3-11.123,4.581-16.779l-2.938,1.195a35.8,35.8,0,0,1,6.772,5.572A38.9,38.9,0,0,1,252.5,196.7c.39.509.76,1.035,1.109,1.572.176.271.348.545.511.824.075.128.451.939.44.685l.273-1.009q.5-.443-.207.032l-.829.471-1.451.824-3.109,1.767a2.018,2.018,0,0,0-.405,3.141c1.569,1.466,3.13,2.941,4.639,4.47.454.46,1.666,1.4,1.778,1.867-.086-.362-.429.573-.528.765q-.342.66-.686,1.319-2.755,5.275-5.654,10.473c-4.021,7.242-8.188,14.4-12.412,21.528q-3.544,5.981-7.137,11.935c-1.33,2.211,2.127,4.224,3.454,2.018,8.994-14.946,17.977-29.938,25.986-45.442a5.166,5.166,0,0,0,.882-3.335,5.457,5.457,0,0,0-1.693-2.756c-1.86-1.964-3.825-3.824-5.8-5.67l-.405,3.141,4.145-2.356c1.147-.652,2.7-1.243,3.087-2.651.584-2.128-1.956-4.91-3.16-6.441a41.332,41.332,0,0,0-10.7-9.73,2.017,2.017,0,0,0-2.938,1.2,306.769,306.769,0,0,1-8.79,29.715c-3.072,9.134-5.964,18.351-9.339,27.379-1.732,4.631-3.578,9.22-5.376,13.825a2.015,2.015,0,0,0,1.4,2.461,2.048,2.048,0,0,0,2.461-1.4Z"/><path class="b" d="M219.023,189.4c-5.382-3.623-10.663-7.408-16.091-10.96a2.008,2.008,0,0,0-2.424.313c-1.788,2.147-3.37,4.456-5.175,6.591a2.061,2.061,0,0,0-.313,2.424c3.968,6.179,7.626,12.648,13.16,17.6a2.026,2.026,0,0,0,3.141-.405c2.543-4.442,5.688-8.507,8.419-12.829,1.38-2.182-2.08-4.191-3.454-2.018-2.731,4.321-5.876,8.386-8.418,12.828l3.141-.4c-5.289-4.735-8.743-10.888-12.535-16.793l-.312,2.423c1.8-2.135,3.387-4.444,5.175-6.591l-2.424.313c5.429,3.552,10.709,7.337,16.091,10.96C219.145,194.293,221.15,190.83,219.023,189.4Z"/><path class="b" d="M224.66,203.6c-3.35,0-6.7-.07-10.051-.072a2,2,0,0,0,0,4c3.35,0,6.7.071,10.051.072a2,2,0,0,0,0-4Z"/><path class="b" d="M224.747,199.374q-.528,2.819-1.176,5.61a10.42,10.42,0,0,0-.382,3.146c.145,1.82.442,3.639.667,5.45.877,7.028,1.753,14.057,2.574,21.092a2.062,2.062,0,0,0,2,2,2.012,2.012,0,0,0,2-2c-.809-6.934-1.672-13.862-2.536-20.79-.231-1.852-.476-3.7-.684-5.559a6.587,6.587,0,0,1,.219-2.275q.643-2.794,1.175-5.61c.471-2.516-3.383-3.595-3.857-1.064Z"/><path class="b" d="M212.541,235.059c.986-6.942,1.986-13.883,2.948-20.829.259-1.877.546-3.755.748-5.639.291-2.705-1.028-5.464-1.648-8.051-.6-2.5-4.459-1.443-3.857,1.063.542,2.261,1.761,4.693,1.5,7.048-.2,1.786-.437,3.354-.688,5.16-.935,6.731-1.9,13.457-2.858,20.185a2.067,2.067,0,0,0,1.4,2.46,2.014,2.014,0,0,0,2.46-1.4Z"/><path class="b" d="M221.8,192.963c5.382-3.623,10.663-7.408,16.091-10.96l-2.424-.313c1.788,2.147,3.371,4.456,5.176,6.591l-.313-2.423c-3.792,5.905-7.245,12.058-12.535,16.793l3.142.4c-2.543-4.442-5.687-8.506-8.419-12.828-1.372-2.171-4.835-.166-3.454,2.019,2.732,4.321,5.876,8.386,8.419,12.828a2.026,2.026,0,0,0,3.141.405c5.534-4.954,9.192-11.423,13.16-17.6a2.05,2.05,0,0,0-.313-2.424c-1.8-2.135-3.387-4.444-5.175-6.591a2.006,2.006,0,0,0-2.424-.313c-5.428,3.552-10.709,7.338-16.091,10.96C217.66,190.939,219.66,194.406,221.8,192.963Z"/><path class="b" d="M216.561,268.471a3.46,3.46,0,0,0-.431,4.736,3.7,3.7,0,0,0,4.913.455,3.387,3.387,0,0,0,.166-4.9A3.563,3.563,0,0,0,216.561,268.471Z"/><path class="b" d="M335.136,196.935c-5.726-3.05-11.368-6.272-17.133-9.246a2.056,2.056,0,0,0-2.737.717c-1.558,2.319-2.893,4.78-4.469,7.089a2.046,2.046,0,0,0,.313,2.424c4.607,5.769,8.906,11.718,14.953,16.1a2,2,0,0,0,2.737-.718c2.071-4.681,4.782-9.046,7.054-13.627,1.14-2.3-2.309-4.327-3.454-2.019-2.272,4.581-4.983,8.946-7.054,13.627l2.736-.717c-5.717-4.14-9.791-10.021-14.144-15.472l.313,2.424c1.575-2.309,2.911-4.77,4.469-7.089l-2.736.718c5.765,2.974,11.407,6.2,17.133,9.246C335.388,201.6,337.411,198.147,335.136,196.935Z"/><path class="b" d="M342.228,210.378c-3.333.343-6.673.62-10.006.963a2.047,2.047,0,0,0-2,2,2.022,2.022,0,0,0,2,2c3.333-.343,6.673-.62,10.006-.963a2.047,2.047,0,0,0,2-2,2.02,2.02,0,0,0-2-2Z"/><path class="b" d="M327.894,209.641c.777,2.176,2.333,4.647,2.256,6.8-.043,1.229-.116,2.458-.18,3.687q-.377,7.15-.782,14.3-.489,8.841-.957,17.684-.207,3.959-.4,7.919-.081,1.7-.157,3.4c-.049,1.135-.293,2.5.217,3.545a29.014,29.014,0,0,0,3.388,4.683q1.862,2.4,3.818,4.72,2.031,2.424,4.126,4.793.925,1.052,1.862,2.093a9.827,9.827,0,0,0,2.053,2.055,3.051,3.051,0,0,0,3.038-.04,6.93,6.93,0,0,0,2.044-2.768q1.809-3.164,3.545-6.367,1.576-2.909,3.082-5.854a40.756,40.756,0,0,0,2.664-5.467c.382-1.164-.085-2.437-.357-3.588q-.36-1.529-.737-3.052-.875-3.562-1.789-7.116-2.138-8.362-4.354-16.7-1.923-7.282-3.867-14.559-.584-2.191-1.163-4.385a6.073,6.073,0,0,1-.23-2.891c.234-1.981.47-3.958.618-5.948.19-2.568-3.811-2.556-4,0-.145,1.959-.376,3.906-.607,5.856a8.38,8.38,0,0,0,.038,2.8c.195.89.461,1.77.695,2.651q1.6,6.036,3.211,12.071c2.718,10.239,5.463,20.477,7.954,30.775.238.983.418,2,.7,2.967a2.631,2.631,0,0,1,.074.324c-.062-.437.057-.415-.179-.04a15.836,15.836,0,0,0-.7,1.447q-.8,1.622-1.622,3.229-1.68,3.279-3.452,6.51-.93,1.7-1.882,3.392-.483.858-.972,1.714-.183.323-.368.644l-.372.645q-.412.525.531.1l.883.514a31,31,0,0,1-3.646-3.989q-1.951-2.217-3.854-4.476c-1.26-1.5-2.5-3.017-3.706-4.563a24.245,24.245,0,0,1-3.011-4.194l.273,1.01a31.12,31.12,0,0,1,.162-4.86q.138-2.943.289-5.886.348-6.805.723-13.609c.417-7.64.863-15.279,1.251-22.921.044-.855.126-1.72.118-2.576-.025-2.611-1.552-5.13-2.41-7.535s-4.726-1.369-3.858,1.064Z"/><path class="b" d="M338.318,199.9c4.98-4.157,9.844-8.465,14.877-12.557h-2.828c2,1.952,3.812,4.085,5.826,6.023l-.313-2.423c-3.152,6.241-5.941,12.787-10.7,18.023l3.141.405c-3.087-4.3-6.739-8.147-10.007-12.3a2.012,2.012,0,0,0-2.829,0,2.051,2.051,0,0,0,0,2.828c3.057,3.883,6.5,7.472,9.382,11.49a2.027,2.027,0,0,0,3.141.405c5.011-5.518,8-12.256,11.322-18.834a2.057,2.057,0,0,0-.313-2.423c-2.014-1.939-3.827-4.072-5.826-6.024a2.056,2.056,0,0,0-2.828,0c-5.034,4.093-9.9,8.4-14.878,12.558C333.511,198.723,336.354,201.54,338.318,199.9Z"/><path class="b" d="M96.745,268.677a3.383,3.383,0,0,0-1.031,4.534,3.618,3.618,0,0,0,4.7,1.078,3.314,3.314,0,0,0,.8-4.726A3.485,3.485,0,0,0,96.745,268.677Z"/><path class="b" d="M103.46,255.905c8.188-14.291,15.662-29.01,22.486-44,2.14-4.7,4.172-9.453,6.02-14.277l-3.343.882a33.956,33.956,0,0,1,5.685,5.8,33.4,33.4,0,0,1,2.3,3.3c.427.7,1.594,2.205,1.519,3.066l.586-1.414a4.287,4.287,0,0,1-1.212.563c-.578.27-1.151.55-1.723.831-1.068.526-2.132,1.059-3.209,1.564a2.014,2.014,0,0,0-.405,3.141c.857.824,1.745,1.613,2.616,2.422.41.381.817.766,1.208,1.167.317.325.746,1.052,1.135,1.257l.225.287q.289-.64-.046-.068a11.719,11.719,0,0,0-.992,1.365q-1.015,1.389-2.045,2.767-4.018,5.382-8.2,10.635c-5.761,7.271-11.671,14.422-17.608,21.549-1.637,1.964,1.178,4.809,2.828,2.828,5.051-6.063,10.082-12.143,15.018-18.3,4.9-6.107,9.833-12.245,14.332-18.656,2.737-3.9-3.195-7.731-5.641-10.081l-.4,3.141c1.142-.536,2.269-1.1,3.4-1.659,1.089-.534,2.59-.935,3.444-1.807,1.71-1.747-.2-4.636-1.188-6.309a36.974,36.974,0,0,0-8.792-10.22,2.038,2.038,0,0,0-3.343.883c-3.2,8.352-6.987,16.463-10.909,24.5-3.607,7.387-7.207,14.8-11.117,22.03-1.964,3.633-4.024,7.213-6.077,10.8-1.282,2.237,2.173,4.255,3.454,2.019Z"/><path class="b" d="M103.4,254.821c-1.93-7.413-3.9-14.8-5.413-22.311-1.776-8.8-3.743-17.557-5.363-26.384-.906-4.935-1.692-9.892-2.2-14.885-.114-1.128-1.213-2.479-2.532-1.928a38.148,38.148,0,0,0-11.513,7.632c-1.374,1.315-4.066,3.648-2.984,5.761a10.071,10.071,0,0,0,2.6,2.5c1.058.926,2.1,1.869,3.17,2.78l.4-3.142c-1.572.859-3.206,1.609-4.746,2.525-1.579.939-3.606,2.138-3.623,4.215-.014,1.687,1.07,3.547,1.672,5.088q1.04,2.661,2.12,5.307c3.038,7.458,6.258,14.841,9.549,22.191q2.757,6.16,5.572,12.3a2.015,2.015,0,0,0,2.736.717,2.048,2.048,0,0,0,.718-2.736c-3.888-8.506-7.744-17.029-11.418-25.63q-2.678-6.266-5.183-12.6-.627-1.6-1.238-3.2a5.669,5.669,0,0,0-.448-1.182q-.156-.665-.119.109.327-.246.667-.476c1.814-1.233,3.84-2.118,5.76-3.167A2.014,2.014,0,0,0,82,205.159c-.907-.771-1.793-1.565-2.686-2.352-.426-.376-.853-.751-1.286-1.119-.319-.272-.984-.629-1.175-1l.2,1.541c.139-.773,1.482-1.8,2.026-2.331a31.976,31.976,0,0,1,3.193-2.711,32.493,32.493,0,0,1,6.686-4.016l-2.532-1.929a262.56,262.56,0,0,0,4.528,27.017c1.724,8.294,3.282,16.643,5.288,24.874,1.039,4.266,2.192,8.5,3.3,12.752.649,2.489,4.508,1.434,3.857-1.063Z"/><path class="b" d="M310.617,134.059c2.586-1.223,5.924-.817,8.677-.591a61.323,61.323,0,0,0,8.828.429c5.661-.351,11.222-1.639,16.884-1.976a22.523,22.523,0,0,1,4.023.034,11.827,11.827,0,0,1,1.339.3c.392.115.083-.007.332.122.113.059.634.415.327.167a2.062,2.062,0,0,0,2.829,0,2.016,2.016,0,0,0,0-2.829c-1.854-1.5-4.194-1.819-6.519-1.854a61.372,61.372,0,0,0-9.114.806c-3.009.41-6.011.9-9.039,1.153a52.323,52.323,0,0,1-9.117-.283c-3.834-.34-7.895-.62-11.469,1.07-2.325,1.1-.3,4.55,2.019,3.454Z"/><path class="b" d="M122.7,209.244c-10.429,3.657-21.521.973-30.869-4.255-2.249-1.258-4.268,2.2-2.019,3.454,10.221,5.716,22.547,8.657,33.951,4.658,2.413-.846,1.375-4.712-1.063-3.857Z"/></svg>